<?xml version="1.0" encoding="utf-8"?>
<!-- Generator: Adobe Illustrator 16.0.0, SVG Export Plug-In . SVG Version: 6.00 Build 0)  -->
<!DOCTYPE svg PUBLIC "-//W3C//DTD SVG 1.1//EN" "http://www.w3.org/Graphics/SVG/1.1/DTD/svg11.dtd">
<svg version="1.1" id="Layer_1" xmlns="http://www.w3.org/2000/svg" xmlns:xlink="http://www.w3.org/1999/xlink" x="0px" y="0px"
	 width="24px" height="24px" viewBox="0 0 24 24" enable-background="new 0 0 24 24" xml:space="preserve">
<path fill="#007360" d="M12,14c2.206,0,4,1.794,4,4s-1.794,4-4,4s-4-1.794-4-4S9.794,14,12,14z M12,12c-3.313,0-6,2.687-6,6
	s2.687,6,6,6s6-2.687,6-6S15.313,12,12,12z M13.236,18.452l1.264-1.214l-1.736-0.24L12,15.423L11.236,17L9.5,17.238l1.264,1.214
	l-0.308,1.725L12,19.35l1.544,0.828L13.236,18.452z M14.604,9.194L20,3l-2-3H6L4,3l6,7h3.958L8,3h8l-3.377,3.87L14.604,9.194
	L14.604,9.194z"/>
</svg>
