<svg id="Layer_1" data-name="Layer 1" xmlns="http://www.w3.org/2000/svg" viewBox="0 0 199.93 166.24"><defs><style>.cls-1{fill:#231f20;}</style></defs><title>icon-mobile-communications</title><path class="cls-1" d="M58.77,23.91A18.49,18.49,0,1,1,40.27,42.41,18.51,18.51,0,0,1,58.77,23.91m0-17a35.5,35.5,0,1,0,35.5,35.5,35.5,35.5,0,0,0-35.5-35.5Z" transform="translate(0 0)"/><path class="cls-1" d="M81.5,105.55A18.51,18.51,0,0,1,100,124v25.19H17V124A18.51,18.51,0,0,1,35.5,105.55h46m0-17h-46A35.5,35.5,0,0,0,0,124v42.2H117V124a35.5,35.5,0,0,0-35.5-35.5Z" transform="translate(0 0)"/><path class="cls-1" d="M182.93,17V65.9H163.44l-2.91,3.19V65.9H122A67.41,67.41,0,0,0,121.34,17h61.58m17-17H86.19a50.49,50.49,0,0,1,2.75,82.9h54.58v30l27.42-30h29V0Z" transform="translate(0 0)"/></svg>