<svg id="Layer_1" data-name="Layer 1" xmlns="http://www.w3.org/2000/svg" viewBox="0 0 115 115"><title>icon-happy</title><path d="M88,40.5A47.5,47.5,0,1,1,40.5,88,47.55,47.55,0,0,1,88,40.5m0-10A57.5,57.5,0,1,0,145.5,88,57.5,57.5,0,0,0,88,30.5M109.47,98c-1.17,9.43-10.83,17.59-21.37,17.59S67.89,107.43,66.72,98h42.74m7.46-8H59.29a27.62,27.62,0,0,0-.69,6.09c0,15.19,14.31,27.5,29.5,27.5s29.5-12.31,29.5-27.5a27.62,27.62,0,0,0-.69-6.09M72.69,60.52a7,7,0,1,0,7,7,7,7,0,0,0-7-7m30.6,0a7,7,0,1,0,7,7,7,7,0,0,0-7-7" transform="translate(-30.5 -30.5)"/></svg>