<svg id="Layer_1" data-name="Layer 1" xmlns="http://www.w3.org/2000/svg" viewBox="0 0 448 262"><defs><style>.cls-1{fill:#010101;}</style></defs><title>3442_family</title><path class="cls-1" d="M177,0V31.65l17,.06V16H432V160H279v12.51L284.68,187H290v13.58L299.18,224H355l-1.17-9-17.79-9V187H448V0ZM317,173h-8v-7h8Z"/><path class="cls-1" d="M264,44H43v65H60V60H247V172H114v17H251.62l12.74,34H114v17H288.85L264,172.37ZM155,55H143V50h12Z"/><path class="cls-1" d="M0,238.74V262H103V120H0ZM59,253H44v-5H59ZM15,135H88V239H15Z"/></svg>