<svg id="Layer_1" data-name="Layer 1" xmlns="http://www.w3.org/2000/svg" viewBox="0 0 48 48"><defs><style>.cls-1{fill:#231f20;}</style></defs><title>2</title><path class="cls-1" d="M27.35,12.92a8,8,0,0,1,7.75,8.21A8.78,8.78,0,0,1,35,22a6.47,6.47,0,0,1,5.15,6.46A6.39,6.39,0,0,1,34,35H14a6.57,6.57,0,0,1-.83-13A4.39,4.39,0,0,1,13,20.94,4,4,0,0,1,17,16.8,3.85,3.85,0,0,1,20,18.35a7.82,7.82,0,0,1,7.32-5.42m0-2.77A10.44,10.44,0,0,0,19,14.37,6.53,6.53,0,0,0,17,14a6.79,6.79,0,0,0-6.64,6A9.39,9.39,0,0,0,5,28.52a9.17,9.17,0,0,0,9,9.32H34a9.17,9.17,0,0,0,9-9.32,9.34,9.34,0,0,0-5.15-8.44,10.74,10.74,0,0,0-10.5-9.9Z"/></svg>