<svg id="Layer_1" data-name="Layer 1" xmlns="http://www.w3.org/2000/svg" xmlns:xlink="http://www.w3.org/1999/xlink" viewBox="0 0 28.45 28.45"><defs><style>.cls-1{fill:none;}.cls-2{clip-path:url(#clip-path);}.cls-3{fill:#1a1a1a;}</style><clipPath id="clip-path" transform="translate(-656.19 -300.55)"><rect class="cls-1" x="656.19" y="300.55" width="28.45" height="28.45"/></clipPath></defs><title>6</title><g class="cls-2"><path class="cls-3" d="M670.42,303a11.75,11.75,0,1,1-11.75,11.75A11.76,11.76,0,0,1,670.42,303m0-2.47a14.23,14.23,0,1,0,14.23,14.22,14.22,14.22,0,0,0-14.23-14.22m5.21,16.78a5.33,5.33,0,0,1-10.48.08h10.38m2-2H663.31a6.16,6.16,0,0,0-.17,1.43c0,3.76,3.54,6.76,7.3,6.76s7.3-3,7.3-6.74a6.32,6.32,0,0,0-.17-1.45M666.63,308a1.73,1.73,0,1,0,1.73,1.73,1.73,1.73,0,0,0-1.73-1.73m7.57,0a1.73,1.73,0,1,0,1.73,1.73A1.73,1.73,0,0,0,674.2,308" transform="translate(-656.19 -300.55)"/></g></svg>