<svg id="Layer_1" data-name="Layer 1" xmlns="http://www.w3.org/2000/svg" viewBox="0 0 25.07 34.82"><defs><style>.cls-1{fill:#1a1a1a;}</style></defs><title>1</title><path class="cls-1" d="M640.53,496.56,651,502.18l0,14.36c-.89,4.3-6.85,8.33-10.26,10.05l-.14.07-.14-.07c-3.44-1.73-9.45-5.81-10.28-10.14l0-.28v-14l10.45-5.63m0-2.37L628,500.93v15.34l0,.47c1.13,6.38,10.36,11.19,11.41,11.72l1.08.54,1.08-.54c1-.53,10.28-5.34,11.41-11.72l0-15.8-12.53-6.75Z" transform="translate(-627.99 -494.18)"/><polygon class="cls-1" points="11.78 24.62 5.52 16.73 7.71 15 11.62 19.95 17.31 11.74 19.6 13.33 11.78 24.62"/></svg>