<svg id="Layer_1" data-name="Layer 1" xmlns="http://www.w3.org/2000/svg" viewBox="0 0 28.22 28.06"><defs><style>.cls-1{fill:#1a1a1a;}</style></defs><title>4</title><rect class="cls-1" x="11.5" y="21.39" width="5.22" height="1.53"/><path class="cls-1" d="M640.3,500.07a12,12,0,0,1,10.08,5.49l1.82-.87a14,14,0,0,0-23.81,0l1.81.87A12,12,0,0,1,640.3,500.07Z" transform="translate(-626.19 -498.07)"/><path class="cls-1" d="M640.3,524.13a12,12,0,0,1-11.24-7.79h-2.13a14,14,0,0,0,26.75,0h-2.13A12,12,0,0,1,640.3,524.13Z" transform="translate(-626.19 -498.07)"/><path class="cls-1" d="M652.85,505.48l-12.6,6-12.5-6-.16.28a14.05,14.05,0,0,0-1.4,6.13h0c0,.27,0,.54,0,.8,0,.07,0,.14,0,.21s0,.41.06.61l0,.2c0,.22.06.43.1.65l0,.14c0,.26.1.52.17.77H654c.06-.25.12-.51.17-.77l0-.14c0-.21.07-.43.1-.65l0-.2c0-.21,0-.41.06-.62s0-.14,0-.21c0-.27,0-.54,0-.82h0A14,14,0,0,0,652.85,505.48Zm-21.46,7.31v-2.46l4.92,2.46Zm12.81,0,4.92-2.46v2.46Z" transform="translate(-626.19 -498.07)"/></svg>