<?xml version="1.0" encoding="utf-8"?>
<!-- Generator: Adobe Illustrator 22.0.1, SVG Export Plug-In . SVG Version: 6.00 Build 0)  -->
<svg version="1.1" id="Layer_1" xmlns="http://www.w3.org/2000/svg" xmlns:xlink="http://www.w3.org/1999/xlink" x="0px" y="0px"
	 viewBox="0 0 500 500" style="enable-background:new 0 0 500 500;" xml:space="preserve">
<style type="text/css">
	.st0{fill:#606060;}
	.st1{fill:#D4D4D4;}
</style>
<g>
	<path id="path4117_1_" class="st0" d="M407.8,233.3h32.8V266h-32.8V233.3z"/>
	<path id="path4119_1_" class="st1" d="M407.8,266h32.8v32.8h-32.8V266z"/>
	<g id="g4125_1_">
		<path id="path4127_1_" class="st1" d="M440.6,233.3h32.8V266h-32.8V233.3z"/>
		<path id="path4129_1_" class="st0" d="M440.6,200.5h32.8v32.8h-32.8V200.5z"/>
	</g>
	<path id="path4131_1_" class="st0" d="M49.7,253.4c0,2-0.3,7.5-7.3,7.5c-2.9,0-5.5-0.8-5.5-4.2c0-3.3,2.5-4.2,5.3-4.8
		c2.8-0.5,5.9-0.6,7.5-1.9V253.4z M37.9,243.4c0.3-3.6,2.5-4.9,5.9-4.9c3.2,0,5.8,0.6,5.8,4.4c0,3.7-5.1,3.6-10.6,4.3
		c-5.6,0.8-11.2,2.5-11.2,9.9c0,6.7,4.9,9.8,11.2,9.8c4,0,8.2-1.1,11-4c0.1,1.1,0.3,2.2,0.6,3.2h9.1c-0.8-1.3-1.1-4.3-1.1-7.3v-17
		c0-7.9-7.9-9.3-14.4-9.3c-7.4,0-14.9,2.5-15.4,11H37.9"/>
	<path id="path4133_1_" class="st0" d="M61.6,266h10l6.9-10.3l6.8,10.3h10.2l-12.1-17.4l10.8-15.3h-9.9l-5.7,8.5l-5.8-8.5H62.6
		l10.8,15.5L61.6,266"/>
	<path id="path4135_1_" class="st0" d="M127.5,251.9c0.6-10.1-4.7-19.4-15.9-19.4c-9.9,0-16.7,7.5-16.7,17.3
		c0,10.1,6.4,17.2,16.7,17.2c7.4,0,12.8-3.3,15.3-11H119c-0.6,2-3.5,4.2-7.1,4.2c-5,0-7.8-2.6-8-8.3H127.5z M103.9,246.2
		c0.1-2.5,1.8-7,7.5-7c4.4,0,6.3,2.4,7.2,7H103.9"/>
	<path id="path4137_1_" class="st0" d="M132.1,266.1h9v-45.2h-9V266.1z"/>
	<path id="path4139_1_" class="st0" d="M155.3,255.5c0.4,8.7,7.8,11.5,15.4,11.5c7.5,0,14.9-2.8,14.9-11.4c0-6.1-5.1-8-10.4-9.2
		c-5.1-1.2-10.2-1.6-10.2-4.9c0-2.7,3-3,5-3c3.2,0,5.9,0.9,6.1,4.4h8.5c-0.7-8-7.3-10.4-14.4-10.4c-7,0-14.2,2.2-14.2,10.5
		c0,5.7,5.2,7.6,10.4,8.7c6.5,1.4,10.2,2.4,10.2,5.1c0,3.2-3.3,4.2-5.9,4.2c-3.6,0-6.8-1.6-6.9-5.5H155.3"/>
	<path id="path4141_1_" class="st0" d="M189.6,277.6h9v-15.6h0.1c2.2,3.2,5.9,4.9,9.8,4.9c9.5,0,14.4-8.2,14.4-16.9
		c0-9.3-4.6-17.6-14.9-17.6c-4.1,0-7.6,1.6-9.7,5.1h-0.1v-4.2h-8.5V277.6z M206.1,260.2c-5.8,0-7.8-5.1-7.8-10.4
		c0-5.3,1.9-10.6,7.8-10.6c5.8,0,7.9,5.4,7.9,10.6C213.9,255.1,212,260.2,206.1,260.2"/>
	<path id="path4143_1_" class="st0" d="M226.6,266.1h9v-14.7c0-5.7,2.3-9.6,8.9-9.6c1.1,0,2.4,0.1,3.2,0.3v-8.6
		c-0.6-0.1-1.3-0.1-2-0.1c-4.4,0-8.8,2-10.4,6.1h-0.1v-6.1h-8.5V266.1"/>
	<path id="path4145_1_" class="st0" d="M251.9,266.1h9v-32.7h-9V266.1z M251.9,228.3h9v-7.4h-9V228.3z"/>
	<path id="path4147_1_" class="st0" d="M266.1,266.1h9v-17.1c0-6.7,2.1-9.4,7-9.4c4.2,0,5.7,2.7,5.7,8v18.5h9V246
		c0-8.1-2.4-13.5-12-13.5c-3.8,0-7.7,1.8-10,5.4h-0.2v-4.6h-8.5V266.1"/>
	<path id="path4149_1_" class="st0" d="M333.8,233.4h-8.5v4.4h-0.1c-2.2-3.8-5.4-5.2-9.7-5.2c-9.2,0-14,7.7-14,16.2
		c0,9,4.2,16.5,14,16.5c3.9,0,7.9-1.6,9.8-5.1h0.1v4.3c0,4.7-2.2,8.1-7.2,8.1c-3.2,0-5.9-1.1-6.7-4.5h-8.9c0.5,7.5,8,10.5,14.4,10.5
		c15.1,0,17-9.1,17-14.5V233.4z M317.6,258.4c-5.5,0-7.3-5.1-7.3-9.8c0-4.9,2.2-9.3,7.3-9.3c5.8,0,7.7,4.7,7.7,10.1
		C325.2,254,322.7,258.4,317.6,258.4"/>
	<path id="path4151_1_" class="st0" d="M370.7,251.9c0.6-10.1-4.8-19.4-15.9-19.4c-9.9,0-16.7,7.5-16.7,17.3
		c0,10.1,6.4,17.2,16.7,17.2c7.4,0,12.8-3.3,15.3-11h-7.9c-0.6,2-3.5,4.2-7.1,4.2c-5,0-7.8-2.6-8-8.3H370.7z M347.1,246.2
		c0.1-2.5,1.8-7,7.5-7c4.4,0,6.3,2.4,7.2,7H347.1"/>
	<path id="path4153_1_" class="st0" d="M375.4,266h9v-14.7c0-5.7,2.3-9.6,8.9-9.6c1.1,0,2.4,0.1,3.2,0.3v-8.6
		c-0.6-0.1-1.3-0.1-2-0.1c-4.4,0-8.8,2-10.4,6.1H384v-6.1h-8.5V266"/>
</g>
</svg>
