<?xml version="1.0" encoding="utf-8"?>
<!-- Generator: Adobe Illustrator 22.0.1, SVG Export Plug-In . SVG Version: 6.00 Build 0)  -->
<svg version="1.1" id="Layer_1" xmlns="http://www.w3.org/2000/svg" xmlns:xlink="http://www.w3.org/1999/xlink" x="0px" y="0px"
	 viewBox="0 0 500 500" style="enable-background:new 0 0 500 500;" xml:space="preserve">
<style type="text/css">
	.st0{fill:#D4D4D4;}
	.st1{fill:#606060;}
	.st2{fill:#010101;}
</style>
<g>
	<rect x="112.3" y="63.7" class="st0" width="277" height="19.7"/>
	<path class="st0" d="M120.2,24h261.2c4.2,0,8,4,8,8v12.6H112.3l0-11v-0.9C112.3,28.1,115.8,24.4,120.2,24"/>
	<path class="st1" d="M380.3,18.6c8,0,14.5,6.4,14.5,14.3v433.7c0,7.9-6.5,14.3-14.5,14.3H121.2c-8,0-14.5-6.4-14.5-14.3V33
		c0-7.9,6.5-14.3,14.5-14.3H380.3 M380.3,24.4H121.2c-4.8,0-8.7,3.9-8.7,8.6v433.7c0,4.8,3.9,8.6,8.7,8.6h259.2
		c4.8,0,8.7-3.8,8.7-8.6V33C389,28.2,385.1,24.4,380.3,24.4z"/>
	<g>
		<path class="st1" d="M245.5,113.8c1,0.5,1.4,0.9,2.3,1.1c0.9,0.2,2.1,0.9,2.4,0.1c0.3-0.8-0.2-1.7-0.7-2.6c-1-1.6-1.5-2-2.9-4.2
			c-0.3-0.5-0.5-1-1-1c0,0-0.2,1.7-0.6,2.6c-0.4,0.9-1.4,1.5-1.3,2.1C243.9,112.6,244.5,113.3,245.5,113.8z"/>
		<path class="st1" d="M349.2,220.1c-1,1.5-1.6,4.4-3.2,7c-2.2,3.4-5.5,7.6-7,7.7c-0.9,0-1.1-2-1.1-2s-1.1-3.3,0.8-7.6
			c1.3-3,2.1-3.8,3.8-6.1c1.6-2.1,2.6-3.2,3.8-5.5c1-2,1.2-2.4,1.9-5.5c0.2-0.7-0.2-2.3-0.9-2.3c-1,0.1-3.7,5.9-6.6,9.3
			c-2.7,3.1-7.8,7.1-7.8,7.1s-0.5,0.3-0.6-0.6c-0.1-0.9-0.3-3.4,0.2-5.8c0.5-2.3,1.3-4.7,3.4-8.3c2.4-4.1,5.3-6.9,6.9-8.4
			c0.6-0.6,2.5-1.8,1.5-2.4c-0.8-0.5-3.4,1.8-5.4,3.2c-2.5,1.8-3.3,2.3-5.9,5.3c-2.5,3-3.1,4.3-3.1,4.3s-2.3,3.8-3,7.6
			c-0.7,3.8-0.7,5.8-0.7,5.8s0,3.3,0.3,5.4c0.3,2.1,1.1,5.3,1.1,5.3s1.2,3.7,1.7,5.9c0.5,2.2,1.3,8.8,1.3,8.8s0.6,4.7,0.3,9.2
			c-0.3,4.5-0.7,7.1-1.3,8.4c-0.5,1.4-1.9,5-4.1,7.4c-2.1,2.4-2.6,2.8-2.6,2.8s-2.2,1.9-4.1,2.8c-1.9,1-4.7,2.3-5.8,2.5
			c-1.2,0.3-3,0.4-3.1,0.4l-1.6-0.1c-0.2,0-0.4-0.2-0.5-0.4c-0.1-0.2-0.2-1-0.2-1s-1.2-4.8-2.7-8c-1.2-2.6-3.8-6.2-3.8-6.2
			s-4.5-6-7.9-9.4c-4-4-8.5-7-11.2-9.1c-1-0.8-3.2-2.1-3.2-2.1s-9-9-12.3-16.3c-2.3-5-3.7-8.6-3.2-14.1c0.1-1.3,0.7-3.6,0.9-3.6
			c0.2,0,1.4,0.4,1.6,0.4c0.2,0.1,1.7,1.4,2.9,1.9c0.8,0.3,2.1,0.5,2.1,0.5s1.1,0.1,1.7,0.3c0.6,0.2,1.7,0.6,2.5,1
			c0.8,0.4,1.9,1.1,1.9,1.1s1.9,1.4,2.1,1.6c0.2,0.2,2.2,1.8,2.2,1.8s1.3,0.9,1.6,1c0.3,0.1,0.6,0.3,0.8,0.3c0.1,0,0.4,0,0.4,0
			s0.5-0.1,0.6-0.7c0.1-0.6-0.6-0.2-1.8-1.3c-1.2-1.2-1.7-2-1.7-2s-0.3-1-1.2-2.1c-0.9-1.1-2.3-2-2.3-2s-0.8-0.6-2.1-1
			c-1.3-0.3-1.6-0.4-1.7-0.9c-0.1-0.5,1.6-0.3,1.6-0.3s1.8,0.2,3.3,1c1.5,0.8,2.4,1.6,2.4,1.6l1,0.8l0.6,0.6l0.6,0.4
			c0,0,0.7,0.6,0.8-0.2c0.1-0.8-0.1-1.3-0.2-1.5c-0.1-0.2-0.6-0.7-0.6-0.7l-2.4-2.1c-0.7-0.7-1.3-1.3-2-1.7
			c-0.7-0.5-1.9-1.2-3.2-1.8c-1.2-0.5-2-0.4-3.2-1c-0.9-0.4-1.6-0.6-2.1-1.3c-0.1-0.2-0.7-0.6,0.4-0.4c1.1,0.2,1.9,0.6,3.1,0.9
			c2,0.5,3.2,0.5,5.1,1.2c0.7,0.3,1.8,0.8,1.8,0.8l2.3,1c0,0,3.2,1.7,5.5,1.8c2.3,0.1,4.1-0.4,4.8-0.7c0.7-0.3,2.1-1.1,2.5-1.4
			c0.4-0.4,0.6-0.7,0.6-0.7s0.2-0.4,0.2-0.6c0-0.2,0.1-0.3,0-0.5c-0.6-0.7-1.8,1.2-3.9,1.6c-2,0.4-2,0.6-3.3,0.4
			c-1.5-0.2-2.4-0.7-3.5-1.7c-2-1.8-2.8-3.6-5.3-4.7c-1.2-0.5-3.1-1-3.1-1s-2.7-0.8-4.2-1.7c-1.1-0.7-3.5-0.9-2.7-2
			c0.4-0.5,3.3,1.3,5.5,1.5c1.6,0.2,2.7,0.2,4,0.1c1.3-0.1,3-0.3,3.3-0.4c0.2-0.1,1.3,0,2,0.2c0.9,0.2,1.3,0.6,2.2,0.9
			c0.8,0.4,1.9,0.9,2.1,0.9c0.2,0,0.5,0.1,0.5,0.1s0.2-0.1,0.3-0.3c0.1-0.2,0.1-0.3,0.1-0.3l-0.1-0.3l-0.4-0.3l-0.8-0.5
			c0,0-1.1-0.6-2-1.6c-1-1-1.9-2.1-3.4-2.6c-1.5-0.5-3.2-0.7-3.2-0.7l-1.7-0.1l-0.7-0.1c0,0-1.2-0.4-0.2-0.6c1-0.3,1.5-0.4,1.7-0.4
			c0.2-0.1,1.8-0.2,2.8,0.1c1.1,0.3,2.6,1.2,2.7,1.2c0.2,0.1,1.6,1.2,3.2,1.6c1.7,0.4,3.8,0.5,3.8,0.5s0.8-0.1,1-0.2
			c0.2-0.1,0.3-0.2,0.4-0.2c0.2,0,0.3-0.1,0.4-0.3c0.1-0.2-0.1-0.7-0.1-0.7s0-0.5-0.8-0.6c-0.8-0.1-2.2-0.4-3.6-1.4
			c-1.4-1-2.4-2-2.4-2s-1-0.9-2.9-1.3c-1.9-0.4-2.4-0.5-2.4-0.5l-0.6-0.2l-1.4-0.6c0,0-0.6-0.3-1.1-0.9c-0.5-0.6-1.2-1.8,0.8-1.1
			c2.1,0.7,2.5,1,2.5,1s1.1,1.1,2.1,1.2c0.6,0.1,1.1,0.2,1.5-0.2c0.6-0.7-1.2-1.4-2.4-2.2c-1-0.6-2-2.2-2-2.2s-0.7-0.7,0.4-0.4
			c1.1,0.3,3.1,1.4,3.1,1.4s1,0.5,1.4,0.6c0.4,0.2,1.4,0.8,1.8,1c0.4,0.1,1.5,0.3,2.3,0.8c0.9,0.6,1.5,1.6,2,2
			c0.5,0.4,0.9,0.9,1.4,1.1c0.6,0.2,0.8,0.4,1.2,0.1c0.4-0.2,0.5-0.4,0.5-0.4s0.1-0.3-0.5-0.6c-0.6-0.3-1.3-1.3-1.3-1.3l-0.2-0.5
			l-0.2-0.4l-0.6-0.9l-1.1-1.6c0,0-1.8-2.4-3.3-3.2c-1.5-0.8-2.5-1.3-2.5-1.3s-0.8-0.3-1.2-0.6c-0.6-0.5-0.8-0.9-1.3-1.4
			c-0.6-0.8-0.9-1.3-1.6-2c-1.3-1.4-5.6-2.1-3.9-3.1c0.8-0.5,2-0.3,2.5-0.1c0.5,0.2,1.6,0.6,2.7,0.9c0.8,0.2,1.2,0.3,2,0.5
			c0.8,0.2,1.6,0.4,2,0.6c0.3,0.2,0.8,0.7,0.9,0.8c0.2,0.1,1.1,1.7,2.9,2.5c1.8,0.9,2.6,1.4,4.4,1.6c1.4,0.1,3.6-0.4,3.6-0.4
			s0.7-0.3,0.1-0.9c-0.6-0.6-0.6-0.7-1.1-0.9c-1.9-0.8-3.5-0.5-5.1-2c-0.6-0.6-0.8-0.8-1.3-1.7c-0.5-1-0.3-1.2-0.6-1.9
			c-0.3-0.6-0.9-1.5-0.9-1.5s-1.8-2.2-3.9-3.3c-2.1-1.1-3.6-2.2-3.9-2.5c-0.3-0.3-1.1-1.3-1.1-1.3s-0.6-0.7-0.7-0.9
			c-0.1-0.2-0.3-0.5-0.3-0.8c-0.3-1.4,2.2,0.4,3.5,0.8c2.3,0.7,3.3,1.7,5.6,2.4c1.2,0.4,2,0.4,3.2,0.9c2.1,0.8,2.7,3,5,3.2
			c1.3,0.1,3.7,0.6,3.3-0.5c-0.5-1.3-3-1.2-4.2-2.7c-0.6-0.7-0.6-1.2-1.2-1.9c-1-1.2-3.4-2.4-3.4-2.4s-0.8-0.6-1.6-2.4
			c-0.8-1.7-2.6-2.9-5.9-4.6c-2.2-1.1-6.7-1.3-4.9-2.5c1-0.7,1.9-0.6,3.3-0.2c1.4,0.4,1.8,1.1,2.9,1.6c1.1,0.5,1.6,0.6,1.8,0.8
			c0.2,0.1,1.2,0.5,1.5,0.5c0.3,0.1,2.1,0.4,2.6,0.5c0.4,0.1,2.5,0.6,2.5,0.6l2,0.8c0,0,1,0.4,1.6,0.3c0.7,0,1.6-0.3,1.6-0.3
			l0.8-0.5l0.2-0.2c0,0,0.4-0.6-0.6-0.7c-0.9-0.1-1.3-0.1-1.4-0.2c-0.1,0-0.6-0.3-0.8-0.3c-0.2,0-0.4-0.2-0.4-0.2s-1.7-1.4-3.3-2
			c-1.6-0.6-1.9-0.8-1.9-0.8s-0.4-0.1-0.6-0.1c-0.2,0-0.8-0.2-0.8-0.2s-0.6,0-1.6-0.9c-1-0.9-1.4-1.3-2.3-2.2
			c-0.5-0.4-1.2-1.2-1.2-1.2s-1-0.7-1-1.4c0.1-1,2.3,1.1,2.3,1.1l1.4,1c0,0,1.2,0.9,3.5,1c2.3,0.1,4.9-0.7,4.9-0.7s0.4-0.3,1.7,0.1
			c1.2,0.4,2.2,1.1,2.2,1.1l1,0.8c0,0,1.4,1.7,1.5,1.7c0.2-0.1,0.1,0,0.2-0.1c0.1-0.1,0.8-0.8-0.3-2.1c-1.1-1.3-3-2.6-3-2.6
			s-2.5-1.5-5-2c-2.5-0.5-3.6-0.5-3.6-0.5s-1.9,0-3-1.2c-1.1-1.3-1.9-2.4-1.9-2.4l-0.8-0.6c0,0-0.6-0.8-1.8-1.3
			c-1.2-0.5-2.4-1.2-2.4-1.2s-1.8-0.7-2-1.4c-0.3-1.6,3,0,4.9,0.4c1.7,0.4,2.5,1,4.2,1.4c1.5,0.3,2.4,0.5,3.9,0.4
			c0.9,0,1.4-0.1,2.3-0.2c0.9-0.1,1.5-0.2,2.4,0c1.3,0.2,1.8,0.8,3,1.4c0.8,0.4,1.1,0.8,2,0.9c0.8,0.1,2.2,0.6,2-0.2
			c-0.1-0.2-0.2-0.3-0.3-0.5c-0.6-0.8-1.3-0.9-2.1-1.5c-1.7-1.2-2.3-2.3-4.2-3.2c-1.2-0.6-2-0.9-3.4-1.1c-1-0.2-1.7,0.1-2.7-0.2
			c-1.1-0.3-1.5-0.9-2.5-1.5c-1.8-1-2.7-1.9-4.6-2.6c-1.3-0.5-3.4-1-3.4-1l-0.9-0.1c0,0-0.2,0-0.4-0.1c-1.7-0.6,3-2,5.3-2.6
			c1.1-0.3,1.6-0.5,2.8-0.4c1,0.1,2.1,1.4,3.2,0.8c1.6-0.9-1.9-3.2-3-3.6c-1.5-0.6-4.1-0.1-4.1-0.1l-5.7-0.1l-1.6-0.2
			c0,0-1,0-1.7-0.8c-0.7-0.8-3.6-4.4-6.9-4.9c-3.3-0.5-4.3,0.1-4.6-0.3c-2.8-4.4-5.8-5.5-8.1-7.6c-0.6-0.6-1.6-2-1.9-1.8
			c-0.2,0.2-0.6,2-1.3,3.6c-0.8,1.8-0.3,2.8,0.2,3.4c0.4,0.7,1.1,1.2-0.1,2c-1.2,0.8-2.8,0.5-2.8,0.5s-1.4-0.3-2.5-0.8
			c-1.1-0.5-3.5-1.6-3.5-1.6s-2.2-0.7-3.7-0.5c-1.6,0.1-1.6,0.2-2.7,0.4c-0.6,0.1-0.9,0.1-1.5,0.2c-0.5,0.1-1.1-0.2-1.1,0.4
			c0,0.6,1.3,0.7,2.1,1c0.9,0.4,2.9,0.3,2.4,0.8c-0.5,0.5-2.3,0.6-2.4,0.5c-0.1-0.1-1.4-0.3-2.3-0.2c-1.7,0.1-1.7,0.2-4.1,1.3
			c-0.3,0.2-0.3,1,0.5,0.8c0.8-0.2,2.1-0.5,3.5-0.4c1.5,0.1,2.3,0.5,3.8,0.9c1.2,0.3,1.4,0.6,3.2,0.8c0.4,0,1.2-0.3,1.1,0.2
			c0,0.3-0.6,0.6-0.6,0.6s-1.2,0.2-1,0.6c0.2,0.5,1.3,0,1.8,0c0.5-0.1,1.3,0.2,1.1,0.7c-0.1,0.2-0.1,0.3-0.3,0.4
			c-1.3,0.3-2.1,0.6-3.4,1.1c-3.1,1.2-4.4,2.8-7.3,4.2c-2.8,1.4-7.5,3.1-7.5,3.1s-1.4,0.8-3.3,1.2c-1.9,0.4-2.1,0.4-3.5,0.6
			c-1.4,0.2-2,0.3-3.2,1c-0.8,0.4-1.2,0.7-1.8,1.3l-1.7,2.6l-0.9,1.5c-0.3,0.4-0.4,0.7-0.7,1.2c-0.3,0.6-0.4,0.9-0.5,1.5
			c-0.4,1.5-0.1,2.4,0.2,3.9c0.1,0.4,0.1,0.7,0.2,1c0.1,0.4,0.7,0.8,0.7,0.8l0.5,0.1c0,0,1.7-0.1,2.9-0.4c1.2-0.3,2.7-0.6,2.7-0.6
			s1.9-0.6,2.1-0.6c0.1,0,1.3-0.5,1.3-0.5s0.9,0,1,0.4c0.1,0.4-0.2,1-0.2,1s-0.7,0.4-1.3,0.6c-0.6,0.2-2.1,0.7-2.2,0.7
			c-0.1,0-1.7,0.4-1.7,0.4l-1.1,0.3c0,0-0.3,0.1-0.5,0.5c-0.2,0.4-0.2,0.4-0.1,0.6c0.2,0.3,0.3,0.5,0.6,0.7c0.4,0.4,0.8,0.6,1.3,0.8
			c0.8,0.3,1.3,0.3,2.2,0.3c1.3,0,2-0.2,3.2-0.7c1-0.6,1.4-0.7,2.7-1.1c0.3-0.1,1.1-0.3,1.4-0.3c2.4-0.2,3.7,0.2,6.1,0.6
			c2.3,0.4,3.5,1.1,5.8,1.5c2.5,0.4,4,1.1,6.5,0.6c1.3-0.3,2-0.8,2.7,0.4c0.7,1.2,0.5,1.8,0.5,1.8s0,0.8-0.9,3.1
			c-0.9,2.3-3.6,8.2-3.6,8.2l-1.9,3.8c0,0-1.5,2.9-4.9,6.8c-3.4,3.9-3.7,4.1-3.7,4.1s-1.8,1.3-3.7,3.7c-1.9,2.3-1.9,3.2-3.6,4.9
			c-1.1,1.1-1.7,1.8-3.1,2.5c-1.4,0.8-3,0.6-7.3,3.6c-3.7,2.6-5.7,4.7-5.9,4.6c-0.3-0.1-1.5-1.1-1.9-1.4c-0.4-0.3-7.6-5.1-7.6-5.1
			l-3-2l-1.3-0.8l-0.4-0.3l-0.7-1c0,0-1.1-1.3-2.5-2.5c-1.4-1.2-2.9-2.2-5.1-2.8c-2.1-0.6-3.5-0.9-5.6-0.3c-1.4,0.4-2.1,1-3.2,1.9
			c-1.3,1.2-1.5,2.3-2.5,3.7c-1,1.4-2,2.9-2.5,3.7c-0.5,0.8-1.5,2.8-1.5,2.8s-2.5,4-3.9,6.6c-1.6,2.8-2.2,4.5-3.8,7.4
			c-2.4,4.3-5.6,8.9-6.5,10.8c-0.9,1.9-0.9,2.2-0.9,2.2s-0.3,1.1-0.4,1.8c-0.1,0.7-0.1,2-0.2,2.5c-0.1,0.6-0.4,1.2-0.6,1.4
			c-0.1,0.1-1.5,2.9-2,4.8c-0.5,1.9-1.6,7.7-0.2,8.4c1.3,0.7,11.4-3.6,12.7-7.9c0.8-2.7-2.7-4.1-1.7-6.5c0.3-0.8,0.6-0.9,1.2-1.9
			c1-1.6,0.6-5,2.5-8.1c1.4-2.3,4.1-5.1,7.8-9.4c2.3-2.6,4.6-6.9,4.6-6.9s0.5-1.5,1.6-1.3c1,0.2,2.1,0.1,2.1,0.1s0.4,0.3,0.5,0.4
			c0.1,0.1,1,1,1,1l1.5,2.3c0,0,2.5,3.6,3.3,4.6c0.9,1,1.8,1.7,2.9,2.7c1.4,1.2,1.8,1.8,3.5,3.2c2.5,2,1.6,2.7-1.6,1
			c-1.1-0.6-2.8-1.2-4.2-1.6c-1.4-0.4-7.1-1.9-9.9-2.2c-2.8-0.3-3.2-0.3-3.2-0.3s-1.4-0.1-3,0.9c-1.6,1-2.5,1.7-2.5,1.7
			s-1.8,2.1-2,2.5c-0.2,0.4-1,1.9-1,1.9s-0.4,0.7-0.6,1.6c-0.2,0.9-0.2,1.8-0.2,1.8l0.1,1.8l0.2,1.8c0,0,0.3,4.3,1.3,8.7
			c0.3,1.3,0.5,3.3,0.5,3.3l0.6,4.4c0,0,0.4,4.8,0.7,6.3c0.3,1.5,0.6,1.6,0.8,2.7c0.4,1.9-0.4,2.8,0.5,4.9c1,2.2,1.7,1.9,2.5,3.3
			c0.6,0.9,0.8,1.2,1.4,2.5c0.5,1.3,2.1,5.3,4,8.3c1.9,3.1,4.6,7,6.4,6.6c1.7-0.4,3-3,3-3s2-5.3,0.7-10.6c-1.3-5.4-7-2.8-7.6-6.7
			c-0.1-0.8-0.1-2.2-0.1-2.2s-0.1-1.7-0.4-2.1c-0.2-0.5-2.3-4.3-3-7.2c-0.6-2.3-0.5-9.9-1-12c-1.3-5.5-1.5-4.9-0.7-5.9
			c0.8-1,1.6-0.8,1.6-0.8s0.9,0.1,1.1,0.1c0.2,0,0.9,0.3,0.9,0.3s1,0.6,1.6,1c0.5,0.4,2.2,1.8,2.2,1.8l4.2,2.7c0,0,2.3,1.4,3.4,1.8
			c1,0.4,1.9,1.1,1.9,1.1l1.1,0.7l1.9,1.3c0,0,0.3,0.2,0.4,0.4c0.1,0.2,0.3,0.4,0.3,0.4s0.9,2,4.6,4.1c3,1.8,5.6,1.2,6.8,2.6
			c0.2,0.2,2.3,3,3.4,4.8c1.2,2,2.7,4.4,3.2,5.1c0.5,0.7,3.6,4.6,3.6,4.6l4,4.5l5.3,4.9l4.8,4l3.1,2.4c0,0,2.7,2.7,5.9,4.8
			c2.9,2,3.1,2.3,5.1,3.6c1.5,1,3.5,2.3,5.4,3.9c2,1.6,4.2,4.6,3.3,5.6c-0.6,0.4-1.7-1.2-3.9-3.1c-1.8-1.5-2.6-2.2-4.4-3.5
			c-2.2-1.7-3.3-2.5-5.8-4.1c-1.2-0.7-3.5-2.1-3.6-1.9c-0.9,2.6-0.7,5.1-0.6,8.3c0.1,2.2,0.5,4.5,1.2,7.3c0.7,2.7,1.2,4.2,2.2,6.8
			c1,2.6,2.9,6.6,2.9,6.6l2.9,5.7l2.6,4.4l1.4,2.3l0.4,0.7c0,0,0.6,1.5,0,2.4c-0.6,1-1.4,3.1-2.5,3.3c-1,0.2-3.7,0.4-3.7,0.4
			l-14.8-0.2l-7.7-0.7c0,0-0.8-0.5-5.4-0.5c-2.6,0.1-4.7,1.1-6.2,1.2c-1.2,0.1-7.3-0.4-11.4,1.3c-3.8,1.6-5.6,2-7,4.4
			c-1,1.9,4.8,4.8,9.6,5.9c7.8,1.8,5.6-1.7,8.5-3.7c0.4-0.2,0.5-0.5,0.9-0.7c2-0.6,3.1,1,5.1,1c2.2,0,3.4-0.8,5.7-1.1
			c11.2-1.5,28.9,3.8,28.9,3.8s4.3,1.4,6.4,1c2.4-0.5,1.9-1.3,2.6-2.7c0.6-1.1,0.4-1.4,0.5-2.6c0.1-0.7-0.1-1.1-0.3-1.8
			c-0.5-2.1-1.8-5-1.8-5s-1-2.2-1.3-3.4c-0.5-1.7-0.9-2.6-1.2-4.3c-0.7-4.6-0.6-4.2-0.6-6.8c0-4.7,0.5-7.4,1.8-11.9
			c1.9-6.7,5.3-9.5,7.9-15.9c0.7-1.7,0.8-4.3,1.7-4.4c1-0.2,0.9,3.1,0.4,5c-1.6,6.5-5.6,9.2-7.4,15.8c-1.4,5-2.1,8.1-1.8,13.3
			c0.2,2.9,1.3,7.4,1.3,7.4s1.5,4.9,2.3,6.8c0.8,1.8,2.2,5,2.2,5l3.4,6l1.7,2.8c0,0,1.3,1.2,0.6,3c-0.6,1.8-1.9,2.9-3.4,4.6
			c-4.3,4.9-14,12.2-16.4,14c-3.5,2.6-3.4,3.3-3.7,4.1c-1.4,3.9-5.3,4.1-9.7,8.8c-1,1.1-3.6,3.7-3,6c0.2,0.8,10.9,2.8,17.2,0.1
			c4.8-2.1,0.6-4.4,1.9-6.8c0.9-1.7,3.5-1.7,4.6-3.2c1.8-2.4,0.6-2.3,2.3-4.4c5.4-6.4,8.8-10.2,18.3-15.9c0.9-0.6,2.4-1.2,2.4-1.2
			s1.3-0.6,1.8-1.4c0.7-1,0.5-1.8,0.5-3c0-0.8-0.1-1.2-0.1-1.9c-0.1-0.9,0.1-1.4-0.1-2.2c-0.3-1.4-1.2-2.5-1.6-3.2
			c-0.5-0.7-1.3-1.8-1.9-4.1c-0.6-2.4-0.6-4.4,0.4-7c1-2.6,3.2-4.8,3.2-4.8l5.6-3.7c0,0,4.8-3.5,6.3-4.9c1.6-1.3,4.7-4.2,7-7.5
			c2.5-3.6,4-5.9,5-10.1c0.4-1.6,0.7-4.1,0.7-4.1s-0.1-1.7,0.9-1.8c1-0.1,1.2,0.3,1.2,0.3s0.9,0.5,1.1,3c0.2,2.5-0.6,5.3-0.6,5.3
			s-0.8,2.8-1,4.6c-0.1,1.1-0.2,1.8-0.2,2.9c0,2.1,0.9,3.8,0.9,3.8s0.5,0.4,0.5-0.5c0-0.9,0.2-2.5,0.7-4c0.4-1.3,0.6-1,1.3-3.1
			c0.9-2.7,0.1-2.4,0.7-4.1c0.3-0.8,0.8-1.4,1.6-1.5c0.7-0.1,0.8,1,0.8,1s0.8,3.3,0.1,6.2c-0.7,3-2.8,7.1-2.8,7.1l-1.8,3
			c0,0-1.2,2.1-1.7,3.5c-0.5,1.5-0.7,2.1-0.4,3.4c0.3,1.4,1.5,3.5,2,3.1c0.5-0.4-0.7-1.7,0.8-4.7c1.5-3,3.5-4.8,3.5-4.8
			s2.8-3.3,4-5.7c1.1-2.2,2.2-5.9,2.2-5.9s0.8-3.3,0.6-5.9c-0.2-2.7-0.6-4-0.6-4s-1-1.8-1.1-2c-0.1-0.2-0.7-1.2-0.6-1.5
			c0-0.3,0-0.8,0.3-0.9c0.3-0.1,1.1,0.5,1.9,1.5c0.8,1,1.4,2.3,1.9,3.9c0.4,1.3,0.5,2.4,0.5,3.4c0,1-0.3,5.1,1.2,7.7
			c0.7,1.2,2.1,4.1,2.2,2.8c0.2-2.9-1-4.2-0.8-6.8c0.2-2.9,0.8-2.2,1.1-3.7c0.3-1.6,0.6-2,0.3-4.1c-0.3-2-1.1-4.6-1.1-4.6
			s-0.7-1.8-0.8-2c-0.1-0.2-0.3-0.7-0.3-0.7s0.2-0.3,0.6-0.4c0.4-0.1,3-1,3-1s3.8-1.8,5.4-3c1.6-1.2,3.5-3.1,3.5-3.1
			s2.5-3.1,3.7-5.3c2.9-5.6,3-12.7,2.9-15.8c-0.2-3.1-1-7.2-1-7.2s-0.9-4.9-0.7-8.2c0.2-3.3,0.5-4.8,0.5-4.8s-0.1-3.3,2.6-6.7
			c2.7-3.5,3.9-5.8,4.4-8.3C350.9,222.3,350.1,218.7,349.2,220.1z M267,197.7c-0.4-0.1-0.9-0.4-0.9-0.4s-0.1-0.2,0.2-0.4
			c0.3-0.2,0.8-0.1,0.8-0.1s0.2,0,0.3,0.2c0.1,0.1,0.6,0.6,0.6,0.9C268.2,198.2,267.4,197.8,267,197.7z M268.6,193.7
			c-0.4-0.1-1-0.5-1-0.5s-0.1-0.2,0.3-0.4c0.4-0.2,1-0.1,1-0.1s0.2,0,0.4,0.2c0.2,0.2,0.7,0.7,0.7,1
			C269.9,194.2,269,193.8,268.6,193.7z M269.9,189.4c-0.5-0.1-1.3-0.7-1.3-0.7s-0.1-0.2,0.4-0.5c0.5-0.3,1.2-0.1,1.2-0.1
			s0.2,0.1,0.4,0.2c0.2,0.2,0.9,0.9,0.9,1.3C271.6,190,270.4,189.5,269.9,189.4z M271,185.5c-0.5-0.1-1.3-0.6-1.3-0.6
			s-0.1-0.3,0.3-0.5c0.5-0.3,1.2-0.1,1.2-0.1s0.2,0.1,0.5,0.2c0.2,0.2,0.9,0.9,0.9,1.3C272.7,186.1,271.5,185.6,271,185.5z
			 M272.1,181c-0.6-0.1-1.4-0.7-1.4-0.7s-0.2-0.3,0.4-0.6c0.5-0.3,1.3-0.2,1.3-0.2s0.3,0.1,0.5,0.3c0.2,0.2,1,1,1,1.4
			C274,181.6,272.7,181.1,272.1,181z M272.9,176.1c-0.7-0.1-1.7-0.9-1.7-0.9s-0.2-0.3,0.4-0.7c0.6-0.4,1.6-0.2,1.6-0.2
			s0.3,0.1,0.6,0.3c0.3,0.3,1.1,1.2,1.2,1.7C275.2,176.8,273.6,176.2,272.9,176.1z M273.4,171c-0.9-0.1-2-1.1-2-1.1
			s-0.2-0.4,0.5-0.9c0.8-0.5,1.9-0.2,1.9-0.2s0.4,0.1,0.7,0.4c0.4,0.3,1.4,1.5,1.5,2.1C276.1,172,274.3,171.2,273.4,171z
			 M274.1,165.4c-1-0.2-2.4-1.2-2.4-1.2s-0.3-0.5,0.6-1c0.9-0.6,2.3-0.3,2.3-0.3s0.4,0.1,0.9,0.5c0.4,0.4,1.6,1.7,1.7,2.4
			C277.3,166.5,275.1,165.5,274.1,165.4z M273.6,142.3c-0.8-0.1-1.8-0.8-1.8-0.8s-0.2-0.3,0.5-0.7c0.7-0.4,1.7-0.2,1.7-0.2
			s0.4,0.1,0.7,0.3c0.3,0.2,1.2,1.1,1.3,1.6C276,143,274.4,142.4,273.6,142.3z M276.4,148c0.1,0.6-1.6-0.1-2.4-0.3
			c-0.8-0.1-1.9-1-1.9-1s-0.2-0.4,0.5-0.8c0.7-0.4,1.8-0.2,1.8-0.2s0.4,0.1,0.7,0.4C275.3,146.4,276.3,147.4,276.4,148z
			 M272.8,157.1c0.8-0.5,1.9-0.2,1.9-0.2s0.4,0.1,0.7,0.4c0.3,0.3,1.4,1.5,1.5,2.1c0.1,0.6-1.8-0.2-2.6-0.3
			c-0.9-0.1-2.1-1.1-2.1-1.1S272,157.6,272.8,157.1z M274.4,152.9c-0.9-0.1-2-1.1-2-1.1s-0.2-0.4,0.5-0.9c0.8-0.5,1.9-0.2,1.9-0.2
			s0.4,0.1,0.7,0.4c0.4,0.3,1.4,1.5,1.5,2.1C277.1,153.8,275.2,153,274.4,152.9z M275.9,134.3c1,0.3,1.2,0.8,0.8,0.9
			c-0.5,0.1-0.8,0.1-1.1,0.1c-1.1-0.1-1-0.4-2.5,0.3c-1.5,0.7-0.4,0.4-2.5,1.2c-2,0.7-1.5-1.3-1.5-1.3s0.2-0.3,0.4-1.3
			c0.3-1,1.5-0.1,2.4,0C273.5,134.1,274.8,134,275.9,134.3z M270.4,126.6c0,0,0.3,0.1,0.6,0.3c0.3,0.3,1.1,1.2,1.2,1.7
			c0.1,0.5-1.4-0.1-2.1-0.3c-0.7-0.1-1.7-0.9-1.7-0.9s-0.2-0.3,0.4-0.7C269.5,126.4,270.4,126.6,270.4,126.6z M265.9,120.6
			c0.6-0.4,1.6-0.2,1.6-0.2s0.3,0.1,0.6,0.3c0.3,0.3,1.1,1.2,1.2,1.7c0.1,0.5-1.5-0.1-2.1-0.3c-0.7-0.1-1.7-0.9-1.7-0.9
			S265.3,121,265.9,120.6z M264.7,200.9c0.3-0.2,0.8-0.1,0.8-0.1s0.2,0,0.3,0.2c0.1,0.1,0.6,0.6,0.6,0.9c0,0.3-0.8-0.1-1.1-0.1
			c-0.4-0.1-0.9-0.5-0.9-0.5S264.3,201.1,264.7,200.9z M215,141.9c-0.4,0.3-0.7,0.4-1.1,0.7c-0.7,0.5-1.2,1.7-1.7,1.3
			c-0.5-0.4-0.2-1.7-0.2-1.7s0.3-1,0.9-2c0.6-1,1.4-1,1.4-1c0.8-0.1,2.1,0.5,2.1,1.7C216.5,142.1,215.6,141.6,215,141.9z
			 M225.1,145.8c0,0-0.5,0.1-0.7-0.8c-0.2-0.9,0.6-1,0.6-1s1.4-0.7,1.5,0.2C226.7,145.2,225.1,145.8,225.1,145.8z M238.4,128.9
			c0,0-1.6,2.6-3.8,3.6c-2.2,1-3.8,1.5-7.9,1.8c-0.6,0.1-0.4-0.4-0.4-0.4s4.8-1.3,7.6-2.8c1.5-0.8,3.2-2,3.7-2.4
			C239.3,127.2,238.4,128.9,238.4,128.9z M155,236.3c0,0.6-0.8,1.7-1,1.7c-0.2,0-0.7-1.2-0.6-1.7c0.1-0.6,0.3-2.4,1.2-2.1
			C155.4,234.4,155,235.7,155,236.3z M158.3,222.3c0,0-1.1,2.3-1.5,1.4c-0.4-0.9,0.4-2.5,0.4-2.5c1-0.9,1.3-2.1,1.8-1.6
			C159.4,220,158.3,222.3,158.3,222.3z M173.7,198.1c-1.1,1.2-4.6,7.7-5.4,6.7c-0.7-0.9,3.3-7,4.2-8.4c0.9-1.4,1.6-1.1,1.6-1.1
			c0.2,0,0.2,0.3,0.2,0.3S174.7,196.8,173.7,198.1z M183,188.3c0,0-2.5,0.5-2.1-0.3c0.4-0.9,2.2-1.2,2.2-1.2c1.3,0.3,1.6,0.4,1.5,1
			C184.7,188.4,183,188.3,183,188.3z M193,205.7c-1.1,1.1-1.5-0.4-3.2-2.2c-1.7-1.8-1.2-3.2-1.2-3.2c0.1-0.1,0.2,0,0.2,0l0.3,0.1
			l0.6,0.3l0.4,0.4c0,0,0.5,0.5,1.2,1.2C191.9,203,193.2,205.4,193,205.7z M173.8,242.8c-0.4,0-0.8-0.7-0.8-0.7s-0.9-1.5-1.3-2.6
			c-0.3-1-0.5-2.6-0.5-2.6s-0.3-2.1-0.2-2.8c0.1-1,0.1-1.8,0.3-2.3c0.1-0.5,0.6-0.4,0.6-0.4c0.7,0,0.7,0.6,0.7,0.6l0,0.3
			c0,0,0,2.2,0.2,4c0,0.6,1.4,6,1.4,6S174.3,242.7,173.8,242.8z M173.6,216.7c-0.9,1.4-1.4,1.4-1.5,1.3c-0.1-0.1-0.2-0.7,0.5-2.1
			c0.7-1.5,1.5-1.3,1.5-1.3c0.2,0,0.2,0.3,0.2,0.3S174.5,215.3,173.6,216.7z M182.4,268.6c0.3-0.5,1.9,0.8,1.9,0.8
			c0.7,0.2,1.2,1.2,1.2,1.2s0.3,0.8-0.5,1.2c-0.8,0.3-1.2-0.4-1.2-0.4S182.1,269.1,182.4,268.6z M194,230.7c-1.8-0.3-5.4-3.2-6.9-4
			c-1.5-0.8-3.9-1-2.9-1.9c0.2-0.2,0.2-0.3,0.5-0.3c0.3,0,1.3,0.4,1.4,0.4c0.1,0,2.6,1.1,2.7,1.1c0.1,0,1.5,0.7,2.6,1.3
			c1,0.6,2.7,1.8,2.7,1.8l0.7,0.6C194.8,229.7,195.8,231,194,230.7z M209.1,206.1c0,0-2.1,2.8-3.3,4.5c-1.6,2.3-3.5,6-3.9,5.6
			c-0.4-0.3,1.7-4.3,2.8-6.5c1.3-2.6,3.1-3.9,3.8-4.2C210.1,204.8,209.1,206.1,209.1,206.1z M202.5,330.1c0,0,0,0.5-0.9,1.1
			c-0.9,0.6-1.2,0.3-1.4,0.2c-0.1,0-1-0.5-0.9-1c0.1-0.5,1.5-0.8,1.5-0.8C203,329.5,202.5,330.1,202.5,330.1z M221.7,329.4
			c-0.9-0.1-1-0.3-0.9-0.5c0-0.2,0.2-0.3,1.2-0.4c1-0.1,1,0.4,1,0.4C223,329.4,222.6,329.5,221.7,329.4z M243.7,330.6
			c-1.8,0.5-2.6,0.2-4.2,0.3c-1.3,0.1-2,0.2-3.4,0.2c-2.4,0-2.5,0.1-6-0.9c-0.6-0.2-1.3-0.9-1.2-1.3c0.2-0.3,0.7-0.2,0.7-0.2
			s4.2,0.7,7,0.9c1.9,0.1,3,0.2,5,0.1c1.1-0.1,0.5-0.1,2.3-0.1C244.7,329.6,244.2,330.5,243.7,330.6z M255.5,327.1
			c-0.2,0.1-0.8,0.4-1.5,0.5c-0.7,0.1-0.4-0.5-0.4-0.5s0.4-0.8,1.2-1.1c0.7-0.4,1.1,0.1,1.1,0.1C256.2,326.5,255.7,327,255.5,327.1z
			 M264.7,303.4c-0.9,1.8-1.1,2.4-1.3,4.2c-0.2,1.9,0.8,7.1-0.9,5.1c-0.7-0.8-1.2-5-0.8-7C262.7,301.3,266.3,300,264.7,303.4z
			 M239.6,379.1c-0.8,0.6,0.7,2-1.6,1.9c-1.3-0.1-0.7-1.3-0.6-1.5c0.1-0.2,0.8-1.1,0.9-1.2c0.6-0.8,1-1,1.6-1.4
			c0.7-0.4,1.2,0.5,1.2,0.5s0.3,0.4,0.3,0.9C241.4,378.7,240.2,378.6,239.6,379.1z M252.7,366.6c0,0-1,0.8-1.1,0.8
			c-0.1,0-0.9,0.6-1.1,0.2c-0.2-0.4,0.1-0.8,0.2-0.9c0.1-0.1,0.7-0.9,1.3-1.2c0.6-0.3,1,0,1,0C253.3,366.3,252.7,366.6,252.7,366.6z
			 M258.5,149.4c0,0-0.5,1.7-1.5,1.9c-1.2,0.4-6,0.5-6.1,0.1c-0.1-0.4,5.4-0.8,7.6-3C259,148,258.5,149.4,258.5,149.4z M256.8,145.3
			c0.4-0.6,0.1,1,0.1,1s-0.3,1.6-1.2,2.1c-1.1,0.6-3.9,1.4-4.1,1C251.5,149.1,255.2,148,256.8,145.3z M249.1,126.7
			c0,0,0.5,0,1.2,0.4c0.7,0.4,1.2,2,1.2,2s0.1,0.2-0.5,0.2c-0.4,0-0.4-0.6-0.7-0.9c-0.5-0.4-0.9-0.5-1.4-0.8
			c-0.6-0.3-1.5,0.1-1.6-0.5C247.2,126.4,249.1,126.7,249.1,126.7z M243.4,130.8c0,0,0.3-0.8,1.3-1.4c1-0.6,2.4-0.6,2.4-0.6
			s0.7,0,1.7,0.6c0.9,0.6,1.6,2.8,1.6,2.8s0.2,1.3-0.4,1.8c-0.6,0.5-1.5-0.4-2.1-1c-0.6-0.7-1-1-1.8-1.3c-1-0.3-2.4,0.7-2.7,0
			C243.2,131.4,243.4,130.8,243.4,130.8z M243,147.9c-0.8,0.1-0.2-0.6-0.2-0.6s2.2-0.9,3.5-1.6c2.2-1.2,6.4-5.6,5.3-3.4
			c-0.5,1-2,2.3-2,2.3s-1.7,2.5-2.1,2.8C245.8,148.5,243.8,147.8,243,147.9z M225.5,196l0.2-0.2c0,0,3.8-2.5,9.5-1.7
			c3.5,0.5,6.8,3.5,6.4,4c-0.5,0.4-1.3,0-1.4,0c-0.1-0.1-1-0.5-1.3-0.6c-0.3-0.1-1.9-0.5-1.9-0.5s-3.4-0.7-5.8-0.6
			c-2.4,0.1-4.7,1-4.7,1s-1,0.5-1.3-0.2C225,196.4,225.5,196,225.5,196z M234.7,265.8c-8.5-6.6-19-20-17.7-21.2
			c1.1-1,5.4,5.2,11.6,12c6.7,7.2,14.5,14,14.8,14.9C243.9,273,237.9,268.3,234.7,265.8z M254.1,173.2c-3.6,6.2-8.6,10.9-8.6,10.9
			c-1.7,1.3-0.7-0.9-0.7-0.9s4.8-6.7,7.1-11.4c1.6-3.3,2.6-7.8,3.4-8.7C257.1,160.9,256.2,169.5,254.1,173.2z M264.1,241.1
			c-3.7-4.5-6.5-9.2-7.3-15.4c-0.2-1.4-0.2-3.3,1.1-3.1c1.1,0.2,1,2.2,1,2.7c0.3,3.6,1.8,7.2,4.6,11.5c3.9,6.1,10,10.8,9.8,11.1
			C272.5,248.7,266.3,243.8,264.1,241.1z M270.6,351.3c0,0-3.2,3.6-5.4,5.7c-2.1,2-5.7,4.7-5.7,4.7s-0.3,0.2-0.5,0
			c-0.2-0.1,0-0.3,0-0.3s0.1-0.1,0.1-0.2c0-0.1,0.1-0.1,0.1-0.2c0-0.1,0.3-0.3,0.3-0.3s0.2-0.2,0.2-0.3c0.1-0.1,0.2-0.4,0.2-0.4
			l0.7-0.8l1.7-1.6l1.7-1.6l2.7-2.7c0,0,1.1-1.1,1.4-1.4c0.3-0.3,0.6-0.5,1-0.8c0.5-0.2,1.1-0.6,1.4-0.4
			C270.9,351,270.6,351.3,270.6,351.3z M272.8,265.3c-1.7,1.2-2.3,1-3.3,2.2c-1.2,1.3-1.5,5.9-2.5,4c-1.1-1.9-0.4-4.4,1.4-6.4
			C270.8,262.5,275.7,263.3,272.8,265.3z M278.7,346.8c0.7-0.3,1.1-0.1,1.1-0.1s0.2,0.3,0.2,0.5s-0.9,1.6-1.5,1.5
			c-0.6-0.1-0.4-0.9-0.4-0.9S278,347.1,278.7,346.8z M300,296.4c-1.1-0.7,0.6-3,0.7-4.9c0-1.5-0.3-2.6-0.3-3.9
			c0-1.3,1.3-1.6,1.3-1.6c0.2,0,0.8,0.3,1.4,1.6C303.6,288.9,301.9,297.7,300,296.4z M337.8,261c-0.2,5.2-0.5,8.9-3.6,12.9
			c-3.7,4.8-10.2,9.8-8.8,5.9c0.8-2.4,6.6-5.3,8.8-11.9c1.3-3.9,1.5-7.7,1.5-7.7l-0.2-7.5c0,0-0.1-0.7-0.2-1.5
			c0.3-0.9,0.9-0.2,0.9-0.2l0.2,0.4C336.5,251.4,338,257.2,337.8,261z"/>
	</g>
	<path class="st1" d="M275,429v-3.1c0-7.1,3.6-8.5,14.2-8.6c9.7,0.1,13.1,1.3,13.1,7.4v23.8h3.6v5.4h-23.7c-5,0-8.3-3.4-8.3-7.7
		v-4.8c0-4.2,2.1-7.8,9.6-7.8h9.3v-7.2c0-3.8-0.3-4.2-4.1-4.2h0c-4.5,0-4.8,0.6-4.8,4.2v2.7L275,429 M286,437.5c-1.9,0-3,1.5-3,3.4
		v4.6c0,1.9,0.8,3.3,3,3.4h3.3c1.8,0,3.3-0.6,3.3-3.4l0-8h-3.2C289.4,437.5,286,437.5,286,437.5z"/>
	<path class="st1" d="M252.4,426.2v-8.3h-13.2v4.9h3.5v25.6h-3.5v5.4h16.6v-5.4h-3.3v-13.7c0-1.3,7.8-11.1,7.8-10v13.6h9.2V423
		c0-3.5-2.3-5.8-6.5-5.8C257.9,417.3,254.6,423.5,252.4,426.2"/>
	<polyline class="st1" points="357.9,448.4 357.9,417.9 344.4,417.9 344.4,422.9 348.1,422.9 348.1,448.4 344.4,448.4 344.4,453.8 
		361.4,453.8 361.4,448.4 357.9,448.4 	"/>
	<path class="st1" d="M218.4,426.2v-8.3h-13.2v4.9h3.5v25.6h-3.5v5.4h16.6v-5.4h-3.3v-13.7c0-1.3,7.8-11.1,7.8-10v13.6h9.2V423
		c0-3.5-2.3-5.8-6.5-5.8C223.9,417.3,220.5,423.5,218.4,426.2"/>
	<path class="st1" d="M200.1,442.1h-9.3v2.7c0,3.7-0.6,3.8-5.1,3.9h-0.1c-5.2,0-4.9-0.5-4.8-3.9v-6.4h19.3v-13.9
		c0-5-3.8-7.1-13.8-7.2h-1.4c-10.8,0.1-13.7,2.5-13.7,8.7v20.3c0,6.8,4,8,13.9,8.3h1.1c10.7-0.2,14-1,14-7.4L200.1,442.1 M180.9,425
		c0-1.9,0.6-2.8,2.7-2.8h4.1c1.7,0,2.6,0.8,2.6,2.1v10.4h-9.4L180.9,425L180.9,425z"/>
	<rect x="352.7" y="404" class="st2" width="0.6" height="6.5"/>
	<path class="st1" d="M322.7,426.2v-8.3h-13.2v4.9h3.5v25.6h-3.5v5.4H326v-5.4h-3.3v-13.7c0-1.3,7.8-11.1,7.8-10v13.6h9.2V423
		c0-3.5-2.3-5.8-6.5-5.8C328.2,417.3,324.8,423.5,322.7,426.2"/>
	<polyline class="st1" points="159.6,436.4 159.6,431.6 154.4,431.6 154.4,448.5 163.4,448.5 163.4,453.8 137.2,453.8 137.2,448.5 
		144.1,448.5 144.1,410.5 138.7,410.5 138.7,404 342.8,404 342.8,410.5 154.4,410.5 154.4,425.8 159.6,425.8 159.6,421.3 
		165.5,421.3 165.5,436.4 159.6,436.4 	"/>
	<rect x="348" y="403.8" class="st1" width="9.7" height="6.4"/>
</g>
</svg>
