<?xml version="1.0" encoding="utf-8"?>
<!-- Generator: Adobe Illustrator 22.0.1, SVG Export Plug-In . SVG Version: 6.00 Build 0)  -->
<svg version="1.1" id="Layer_1" xmlns="http://www.w3.org/2000/svg" xmlns:xlink="http://www.w3.org/1999/xlink" x="0px" y="0px"
	 viewBox="0 0 500 500" style="enable-background:new 0 0 500 500;" xml:space="preserve">
<style type="text/css">
	.st0{fill:#606060;}
</style>
<g>
	<g>
		<g>
			<path class="st0" d="M149.4,240.8c0,11.7-10.4,21.2-23.6,22.2l22.5,20.6l-53.4,0L71.3,262l-1.5,0v21.5l-47.7,0L22,218.6
				l101.6-0.1C141.7,218.5,149.4,228.5,149.4,240.8z M90.4,248.8c3.7,0,6.8-3.7,6.8-8.2s-2.5-8.2-6.3-8.2l-21.1,0v16.5h20.5"/>
			<polygon class="st0" points="351.1,264.5 421.4,264.5 421.4,249.3 351.1,249.3 351.1,233.6 421.4,233.6 421.4,218.4 302.6,218.4 
				302.6,283.5 351.1,283.5 			"/>
			<path class="st0" d="M260.2,218.5l37.3,65l-48.8,0l-5-10l-33.2,0l-4.9,10l-51,0l37.2-65L260.2,218.5z M237.3,260.7L227,240
				l-10.1,20.7L237.3,260.7z"/>
			<rect x="428.7" y="218.4" class="st0" width="49.9" height="65.1"/>
		</g>
	</g>
</g>
</svg>
