<svg id="Layer_1" data-name="Layer 1" xmlns="http://www.w3.org/2000/svg" xmlns:xlink="http://www.w3.org/1999/xlink" viewBox="0 0 29.64 33.5"><defs><style>.cls-1{fill:none;}.cls-2{clip-path:url(#clip-path);}.cls-3{fill:#1a1a1a;}</style><clipPath id="clip-path" transform="translate(-625.22 -494.5)"><rect class="cls-1" x="625.22" y="494.5" width="29.64" height="33.5"/></clipPath></defs><title>5</title><g class="cls-2"><path class="cls-3" d="M631.78,507.35a2.4,2.4,0,1,0,2.4,2.4,2.41,2.41,0,0,0-2.4-2.4M634.62,522h-6v-9h6Zm-3.6,6h-2.4v-6H631Zm-3.92-7.1-1.89-.93,3.45-7,1.89.93Zm11.43-5.82h-6V513h6ZM634.62,528h-2.4v-6h2.4Zm11.28-33.5a3.45,3.45,0,1,0,3.45,3.45,3.46,3.46,0,0,0-3.45-3.45m4,23.29h-9v-15h9ZM644.54,528h-3.6V517.79h3.6Zm-5.84-13-2.48-1.07,4.76-11,2.48,1.07Zm13.69,0-4.76-11,2.48-1.07,4.76,11Zm-2.44,13h-3.6V517.79h3.6Z" transform="translate(-625.22 -494.5)"/></g></svg>