<svg id="Layer_1" data-name="Layer 1" xmlns="http://www.w3.org/2000/svg" viewBox="0 0 75 60"><defs><style>.cls-1{fill:#fff;}</style></defs><title>icon-puzzle</title><polygon points="65.42 24.75 62.2 22.32 53.8 33.41 48.48 27.27 45.42 29.92 54.01 39.84 65.42 24.75"/><path d="M47.93,29.85V43.18a4.69,4.69,0,0,1,5-.53v-7.8h30v30H76.67a4.58,4.58,0,0,1-.11,5H87.93v-40h-40Z" transform="translate(-12.93 -19.85)"/><path d="M60.36,67.25a4.61,4.61,0,0,1,.69-2.4H52.93V56.93a4.69,4.69,0,0,1-5-.53V69.85H61.16A4.63,4.63,0,0,1,60.36,67.25Z" transform="translate(-12.93 -19.85)"/><path class="cls-1" d="M68.36,77.35a7.51,7.51,0,0,0,7.5-7.5h0A7.51,7.51,0,0,1,68.36,77.35Z" transform="translate(-12.93 -19.85)"/><path d="M78.36,64.85h-5v5a5,5,0,0,1-10,0v-5h-5v5a10,10,0,0,0,20,0v-5h0Z" transform="translate(-12.93 -19.85)"/><path class="cls-1" d="M40.43,49.85a7.51,7.51,0,0,1,7.5-7.5h0A7.51,7.51,0,0,0,40.43,49.85Z" transform="translate(-12.93 -19.85)"/><path d="M52.93,39.85h-5a10,10,0,0,0,0,20h5v-5h-5a5,5,0,1,1,0-10h5v-5h0Z" transform="translate(-12.93 -19.85)"/><path d="M47.93,34.85v7.31h5V29.85H40.77a4.46,4.46,0,0,1,0,5h7.19Z" transform="translate(-12.93 -19.85)"/><path d="M47.93,57.17v7.69h-30v-30h9.29a4.46,4.46,0,0,1,0-5H12.93v40h40V57.17h-5Z" transform="translate(-12.93 -19.85)"/><path class="cls-1" d="M40.78,32.35V29.92a7.33,7.33,0,0,0-14.67,0v2.44H25.86v-2.5a7.5,7.5,0,1,1,15,0v2.5H40.78Z" transform="translate(-12.93 -19.85)"/><path d="M33.36,19.85a10,10,0,0,0-10,10v5h5.25V29.92a4.83,4.83,0,0,1,9.67,0v4.94h5.08v-5a10,10,0,0,0-10-10h0Z" transform="translate(-12.93 -19.85)"/></svg>