<svg id="Layer_1" data-name="Layer 1" xmlns="http://www.w3.org/2000/svg" viewBox="0 0 90.81 108.69"><title>icon-password</title><path d="M82.48,91a33.47,33.47,0,0,0,7.55,3l1.82,6.81L85,102.57l1.83,6.83L80,111.23l1.83,6.83L75,119.89l1.83,6.83L70,128.55l1.83,6.83L65,137.21h0l-19.12,5.12L42.6,130,71,80.84A33.25,33.25,0,0,0,76.68,87L51.18,131.18l0.37,1.37,8.2-2.2Zm1.17-15.21A20.22,20.22,0,0,1,79,55.53h9L75.71,42.95,63.43,55.53h7.28A28,28,0,0,0,98.16,89.86,27.92,27.92,0,0,0,113,85.62l-4.25-6.78a20.21,20.21,0,0,1-25.11-3.07m42-8.23A28.1,28.1,0,0,0,82.73,38.22l4.38,6.7a20.11,20.11,0,0,1,30.25,22.62h-8.51l12.28,12.58L133.4,67.53h-7.81Z" transform="translate(-42.6 -33.66)"/></svg>