<svg id="Layer_1" data-name="Layer 1" xmlns="http://www.w3.org/2000/svg" viewBox="0 0 144.52 106.52"><defs><style>.cls-1,.cls-2{fill:#fff;}.cls-1{stroke:#000;stroke-miterlimit:10;stroke-width:15px;}</style></defs><title>icon-scan2</title><path d="M82.84,98.56a38.07,38.07,0,0,1,1.08-9H30.34v-43h91v14a38,38,0,0,1,9.5,1.33V36.56h-110v72H84.18A38,38,0,0,1,82.84,98.56Zm-4,1.12h-6v-4h6v4Z" transform="translate(-20.84 -36.56)"/><path d="M87.37,116.56H50.84v8h42.3A38.1,38.1,0,0,1,87.37,116.56Z" transform="translate(-20.84 -36.56)"/><path d="M84.18,108.56H60.84v8H87.37A37.76,37.76,0,0,1,84.18,108.56Z" transform="translate(-20.84 -36.56)"/><line class="cls-1" x1="96.79" y1="58.79" x2="139.21" y2="101.21"/><path class="cls-2" d="M120.84,124.56a26,26,0,1,1,26-26A26,26,0,0,1,120.84,124.56Z" transform="translate(-20.84 -36.56)"/><path d="M120.84,76.56a22,22,0,1,1-22,22,22,22,0,0,1,22-22m0-8a30,30,0,1,0,30,30,30,30,0,0,0-30-30h0Z" transform="translate(-20.84 -36.56)"/></svg>