<?xml version="1.0" encoding="utf-8"?>
<!-- Generator: Adobe Illustrator 21.0.2, SVG Export Plug-In . SVG Version: 6.00 Build 0)  -->
<svg version="1.1" id="Layer_1" xmlns="http://www.w3.org/2000/svg" xmlns:xlink="http://www.w3.org/1999/xlink" x="0px" y="0px"
	 viewBox="0 0 24 21" style="enable-background:new 0 0 24 21;" xml:space="preserve">
<style type="text/css">
	.st0{fill:none;stroke:#000000;stroke-miterlimit:10;}
	.st1{fill:none;stroke:#000000;stroke-width:1.5;stroke-miterlimit:10;}
	.st2{clip-path:url(#SVGID_2_);}
	.st3{clip-path:url(#SVGID_4_);}
	.st4{fill:none;stroke:#000000;stroke-width:1.5;stroke-linejoin:round;stroke-miterlimit:10;}
	.st5{fill:#F7F8F8;}
	.st6{fill:#FFFFFF;}
	.st7{clip-path:url(#SVGID_6_);}
</style>
<g>
	<path class="st4" d="M16.8,3.3c0,0,0.5-0.7,1.6-0.7c1,0,2.1,0.7,2.1,2.1c0,2.3-3.6,3-3.6,5.7c0,0.7,0.7,1.4,0.7,1.4"/>
	<path class="st4" d="M6.3,11.8c0,0,0.7-0.7,0.7-1.4C7,7.7,3.5,7,3.5,4.7c0-1.4,1.2-2.1,2.1-2.1c1.1,0,1.6,0.7,1.6,0.7"/>
	<path class="st1" d="M7,3.3c0,4.6,2.6,12.1,5,12.1c2.3,0,5-7.4,5-12.1H7z"/>
	<path class="st1" d="M13.4,16.1h-2.8c-1.2,0-2.1,1-2.1,2.1h7.1C15.6,17,14.6,16.1,13.4,16.1L13.4,16.1z"/>
</g>
</svg>
