<svg id="Layer_1" data-name="Layer 1" xmlns="http://www.w3.org/2000/svg" viewBox="0 0 26.4 16.8"><title>icon-cloud</title><path d="M26,14A8.13,8.13,0,0,0,17.77,7.2a8.57,8.57,0,0,0-6.71,3.18,4.42,4.42,0,0,0-1.91-.43A4.05,4.05,0,0,0,5,14.42a5.2,5.2,0,0,0-2.3,4.26,5.44,5.44,0,0,0,4.77,5.24L8.31,24H23.4l0.84-.06a5.46,5.46,0,0,0,4.86-5.25A5.25,5.25,0,0,0,26,14ZM24,21.55l-0.66,0H8.4l-0.66-.05A3,3,0,0,1,5.1,18.68a2.9,2.9,0,0,1,1.8-2.6L8,15.58l-0.53-1.1a1.34,1.34,0,0,1-.14-0.59,1.69,1.69,0,0,1,1.8-1.54,1.93,1.93,0,0,1,1.37.55L11.67,14l0.77-1.43a6,6,0,0,1,5.34-3C21,9.6,23.65,12,23.7,14.83l0,0.86,0.82,0.26a3,3,0,0,1,2.17,2.74A3,3,0,0,1,24,21.55Z" transform="translate(-2.7 -7.2)"/></svg>