<?xml version="1.0" encoding="utf-8"?>
<!-- Generator: Adobe Illustrator 21.1.0, SVG Export Plug-In . SVG Version: 6.00 Build 0)  -->
<svg version="1.2" baseProfile="tiny" id="safe_x5F_kids"
	 xmlns="http://www.w3.org/2000/svg" xmlns:xlink="http://www.w3.org/1999/xlink" x="0px" y="0px" viewBox="0 0 180 150"
	 xml:space="preserve">
<path d="M56.5,57.8c-5.8,0-10.6,4.7-10.6,10.6S50.7,79,56.5,79s10.6-4.7,10.6-10.6S62.3,57.8,56.5,57.8 M69,122.2H42.6V82.6H69
	V122.2z M53.2,148.6H42.6v-26.4h10.6V148.6z M36,117.4l-8.3-4.1l15.2-30.8l8.3,4.1L36,117.4z M86.2,91.9H59.8v-9.2h26.4V91.9z
	 M69,148.6H58.5v-26.4H69V148.6z M118.6,1.4c-8.4,0-15.2,6.8-15.2,15.2c0,8.4,6.8,15.2,15.2,15.2s15.2-6.8,15.2-15.2
	C133.8,8.2,127,1.4,118.6,1.4 M136.4,103.8H96.8v-66h39.6V103.8z M112.6,148.6H96.8v-44.9h15.8V148.6z M86.9,91.5L76,86.8l20.9-48.4
	l10.9,4.7L86.9,91.5z M147.1,91.5l-20.9-48.4l10.9-4.7L158,86.8L147.1,91.5z M136.4,148.6h-15.8v-44.9h15.8V148.6z"/>
</svg>
