<svg id="Layer_1" data-name="Layer 1" xmlns="http://www.w3.org/2000/svg" viewBox="0 0 32 32"><title>icon-settings</title><g id="settings"><path d="M30.39,12.68l-3.06-.61a12.1,12.1,0,0,0-.54-1.29l1.74-2.6a2,2,0,0,0-.25-2.52L26.35,3.73a2,2,0,0,0-2.52-.25l-2.6,1.73a12.09,12.09,0,0,0-1.29-.54L19.32,1.61a2,2,0,0,0-2-1.61H14.64a2,2,0,0,0-2,1.61L12.06,4.68a12.09,12.09,0,0,0-1.29.54L8.17,3.48a2,2,0,0,0-2.52.25L3.72,5.65a2,2,0,0,0-.25,2.52l1.74,2.6a12,12,0,0,0-.54,1.29l-3.07.61a2,2,0,0,0-1.61,2v2.72a2,2,0,0,0,1.61,2l3.07,0.61a12.09,12.09,0,0,0,.54,1.29l-1.73,2.6a2,2,0,0,0,.25,2.52l1.92,1.92a2,2,0,0,0,2.52.25l2.6-1.74a11.79,11.79,0,0,0,1.29.54l0.61,3.06a2,2,0,0,0,2,1.61h2.72a2,2,0,0,0,2-1.61l0.61-3.06a12.1,12.1,0,0,0,1.29-.54l2.6,1.74a2,2,0,0,0,2.52-.25l1.92-1.92a2,2,0,0,0,.25-2.52l-1.74-2.6a11.89,11.89,0,0,0,.54-1.29l3.06-.61a2,2,0,0,0,1.61-2V14.64A2,2,0,0,0,30.39,12.68ZM26.93,18a2,2,0,0,0-1.5,1.31A10.15,10.15,0,0,1,25,20.35a2,2,0,0,0,.14,2l1.74,2.6-1.92,1.92-2.6-1.74a2,2,0,0,0-2-.14,10.11,10.11,0,0,1-1.08.45,2,2,0,0,0-1.3,1.5L17.36,30H14.64L14,26.94a2,2,0,0,0-1.3-1.5A10.17,10.17,0,0,1,11.65,25a2,2,0,0,0-2,.14l-2.6,1.74L5.14,24.94l1.74-2.6a2,2,0,0,0,.14-2,10.11,10.11,0,0,1-.45-1.08A2,2,0,0,0,5.07,18L2,17.36V14.64L5.07,14a2,2,0,0,0,1.5-1.3A10,10,0,0,1,7,11.65a2,2,0,0,0-.14-2L5.14,7.06,7.06,5.14l2.6,1.74a2,2,0,0,0,2,.14,10.09,10.09,0,0,1,1.07-.45A2,2,0,0,0,14,5.07L14.64,2h2.72L18,5.07a2,2,0,0,0,1.31,1.5A10,10,0,0,1,20.35,7a2,2,0,0,0,2-.14l2.6-1.74,1.92,1.92-1.74,2.6a2,2,0,0,0-.14,2,10.1,10.1,0,0,1,.45,1.07,2,2,0,0,0,1.5,1.3L30,14.64v2.72Z" transform="translate(0 0)"/><path d="M16,9.81A6.2,6.2,0,1,0,22.2,16,6.2,6.2,0,0,0,16,9.81ZM16,20a4,4,0,1,1,4-4A4,4,0,0,1,16,20Z" transform="translate(0 0)"/></g></svg>