<?xml version="1.0" encoding="utf-8"?>
<!-- Generator: Adobe Illustrator 16.0.0, SVG Export Plug-In . SVG Version: 6.00 Build 0)  -->
<!DOCTYPE svg PUBLIC "-//W3C//DTD SVG 1.1//EN" "http://www.w3.org/Graphics/SVG/1.1/DTD/svg11.dtd">
<svg version="1.1" id="Layer_1" xmlns="http://www.w3.org/2000/svg" xmlns:xlink="http://www.w3.org/1999/xlink" x="0px" y="0px"
	 width="24px" height="24px" viewBox="0 0 24 24" enable-background="new 0 0 24 24" xml:space="preserve">
<path fill="#007360" d="M19,6.734c0,4.164-3.75,6.98-3.75,10.266h-1.992c0-2.08,0.997-3.826,1.969-5.513
	C16.139,9.902,17,8.404,17,6.734C17,3.626,14.482,2,11.996,2C9.513,2,7,3.626,7,6.734c0,1.67,0.862,3.168,1.774,4.753
	c0.97,1.687,1.966,3.434,1.967,5.513H8.75C8.75,13.714,5,10.897,5,6.734C5,2.39,8.498,0,11.996,0C15.498,0,19,2.394,19,6.734z
	 M15,18.5c0,0.276-0.224,0.5-0.5,0.5h-5C9.224,19,9,18.776,9,18.5S9.224,18,9.5,18h5C14.776,18,15,18.224,15,18.5z M15,20.5
	c0,0.276-0.224,0.5-0.5,0.5h-5C9.224,21,9,20.776,9,20.5S9.224,20,9.5,20h5C14.776,20,15,20.224,15,20.5z M13.3,23.66
	c-0.19,0.216-0.466,0.34-0.754,0.34h-1.093c-0.288,0-0.562-0.125-0.752-0.34L9.25,22h5.5L13.3,23.66z"/>
</svg>
