<?xml version="1.0" encoding="utf-8"?>
<!-- Generator: Adobe Illustrator 21.1.0, SVG Export Plug-In . SVG Version: 6.00 Build 0)  -->
<svg version="1.2" baseProfile="tiny" id="password_x5F_manager"
	 xmlns="http://www.w3.org/2000/svg" xmlns:xlink="http://www.w3.org/1999/xlink" x="0px" y="0px" viewBox="0 0 180 150"
	 xml:space="preserve">
<path d="M83.9,79c3.3,1.8,6.7,3.1,10.2,4l2.5,9.2l-9.3,2.5l2.5,9.3l-9.3,2.5l2.5,9.3l-9.3,2.5l2.5,9.3l-9.3,2.5l2.5,9.3l-9.3,2.5v0
	l-25.9,7L29.8,132l38.5-66.8c2.2,3.1,4.7,5.9,7.7,8.4l-34.6,59.9l0.5,1.9l11.1-3L83.9,79z M85.5,58.4c-7.1-7.4-9.4-17.8-6.3-27.3
	h12.2L74.7,14L58.1,31.1h9.9c-2.8,12.2,0.6,25.5,9.7,34.9c7.4,7.6,17.4,11.5,27.5,11.5c7,0,14-1.9,20.1-5.8l-5.8-9.2
	C108.7,69.3,94.4,67.6,85.5,58.4 M142.4,47.4c2.5-12.2-0.9-25.2-9.9-34.5c-12.7-13.1-33-15.4-48.3-5.5l5.9,9.1
	c10.9-7.1,25.4-5.4,34.5,4c7,7.2,9.3,17.4,6.5,26.9h-11.5l16.7,17.1L153,47.4H142.4z"/>
</svg>
