<svg width="192" height="192" viewBox="0 0 192 192" fill="none" xmlns="http://www.w3.org/2000/svg">
<g clip-path="url(#clip0)">
<path d="M51.8 51.2L0 0" transform="translate(17.6997 14.7) scale(3)" stroke="#ADC9D5" stroke-miterlimit="10"/>
<path d="M22.6 0C13.6 0.1 5.6 3.9 0 10.1" transform="translate(36 1.5) scale(3)" stroke="#ADC9D5" stroke-miterlimit="10"/>
<path d="M0 8.4C8.2 8.4 15.7 5.2 21.2 0" transform="translate(104.4 162.3) scale(3)" stroke="#ADC9D5" stroke-miterlimit="10"/>
<path d="M35.2 4.5C30.9 1.6 25.8 0 20.2 0C20.2 0 20.2 0 20.1 0L14.6 0.6C8.8 1.8 3.8 4.8 0 9.1" transform="translate(43.8003 13.5) scale(3)" stroke="#ADC9D5" stroke-miterlimit="10"/>
<path d="M0 1C4.6 4.8 10.5 7 17 7C17.9 7 18.9 7 19.8 6.9C25.7 6.3 31.1 3.8 35.2 0" transform="translate(53.4001 154.5) scale(3)" stroke="#ADC9D5" stroke-miterlimit="10"/>
<path d="M0 0H68" transform="translate(2.40015 97.5) scale(3)" stroke="#ADC9D5" stroke-miterlimit="10"/>
<path d="M0 0H14.2" transform="translate(-15 89.1) scale(3)" stroke="#ADC9D5" stroke-miterlimit="10"/>
<path d="M22 44C34.1503 44 44 34.1503 44 22C44 9.84974 34.1503 0 22 0C9.84974 0 0 9.84974 0 22C0 34.1503 9.84974 44 22 44Z" transform="translate(38.4001 28.5) scale(3)" fill="#DFECF1"/>
<path d="M0 33V0H13.4L16.4 4H42V33H0Z" transform="translate(41.4001 37.5) scale(3)" fill="white"/>
<path d="M13.9 2L16.3 5.2L16.9 6H17.9H42V33H2V2H13.9ZM14.9 0H0V35H44V4H17.9L14.9 0Z" transform="translate(38.4001 34.5) scale(3)" fill="#5C8394"/>
<path d="M0 6V0H14.4L18.8 6H0Z" transform="translate(38.4001 34.5) scale(3)" fill="#5C8394"/>
<path d="M0 0H43.5" transform="translate(38.4001 64.5) scale(3)" stroke="#5C8394" stroke-width="2" stroke-miterlimit="10"/>
<path d="M1 0H0V1H1V0Z" transform="translate(158.4 55.5) scale(3)" fill="#DFECF1"/>
<path d="M9 0H0V1H9V0Z" transform="translate(47.4001 55.5) scale(3)" fill="#DFECF1"/>
<path d="M13.8 9.7L15.8 9V6.6L13.7 5.9C13.6 5.6 13.4 5.2 13.3 4.9L14.3 3L12.7 1.4L10.8 2.4C10.5 2.2 10.2 2.1 9.8 2L9.1 0H6.7L6 2.1C5.7 2.2 5.3 2.4 5 2.5L3.1 1.5L1.4 3.2L2.4 5.1C2.2 5.4 2.1 5.7 2 6.1L0 6.8V9.2L2.1 9.9C2.2 10.2 2.4 10.6 2.5 10.9L1.5 12.8L3.2 14.5L5.1 13.5C5.4 13.7 5.7 13.8 6.1 13.9L6.8 15.9H9.2L9.9 13.8C10.2 13.7 10.6 13.5 10.9 13.4L12.8 14.4L14.5 12.7L13.5 10.8C13.6 10.4 13.7 10.1 13.8 9.7ZM8 11.7C5.9 11.7 4.2 10 4.1 7.9C4.1 5.8 5.8 4.1 7.9 4C10 4 11.7 5.7 11.8 7.8C11.8 10 10.1 11.7 8 11.7Z" transform="translate(82.5 73.8) scale(3)" fill="#5C8394"/>
<path d="M2.4 4.8C3.72548 4.8 4.8 3.72548 4.8 2.4C4.8 1.07452 3.72548 0 2.4 0C1.07452 0 0 1.07452 0 2.4C0 3.72548 1.07452 4.8 2.4 4.8Z" transform="translate(98.9546 90.3509) scale(3.00007) rotate(-0.383157)" fill="#F17179"/>
</g>
<defs>
<clipPath id="clip0">
<rect width="64" height="64" fill="white" transform="scale(3)"/>
</clipPath>
</defs>
</svg>
