<svg width="192" height="192" viewBox="0 0 192 192" fill="none" xmlns="http://www.w3.org/2000/svg">
<g clip-path="url(#clip0)">
<path d="M53.5 0L0 53.5" transform="translate(16.5 17.4) scale(3)" stroke="#ADC9D5" stroke-miterlimit="10"/>
<path d="M0 0C2.3 13.7 13.2 24.4 27 26.4" transform="translate(1.5 113.4) scale(3)" stroke="#ADC9D5" stroke-miterlimit="10"/>
<path d="M2.6 6.8C2 4.4 1.1 2.1 0 0" transform="translate(181.2 53.1) scale(3)" stroke="#ADC9D5" stroke-miterlimit="10"/>
<path d="M0.0999985 0L0 0.599998" transform="translate(96 94.5) scale(3)" stroke="#ADC9D5" stroke-miterlimit="10"/>
<path d="M17.4 1.1C14.8 0.4 12.1 0 9.2 0C6 0 2.9 0.5 0 1.4" transform="translate(68.4001 1.5) scale(3)" stroke="#ADC9D5" stroke-miterlimit="10"/>
<path d="M0 4.2L4.2 0L8.5 4.2" transform="translate(8.40015 75.9) scale(3)" stroke="#5C8394" stroke-miterlimit="10"/>
<path d="M0.823444 0C-1.37656 8.5 0.823444 17.9 7.52344 24.5C14.2234 31.1 23.5234 33.4 32.0234 31.2" transform="translate(19.4297 78.3) scale(3)" stroke="#5C8394" stroke-miterlimit="10" stroke-linecap="square"/>
<path d="M8.5 0L4.3 4.2L0 0" transform="translate(158.4 106.5) scale(3)" stroke="#5C8394" stroke-miterlimit="10"/>
<path d="M31.2 32.0234C33.4 23.5234 31.1 14.2234 24.5 7.52344C17.9 0.823444 8.5 -1.37656 0 0.823444" transform="translate(76.8003 20.6297) scale(3)" stroke="#5C8394" stroke-miterlimit="10" stroke-linecap="square"/>
<path d="M6 0H0V6H6V0Z" transform="translate(159.455 34.3377) scale(3) rotate(90)" fill="#F17179"/>
<path d="M20 40C31.0457 40 40 31.0457 40 20C40 8.9543 31.0457 0 20 0C8.9543 0 0 8.9543 0 20C0 31.0457 8.9543 40 20 40Z" transform="translate(36.3003 37.5) scale(3)" fill="white"/>
<path d="M20 1C30.5 1 39 9.5 39 20C39 30.5 30.5 39 20 39C9.5 39 1 30.5 1 20C1 9.5 9.5 1 20 1ZM20 0C9 0 0 9 0 20C0 31 9 40 20 40C31 40 40 31 40 20C40 9 31 0 20 0Z" transform="translate(36.3003 37.5) scale(3)" fill="#ADC9D5"/>
<path d="M14 1.1C16.2 2.1 27 7.8 27 20C27 32.1 16.2 37.9 14 38.9C11.8 37.9 1 32.1 1 20C1 7.9 11.8 2.1 14 1.1ZM14 0C14 0 0 5.7 0 20C0 34.3 14 40 14 40C14 40 28 34.3 28 20C28 5.7 14 0 14 0Z" transform="translate(54.3003 37.5) scale(3)" fill="#ADC9D5"/>
<path d="M6 2C7.6 4.9 11 11.9 11 20C11 28.1 7.6 35.2 6 38C4.4 35.1 1 28.1 1 20C1 11.9 4.3 4.8 6 2ZM6 0C6 0 0 9 0 20C0 31 6 40 6 40C6 40 12 31 12 20C12 9 6 0 6 0Z" transform="translate(78.3003 37.5) scale(3)" fill="#ADC9D5"/>
<path d="M0 0C3.3 2.3 7.2 3.7 11.5 3.7C15.8 3.7 19.8 2.3 23 0" transform="translate(61.5 50.4) scale(3)" stroke="#ADC9D5" stroke-miterlimit="10"/>
<path d="M0 0C5 2.3 10.8 3.5 17 3.5C23.2 3.5 29 2.2 34 0" transform="translate(45.3003 69) scale(3)" stroke="#ADC9D5" stroke-miterlimit="10"/>
<path d="M34 3.5C29 1.2 23.2 0 17 0C10.8 0 5 1.3 0 3.5" transform="translate(45 115.5) scale(3)" stroke="#ADC9D5" stroke-miterlimit="10"/>
<path d="M23 3.7C19.7 1.4 15.8 0 11.5 0C7.2 0 3.2 1.4 0 3.7" transform="translate(61.8003 133.5) scale(3)" stroke="#ADC9D5" stroke-miterlimit="10"/>
<path d="M40 0H0" transform="translate(36.3003 97.5) scale(3)" stroke="#ADC9D5" stroke-miterlimit="10"/>
<path d="M24 0H0V16H24V0Z" transform="translate(60.3003 73.5) scale(3)" fill="white"/>
<path d="M24 2V16H2V2H24ZM26 0H0V18H26V0Z" transform="translate(57.3003 70.5) scale(3)" fill="#5C8394"/>
<path d="M0 0.5V0H24V0.5L12 9.7L0 0.5Z" transform="translate(60.3003 73.5) scale(3)" fill="white"/>
<path d="M22.7 2L13 9.5L3.3 2H22.7ZM26 0H0V2L13 12L26 2V0Z" transform="translate(57.3003 70.5) scale(3)" fill="#5C8394"/>
</g>
<defs>
<clipPath id="clip0">
<rect width="64" height="64" fill="white" transform="scale(3)"/>
</clipPath>
</defs>
</svg>
