<svg width="192" height="192" viewBox="0 0 192 192" fill="none" xmlns="http://www.w3.org/2000/svg">
<path d="M0 52.5L52.4 0" transform="translate(16.1997 24) scale(3)" stroke="#ADC9D5" stroke-miterlimit="10"/>
<path d="M54 54L0 0" transform="translate(16.1997 19.5) scale(3)" stroke="#ADC9D5" stroke-miterlimit="10"/>
<path d="M22 44C34.1503 44 44 34.1503 44 22C44 9.84974 34.1503 0 22 0C9.84974 0 0 9.84974 0 22C0 34.1503 9.84974 44 22 44Z" transform="translate(31.1997 34.5) scale(3)" fill="#DFECF1"/>
<path d="M0 0C0.9 9.2 6.6 16.9 14.6 20.8" transform="translate(19.5 108.3) scale(3)" stroke="#ADC9D5" stroke-miterlimit="10"/>
<path d="M0 20.9C8.1 17.1 13.9 9.3 14.8 0" transform="translate(130.2 108.3) scale(3)" stroke="#ADC9D5" stroke-miterlimit="10"/>
<path d="M32.4 1.6C29.6 0.6 26.6 0 23.4 0C13.1 0 4.3 6 0 14.6" transform="translate(26.6997 22.5) scale(3)" stroke="#ADC9D5" stroke-miterlimit="10"/>
<path d="M0.9 0C0.4 1.6 0.1 3.3 0 5.1" transform="translate(19.1997 79.2) scale(3)" stroke="#ADC9D5" stroke-miterlimit="10"/>
<path d="M0.899998 5.1C0.799998 3.3 0.4 1.6 0 0" transform="translate(172.2 78.9) scale(3)" stroke="#ADC9D5" stroke-miterlimit="10"/>
<path d="M6 0H0V6H6V0Z" transform="translate(34.1997 145.5) scale(3)" fill="#F17179"/>
<path d="M22.6 0C13.8 0 5.8 3.6 0 9.4" transform="translate(29.3994 4.5) scale(3)" stroke="#ADC9D5" stroke-miterlimit="10"/>
<path d="M0 6.6C3.6 5 6.9 2.7 9.7 0" transform="translate(135.899 168.6) scale(3)" stroke="#ADC9D5" stroke-miterlimit="10"/>
<path d="M0 0V28H20V0H0Z" transform="translate(67.1997 57) scale(3)" fill="#5C8394"/>
<path d="M16 21H0V0H16V21ZM4 23H0V24H4V23ZM10 23H6V24H10V23ZM16 23H12V24H16V23Z" transform="translate(73.1997 63) scale(3)" fill="white"/>
<path d="M0 3L2.9 5.8L8.8 0" transform="translate(86.6997 87.3) scale(3)" stroke="#5C8394" stroke-width="2" stroke-miterlimit="10"/>
</svg>
