<svg width="192" height="192" viewBox="0 0 192 192" fill="none" xmlns="http://www.w3.org/2000/svg">
<path d="M53.9 57.9L0 0" transform="translate(7.19971 3.9) scale(3)" stroke="#ADC9D5" stroke-miterlimit="10"/>
<path d="M24.5 49C38.031 49 49 38.031 49 24.5C49 10.969 38.031 0 24.5 0C10.969 0 0 10.969 0 24.5C0 38.031 10.969 49 24.5 49Z" transform="translate(18 22.8) scale(3)" fill="#DFECF1"/>
<path d="M1 37.9C4.9 32.8 7.3 26.5 7.3 19.6C7.3 12.1 4.5 5.3 0 0" transform="translate(159.6 37.8) scale(3)" stroke="#ADC9D5" stroke-miterlimit="10"/>
<path d="M0 0C3.2 1.2 6.7 1.8 10.4 1.8C13.9 1.8 17.2 1.2 20.3 0.100002" transform="translate(60.3003 180.9) scale(3)" stroke="#ADC9D5" stroke-miterlimit="10"/>
<path d="M28.8 0C12.8 0.6 0 13.8 0 29.9C0 37.3 2.7 44.1 7.1 49.3" transform="translate(1.5 6.6) scale(3)" stroke="#ADC9D5" stroke-miterlimit="10"/>
<path d="M6 0H0V6H6V0Z" transform="translate(21.5999 22.5) scale(3)" fill="#F17179"/>
<path d="M6.5 11C5 6.9 2.8 3.2 0 0" transform="translate(170.7 27.3) scale(3)" stroke="#ADC9D5" stroke-miterlimit="10"/>
<path d="M3.3 9.6C1.5 9.6 0 8.1 0 6.3V0H6.6V6.3C6.6 8.1 5.1 9.6 3.3 9.6Z" transform="translate(114 68.1) scale(3)" fill="white"/>
<path d="M6.6 2V7.3C6.6 8.6 5.6 9.6 4.3 9.6C3 9.6 2 8.6 2 7.3V2H6.6ZM8.6 0H0V7.3C0 9.7 1.9 11.6 4.3 11.6C6.7 11.6 8.6 9.7 8.6 7.3V0V0Z" transform="translate(111 65.1) scale(3)" fill="#5C8394"/>
<path d="M3.3 9.6C1.5 9.6 0 8.1 0 6.3V0H6.6V6.3C6.6 8.1 5.1 9.6 3.3 9.6Z" transform="translate(47.6997 68.1) scale(3)" fill="white"/>
<path d="M6.6 2V7.3C6.6 8.6 5.6 9.6 4.3 9.6C3 9.6 2 8.6 2 7.3V2H6.6ZM8.6 0H0V7.3C0 9.7 1.9 11.6 4.3 11.6C6.7 11.6 8.6 9.7 8.6 7.3V0Z" transform="translate(44.6997 65.1) scale(3)" fill="#5C8394"/>
<path d="M10.1 23.9C4.6 23.9 0 19.4 0 13.8V0H20.1V13.8C20.2 19.3 15.7 23.9 10.1 23.9Z" transform="translate(60.2996 59.1) scale(3)" fill="white"/>
<path d="M20.1 2V14.8C20.1 19.8 16 23.9 11 23.9C6 23.9 1.9 19.8 1.9 14.8V2H20.1ZM22.1 0H0V14.8C0 20.9 5 25.9 11.1 25.9C17.2 25.9 22.2 20.9 22.2 14.8V0H22.1Z" transform="translate(57.5999 56.1) scale(3)" fill="#5C8394"/>
<path d="M6 0H0V2H6V0Z" transform="translate(81.5999 131.4) scale(3)" fill="white"/>
<path d="M6 2H2H6ZM8 0H0V4H8V0Z" transform="translate(78.5999 128.4) scale(3)" fill="#5C8394"/>
<path d="M0 1C0 0.4 0.4 0 1 0H11C11.6 0 12 0.4 12 1H0Z" transform="translate(72.5999 140.4) scale(3)" fill="white"/>
<path d="M12 0H2C0.9 0 0 0.9 0 2V3H14V2C14 0.9 13.2 0 12 0Z" transform="translate(69.5999 137.4) scale(3)" fill="#5C8394"/>
<path d="M0 3.4L3.3 6.6L9.9 0" transform="translate(78.8994 81.6) scale(3)" stroke="#5C8394" stroke-width="2" stroke-miterlimit="10"/>
</svg>
