<svg width="192" height="192" viewBox="0 0 192 192" fill="none" xmlns="http://www.w3.org/2000/svg">
<path d="M44.5 60.1L0 0" transform="translate(16.5 0.900009) scale(3)" stroke="#ADC9D5" stroke-miterlimit="10"/>
<path d="M24 48C37.2548 48 48 37.2548 48 24C48 10.7452 37.2548 0 24 0C10.7452 0 0 10.7452 0 24C0 37.2548 10.7452 48 24 48Z" transform="translate(19.5 27.9) scale(3)" fill="#DFECF1"/>
<path d="M6 39.4C9.1 34.7 10.8 29.1 10.8 23.1C10.8 13.8 6.6 5.5 0 0" transform="translate(149.1 30.6) scale(3)" stroke="#ADC9D5" stroke-miterlimit="10"/>
<path d="M0 0C3.5 1.4 7.3 2.2 11.3 2.2C14.4 2.2 17.5 1.7 20.3 0.799999" transform="translate(57.5999 183) scale(3)" stroke="#ADC9D5" stroke-miterlimit="10"/>
<path d="M0.300001 0L0 0.200001L0.200001 0.799999L0.5 0.0999985L0.300001 0Z" transform="translate(88.1997 99) scale(3)" fill="#ADC9D5"/>
<path d="M29.1 0C13 0.5 0 13.7 0 30C0 36.6 2.1 42.7 5.8 47.7" transform="translate(1.5 9.90001) scale(3)" stroke="#ADC9D5" stroke-miterlimit="10"/>
<path d="M9.8 13.7C7.7 8.4 4.3 3.7 0 0" transform="translate(159.6 17.1) scale(3)" stroke="#ADC9D5" stroke-miterlimit="10"/>
<path d="M0 32V8.4L8.4 0H26V32H0Z" transform="translate(51 50.4) scale(3)" fill="white"/>
<path d="M26 2V32H2V9.8L9.8 2H26ZM28 0H9L0 9V34H28V0Z" transform="translate(48 47.4) scale(3)" fill="#5C8394"/>
<path d="M0 9H9V0L0 9Z" transform="translate(51 50.4) scale(3)" fill="#5C8394"/>
<path d="M6 0H0" transform="translate(87 78.9) scale(3)" stroke="#DFEBF1" stroke-miterlimit="10"/>
<path d="M5.5 0H0" transform="translate(99.9001 59.7) scale(3)" stroke="#DFEBF1" stroke-miterlimit="10"/>
<path d="M16 0H0" transform="translate(66 90.9) scale(3)" stroke="#DFEBF1" stroke-miterlimit="10"/>
<path d="M16 0H0" transform="translate(66 99.9) scale(3)" stroke="#DFEBF1" stroke-miterlimit="10"/>
<path d="M16 0H0" transform="translate(66 108.9) scale(3)" stroke="#DFEBF1" stroke-miterlimit="10"/>
<path d="M8 0H0" transform="translate(84 117.9) scale(3)" stroke="#DFEBF1" stroke-miterlimit="10"/>
<path d="M3.9 0H0" transform="translate(102.3 131.4) scale(3)" stroke="#DFEBF1" stroke-miterlimit="10"/>
<path d="M9.8 0H0" transform="translate(65.4001 131.4) scale(3)" stroke="#DFEBF1" stroke-miterlimit="10"/>
<path d="M6 0H0V6H6V0Z" transform="translate(28.5 18.9) scale(3)" fill="#F17179"/>
<path d="M3.3 2C4 2 4.6 2.6 4.6 3.3V7.5H1.9V3.3C2 2.6 2.6 2 3.3 2ZM3.3 0C1.5 0 0 1.5 0 3.3V9.5H6.7V3.3C6.6 1.5 5.1 0 3.3 0Z" transform="translate(80.0999 80.4) scale(3)" fill="#5C8394"/>
<path d="M12 0H0V8H12V0Z" transform="translate(72 102.9) scale(3)" fill="#5C8394"/>
</svg>
