<svg width="192" height="192" viewBox="0 0 192 192" fill="none" xmlns="http://www.w3.org/2000/svg">
<g clip-path="url(#clip0)">
<path d="M57 57L0 0" transform="translate(11.4001 17.1) scale(3)" stroke="#ADC9D5" stroke-miterlimit="10"/>
<path d="M21.2 42.4C32.9084 42.4 42.4 32.9084 42.4 21.2C42.4 9.49156 32.9084 0 21.2 0C9.49156 0 0 9.49156 0 21.2C0 32.9084 9.49156 42.4 21.2 42.4Z" transform="translate(33.9001 41.4) scale(3)" fill="#DFECF1"/>
<path d="M28 0H0V8H28V0Z" transform="translate(55.5 93) scale(3)" fill="white"/>
<path d="M28 2V8H2V2H28ZM30 0H0V10H30V0Z" transform="translate(52.5 90) scale(3)" fill="#5C8394"/>
<path d="M13.1 0H0V2H13.1V0Z" transform="translate(64.1997 102.3) scale(3)" fill="#5C8394"/>
<path d="M2 0H0V2H2V0Z" transform="translate(124.8 102.3) scale(3)" fill="#5C8394"/>
<path d="M2 0H0V2H2V0Z" transform="translate(115.8 102.3) scale(3)" fill="#5C8394"/>
<path d="M28 0H0V8H28V0Z" transform="translate(55.5 129) scale(3)" fill="white"/>
<path d="M28 2V8H2V2H28ZM30 0H0V10H30V0Z" transform="translate(52.5 126) scale(3)" fill="#5C8394"/>
<path d="M13.1 0H0V2H13.1V0Z" transform="translate(64.1997 138.3) scale(3)" fill="#5C8394"/>
<path d="M2 0H0V2H2V0Z" transform="translate(124.8 138.3) scale(3)" fill="#5C8394"/>
<path d="M2 0H0V2H2V0Z" transform="translate(115.8 138.3) scale(3)" fill="#5C8394"/>
<path d="M28 0H0V8H28V0Z" transform="translate(55.5 57) scale(3)" fill="white"/>
<path d="M28 2V8H2V2H28ZM30 0H0V10H30V0Z" transform="translate(52.5 54) scale(3)" fill="#5C8394"/>
<path d="M13.1 0H0V2H13.1V0Z" transform="translate(64.1997 66.3) scale(3)" fill="#5C8394"/>
<path d="M2 0H0V2H2V0Z" transform="translate(124.8 66.3) scale(3)" fill="#5C8394"/>
<path d="M2 0H0V2H2V0Z" transform="translate(115.8 66.3) scale(3)" fill="#5C8394"/>
<path d="M2 0H0V3H2V0Z" transform="translate(58.5 81) scale(3)" fill="#5C8394"/>
<path d="M2 0H0V3H2V0Z" transform="translate(130.5 81) scale(3)" fill="#5C8394"/>
<path d="M2 0H0V3H2V0Z" transform="translate(58.5 120) scale(3)" fill="#5C8394"/>
<path d="M2 0H0V3H2V0Z" transform="translate(130.5 120) scale(3)" fill="#5C8394"/>
<path d="M0 6.5V0H6.5" transform="translate(24 145.5) scale(3)" stroke="#5C8394" stroke-miterlimit="10"/>
<path d="M0 0C4.8 8.1 13.6 13.5 23.7 13.5C33.8 13.5 42.6 8.1 47.4 0" transform="translate(26.4001 147) scale(3)" stroke="#5C8394" stroke-miterlimit="10" stroke-linecap="square"/>
<path d="M6.5 0V6.5H0" transform="translate(151.5 45) scale(3)" stroke="#5C8394" stroke-miterlimit="10"/>
<path d="M47.4 13.5C42.6 5.4 33.8 0 23.7 0C13.6 0 4.8 5.4 0 13.5" transform="translate(26.4001 22.5) scale(3)" stroke="#5C8394" stroke-miterlimit="10" stroke-linecap="square"/>
<path d="M6 0H0V6H6V0Z" transform="translate(148.5 153) scale(3)" fill="#F17179"/>
<path d="M28.1 0C23.5 0.1 18.9 1.1 14.5 3.2C8 6.3 3.1 11.3 0 17.2" transform="translate(11.6997 4.5) scale(3)" stroke="#ADC9D5" stroke-miterlimit="10"/>
<path d="M0 0H9" transform="translate(181.5 133.5) scale(3)" stroke="#ADC9D5" stroke-miterlimit="10"/>
<path d="M0 0H9" transform="translate(-18 75) scale(3)" stroke="#ADC9D5" stroke-miterlimit="10"/>
</g>
<defs>
<clipPath id="clip0">
<rect width="64" height="64" fill="white" transform="scale(3)"/>
</clipPath>
</defs>
</svg>
