<?xml version="1.0" encoding="utf-8"?>
<!-- Generator: Adobe Illustrator 22.0.1, SVG Export Plug-In . SVG Version: 6.00 Build 0)  -->
<svg version="1.1" id="Layer_1" xmlns="http://www.w3.org/2000/svg" xmlns:xlink="http://www.w3.org/1999/xlink" x="0px" y="0px"
	 viewBox="0 0 500 500" style="enable-background:new 0 0 500 500;" xml:space="preserve">
<style type="text/css">
	.st0{fill:#606060;}
</style>
<g>
	<path class="st0" d="M161.9,219.6c-0.1,0.4-4.5,14.6-4.5,14.6h-13.8l4.5-14.6h-15.9c0,0-12,39.1-12.2,39.9c0.7,0,15.4,0,15.8,0
		c0.1-0.4,5.1-16.7,5.1-16.7h13.9c0,0-4.9,16-5.1,16.7c0.8,0,15.4,0,15.8,0c0.1-0.4,12-39.1,12.2-39.9
		C177,219.6,162.3,219.6,161.9,219.6L161.9,219.6z"/>
	<path class="st0" d="M245.2,224l-0.7,0.5l1.5-4.9h-15.8c0,0-12,39.1-12.2,39.9c0.8,0,15.4,0,15.8,0c0.1-0.4,7.4-24.1,7.4-24.1
		c1-3.3,3.6-5.6,6.5-5.6h4.1c1.3,0,2.3,0.4,2.9,1.3c0.5,0.6,0.7,1.4,0.7,2.3c0,0.7-0.1,1.4-0.3,2.2c0,0-6.4,20.9-7.3,23.9
		c0.8,0,15.4,0,15.8,0c0.1-0.4,8.6-28.1,8.6-28.1c0.2-0.8,0.6-2.2,0.6-3.8c0-1.7-0.4-3.5-1.6-5.1c-1.8-2.4-4.9-3.6-9.3-3.6
		C253.4,218.8,247.8,222,245.2,224L245.2,224z"/>
	<path class="st0" d="M182.5,222.5c0.1,0.5,2.3,7.9,2.5,8.5c1.4-0.6,7.3-2.9,12.5-2.9c4.9,0,7.7,0.7,8.7,2.1
		c0.5,0.7,0.6,1.6,0.3,2.8l-1,3.2l-0.3-0.1c-6.7-2.2-11.7-2.1-11.8-2.1c-5.3,0-10.1,1.3-13.8,3.8c-3.6,2.4-6.1,5.8-7.3,9.9
		c-1.1,3.6-0.8,6.6,0.8,8.8c1.9,2.5,5.6,3.9,10.7,3.9c4.8,0,10.1-1.3,14.9-3.5l0.6-0.3c0,0-0.7,2.4-0.9,3c0.8,0,15.4,0,15.8,0
		c0.1-0.4,8.4-27.6,8.4-27.6c0.3-1.1,0.5-2.2,0.5-3.3c0-1.7-0.5-3.3-1.5-4.6c-2.6-3.4-8.4-5.3-17-5.3
		C194.1,218.8,184.2,221.9,182.5,222.5L182.5,222.5z M195,242.1c1.2,0,5.3,0.1,7.9,1.3l0.2,0.1l-1.8,5.8l-0.1,0.1
		c-2.5,1.2-6.1,2-8.9,2c-2.7,0-4.5-0.6-5.4-1.8c-0.4-0.5-0.5-1.1-0.5-1.7c0-0.4,0.1-0.8,0.2-1.2C187.5,243.8,190.7,242.1,195,242.1
		L195,242.1z"/>
	<path class="st0" d="M307,219.4c-0.2,0.1-15.2,12-15.2,12l3.7-12h-15.8c0,0-12.2,39.7-12.4,40.5c0.8,0,15.4,0,15.8,0
		c0.1-0.4,5-16.4,5-16.4c0,0,11.4,16.2,11.5,16.4c0.3,0,15.9,0,16.9,0c-0.6-0.9-14.5-20.7-14.5-20.7s22.7-18.8,24-19.7
		C324.5,219.4,307.2,219.4,307,219.4L307,219.4z"/>
	<path class="st0" d="M313.6,239.7L313.6,239.7c-1.7,5.6-1.1,10.9,1.8,14.8c3.3,4.4,9.2,6.9,16.6,6.9c17.5,0,27.4-6.8,32-21.9
		c1.7-5.6,1.1-10.9-1.8-14.8c-3.3-4.4-9.2-6.9-16.6-6.9C329.5,217.8,317.8,225.7,313.6,239.7L313.6,239.7z M329.1,248.5
		c-1.4-1.9-1.4-4.8-0.1-9l0,0c1.6-5.1,5.1-11.2,13.3-11.2c3.1,0,5.2,0.8,6.4,2.4c1.4,1.9,1.4,4.8,0.1,9c-1.6,5.1-5.1,11.2-13.3,11.2
		C332.3,250.9,330.3,250.1,329.1,248.5L329.1,248.5z"/>
	<path class="st0" d="M366.4,239.7L366.4,239.7c-1.7,5.6-1.1,10.9,1.8,14.8c3.3,4.4,9.2,6.9,16.6,6.9c17.5,0,27.4-6.8,32-21.9
		c1.7-5.6,1.1-10.9-1.8-14.8c-3.3-4.4-9.2-6.9-16.6-6.9C382.3,217.8,370.7,225.7,366.4,239.7L366.4,239.7z M395,228.3
		c3.1,0,5.2,0.8,6.4,2.4c1.4,1.9,1.4,4.8,0.1,9c-1.6,5.1-5.1,11.2-13.3,11.2c-3.1,0-5.2-0.8-6.4-2.4c-1.4-1.9-1.4-4.8-0.1-9l0,0
		C383.3,234.4,386.9,228.3,395,228.3L395,228.3z"/>
	<path class="st0" d="M452.7,219.1c-0.2,0.1-15.4,13-15.4,13l4-13h-15.8c0,0-12.4,40.4-12.6,41.1c0.8,0,15.4,0,15.8,0
		c0.1-0.4,5.1-16.7,5.1-16.7s12.2,16.5,12.4,16.7c0.3,0,16.3,0,17.4,0c-0.7-0.9-15.6-20.9-15.6-20.9c0,0,21.5-19.2,22.7-20.2
		C469.2,219.1,452.9,219.1,452.7,219.1L452.7,219.1z"/>
	<path class="st0" d="M124.7,212.8l-0.2-1.9h-13.4c1.5,15.9-9.4,33.5-25,37.8l0,0c0,0,0,0,0,0c-0.1,0-0.3,0-0.3-0.2
		c0-0.1,0-0.2,0.1-0.2l0,0c13-8.7,19.8-22.6,18.7-37.4H91.4c0.6,12.9-8.1,24.7-21.4,29.5c-0.1,0-0.3,0-0.3-0.2c0-0.1,0-0.1,0.1-0.2
		l0,0c9.6-6.6,15.4-16.3,15-29.1H71.7c-0.1,15.2-13.8,25.9-40.7,25.9c0.4,0.2,0.8,0.4,1.1,0.6c17.5,9.5,26.6,15.4,39.4,25.9
		c2,1.7,4.7,2.6,7.5,2.5C113.9,263.4,126.4,232.9,124.7,212.8L124.7,212.8z"/>
	<path class="st0" d="M205,267.5c0,0-1.3,4.2-1.6,5.2c-1.6-1-3.6-1.5-6.2-1.5c-5.9,0-10.7,2.9-12.1,7.4c-0.6,2-0.4,3.7,0.5,4.9
		c1.2,1.6,3.6,2.4,6.9,2.4c2.5,0,4.9-0.5,7.2-1.4c-0.1,0.2-0.4,1.2-0.4,1.2h4.7l6-19.6L205,267.5L205,267.5z M189.9,282
		c-0.5-0.7-0.6-1.7-0.2-3l0,0c1-3.4,3.5-5.1,7.4-5.1c2.7,0,4.6,0.8,5.5,1.6c-0.2,0.6-1.8,5.7-1.9,6.1c-2.2,1.2-4.5,1.8-6.8,1.8
		C191.9,283.3,190.5,282.9,189.9,282L189.9,282z"/>
	<path class="st0" d="M215.8,272.5c0-0.1,0.3-1,0.3-1h-4.7l-4.4,14.3h4.7l2.5-8.1c0.7-2.3,3-3.7,6.2-3.7c1.8,0,2.7,0.2,3.4,0.5
		l0.4,0.1l2.2-2.8l-0.8-0.2c-0.9-0.2-2.2-0.3-3.9-0.3C219.6,271.2,217.4,271.7,215.8,272.5L215.8,272.5z"/>
	<path class="st0" d="M227.4,268.1L227.4,268.1c-0.1,0.4,0,0.8,0.2,1.1c0.4,0.6,1.4,0.9,2.5,0.9c1.4,0,3-0.6,3.4-1.7
		c0.1-0.4,0-0.8-0.2-1.2c-0.4-0.6-1.3-0.9-2.4-0.9C229.2,266.4,227.7,267.1,227.4,268.1L227.4,268.1z M227.1,271.5l-4.4,14.3h4.7
		l4.4-14.3H227.1L227.1,271.5z"/>
	<path class="st0" d="M250.4,271.5c0,0-9.6,10.4-9.7,10.5c-0.5-1.7-3.2-10.5-3.2-10.5h-4.9l5.2,14.3h3.7l14.1-14.3H250.4
		L250.4,271.5z"/>
	<path class="st0" d="M256.5,268.1L256.5,268.1c-0.1,0.4,0,0.8,0.2,1.1c0.4,0.6,1.4,0.9,2.5,0.9c1.4,0,3-0.6,3.4-1.7
		c0.1-0.4,0-0.8-0.2-1.2c-0.4-0.6-1.3-0.9-2.4-0.9C258.3,266.4,256.8,267.1,256.5,268.1L256.5,268.1z M256.2,271.5l-4.4,14.3h4.7
		l4.4-14.3H256.2L256.2,271.5z"/>
	<path class="st0" d="M268.4,272.5c0-0.1,0.3-1.1,0.3-1.1h-4.7l-4.4,14.3h4.7l2.5-8.1c0.8-2.4,3.3-3.8,7-3.8c2.1,0,3.4,0.4,4,1.1
		c0.4,0.5,0.4,1.3,0.1,2.3l-2.6,8.4h4.7l2.6-8.4c0.5-1.6,0.3-2.9-0.4-3.9c-1.1-1.5-3.5-2.3-7.2-2.3
		C272.6,271.2,270.3,271.7,268.4,272.5L268.4,272.5z"/>
	<path class="st0" d="M283.6,278.6c-0.3,0.9-0.4,1.7-0.4,2.5c0.1,0.9,0.3,1.7,0.9,2.4c1.2,1.6,3.6,2.4,6.9,2.4
		c2.5,0,4.9-0.5,7.2-1.4c-0.9,2.3-3,3.4-10.9,3.5l-0.8,0l1.2,2.5l0.4,0c4.7-0.1,8.1-0.6,10.5-1.6c2.3-1,3.8-2.6,4.5-4.8l3.9-12.7
		h-4.7c0,0-0.2,0.8-0.4,1.2c-1.6-1-3.6-1.5-6.2-1.5C289.8,271.2,285,274.1,283.6,278.6L283.6,278.6z M288.4,282
		c-0.5-0.7-0.6-1.7-0.2-3l0,0c1-3.4,3.5-5.1,7.4-5.1c2.7,0,4.6,0.8,5.5,1.6c-0.2,0.6-1.8,5.7-1.9,6.1c-2.2,1.2-4.5,1.8-6.8,1.8
		C290.4,283.3,289,282.9,288.4,282L288.4,282z"/>
	<path class="st0" d="M315,278.4c-0.3,0.8-0.4,1.6-0.3,2.3c0.1,0.9,0.4,1.8,0.9,2.5c1.9,2.6,6.2,2.8,7.9,2.8c3.8,0,6.2-0.5,9.6-1.6
		l0.8-0.2l-2.1-2.2l-0.3,0.1c-2.6,0.8-4.4,1.2-7.1,1.2c-2.1,0-3.6-0.5-4.4-1.4c-0.4-0.4-0.6-0.9-0.6-1.5c0-0.2,0-0.4,0-0.6
		c0.8,0,16.5,0,16.5,0l0.1-0.2c0.2-0.3,0.4-0.6,0.5-1.1c0.2-0.7,0.3-1.4,0.3-2.1c-0.1-0.9-0.3-1.7-0.9-2.4c-1.3-1.8-4.1-2.7-8-2.7
		C321.5,271.2,316.3,274.1,315,278.4L315,278.4z M327.4,273.9c2.2,0,3.7,0.5,4.4,1.3c0.3,0.4,0.5,0.8,0.5,1.4c0,0.2,0,0.4,0,0.6
		c-0.7,0-10.5,0-12.1,0C321.5,275.1,324,273.9,327.4,273.9L327.4,273.9z"/>
	<path class="st0" d="M356.9,273.3c-0.9-1-2.7-2.1-6.3-2.1c-2.3,0-4.3,0.4-5.9,1.3c0-0.1,0.3-1,0.3-1h-4.7l-4.4,14.3h4.7l2.5-8.1
		c0.8-2.5,2.9-3.8,6.4-3.8c1.8,0,3,0.3,3.5,1c0.4,0.5,0.4,1.3,0.1,2.4c0,0-2.6,8.4-2.6,8.4h4.7l2.5-8.1c0.8-2.5,2.9-3.8,6.4-3.8
		c1.9,0,3,0.3,3.5,0.9c0.4,0.5,0.4,1.3,0.1,2.5l-2.6,8.4h4.7l2.6-8.4c0.5-1.6,0.4-3-0.4-4c-1.1-1.4-3.3-2.1-6.7-2.1
		C360.9,271.2,358.5,272.3,356.9,273.3L356.9,273.3z"/>
	<path class="st0" d="M378.2,273c-2.6,1.3-4.3,3.2-5,5.4l0,0c-0.5,1.8-0.3,3.4,0.6,4.6c1.4,1.9,4.5,2.9,8.5,2.9
		c3.1,0,6.2-0.7,8.5-1.9c2.6-1.3,4.3-3.2,5-5.5c0.5-1.8,0.3-3.3-0.6-4.6c-1.4-1.9-4.5-2.9-8.6-2.9
		C383.6,271.2,380.6,271.8,378.2,273L378.2,273z M378.1,281.8c-0.6-0.7-0.7-1.8-0.3-3l0,0c0.9-3.1,4-4.9,8.3-4.9
		c2.4,0,4.1,0.6,4.9,1.6c0.5,0.7,0.6,1.7,0.3,2.9c-0.9,3.1-4.1,4.9-8.4,4.9C380.6,283.3,378.9,282.8,378.1,281.8L378.1,281.8z"/>
	<path class="st0" d="M402,267.5c0,0-1,3.4-1.2,4c-0.6,0-3.1,0-3.1,0l-0.8,2.6c0,0,2.2,0,3.1,0c-0.4,1.2-2.5,8.2-2.5,8.2
		c-0.1,0.5-0.2,0.9-0.2,1.3c0,0.4,0.2,0.8,0.4,1.2c0.6,0.9,2,1.2,4.1,1.2c1.8,0,3.2-0.1,4.8-0.5l0.2,0l1.3-2.8l-1.1,0.2
		c-1.1,0.2-2.1,0.4-3.5,0.4c-1.3,0-1.5-0.2-1.5-0.3c0,0-0.1-0.1,0-0.6c0,0,2.1-6.6,2.6-8.2c0.7,0,6.2,0,6.2,0l0.8-2.6c0,0-5,0-6.2,0
		c0.3-1.1,1.7-5.4,1.7-5.4L402,267.5L402,267.5z"/>
	<path class="st0" d="M414.1,268.1L414.1,268.1c-0.1,0.4,0,0.8,0.2,1.1c0.4,0.6,1.4,0.9,2.5,0.9c1.4,0,3-0.6,3.4-1.7
		c0.1-0.4,0-0.8-0.2-1.2c-0.4-0.6-1.3-0.9-2.4-0.9C415.9,266.4,414.4,267.1,414.1,268.1L414.1,268.1z M413.9,271.5l-4.4,14.3h4.7
		l4.4-14.3H413.9L413.9,271.5z"/>
	<path class="st0" d="M423.2,273c-2.6,1.3-4.3,3.2-5,5.4l0,0c-0.5,1.8-0.3,3.4,0.6,4.6c1.4,1.9,4.5,2.9,8.5,2.9
		c3.1,0,6.2-0.7,8.5-1.9c2.6-1.3,4.3-3.2,5-5.5c0.5-1.8,0.3-3.3-0.6-4.6c-1.4-1.9-4.5-2.9-8.6-2.9
		C428.6,271.2,425.6,271.8,423.2,273L423.2,273z M431.2,273.9c2.4,0,4.1,0.6,4.9,1.6c0.5,0.7,0.6,1.7,0.3,2.9
		c-0.9,3.1-4.1,4.9-8.4,4.9c-2.3,0-4-0.6-4.8-1.6c-0.3-0.4-0.5-0.9-0.5-1.4c0-0.5,0-1,0.2-1.6C423.8,275.7,426.9,273.9,431.2,273.9
		L431.2,273.9z"/>
	<path class="st0" d="M449.1,272.5c0-0.1,0.3-1.1,0.3-1.1h-4.7l-4.4,14.3h4.7l2.5-8.1c1.1-3.4,5.2-3.8,7-3.8c2.1,0,3.4,0.4,4,1.1
		c0.4,0.5,0.4,1.3,0.1,2.3c0,0-2.6,8.4-2.6,8.4h4.7l2.6-8.4c0.5-1.6,0.3-2.9-0.4-3.9c-1.1-1.5-3.5-2.3-7.2-2.3
		C453.3,271.2,451,271.7,449.1,272.5L449.1,272.5z"/>
</g>
</svg>
