<?xml version="1.0" encoding="utf-8"?>
<!-- Generator: Adobe Illustrator 22.0.1, SVG Export Plug-In . SVG Version: 6.00 Build 0)  -->
<svg version="1.1" id="Layer_1" xmlns="http://www.w3.org/2000/svg" xmlns:xlink="http://www.w3.org/1999/xlink" x="0px" y="0px"
	 viewBox="0 0 500 500" style="enable-background:new 0 0 500 500;" xml:space="preserve">
<style type="text/css">
	.st0{fill:#606060;}
</style>
<g>
	<g>
		<g id="_x23_003145ff_9_">
			<path class="st0" d="M162.5,194.2c4.1,0,8.1-0.7,12-1.5c-2.7,5.2-9,6.8-14.3,7.2c-7,0.3-14,0.2-21,0.2c-4.7,3.7-7.5,9.1-9.9,14.4
				c-6.9,15.9-12.2,32.5-18.4,48.7c-2.2,5.9-4.8,12-10.2,15.7c-3.9,2.5-9,3.9-13.5,2.4c2.1-2,4.2-4,5.5-6.6c4.2-7.6,6.7-16,9.8-24.1
				c4-10.5,7.9-21,12.3-31.4c3.5-8,9.6-14.7,17.1-19.2c-12.2,0-25.1-0.8-36.5,4.5c-5.6,2.5-10.7,7.3-11.9,13.5
				c-0.9,3.3-0.1,6.6,0.8,9.8c-2.7-0.5-5.5-1.2-7.3-3.3c-3.5-3.6-3.5-9.3-1.5-13.6c2.5-5.5,7.6-9.3,13-11.7c8.6-3.8,18.1-4.9,27.4-5
				C131.4,194.2,146.9,194.2,162.5,194.2z"/>
			<path class="st0" d="M245.6,201.3c8.4-6.7,19.6-8.4,30-7.4c3.6,0.4,7.5,1.3,10,4.2c1.7,2,1.6,4.9,0.2,7c-2.3,3.7-6,6.5-10.1,8
				c1.3-2.9,3.6-5.6,3.4-8.9c0.1-2.8-2.1-5.1-4.6-6c-6.7-2.6-14.5-0.7-19.8,3.8c-5.2,4.3-8.5,10.4-11.2,16.5
				c9.8-0.2,19.7,0.4,29.5-0.5c-0.8,1.3-1.1,3.2-2.8,3.5c-6.3,2.2-10.2,8.1-13.3,13.7c-3.5,6.9-6.5,14.5-5.8,22.4
				c0.1,2.2,2.2,4,4.4,3.5c3.6-0.8,6.1-3.8,8.3-6.6c6.2-8.9,9.6-19.7,9.3-30.5c4.2-1.3,8.5-1.9,12.7-3.1c4.1-1,8.1-2.4,12.3-2.8
				c2.1-0.2,4.9,0.7,4.9,3.2c-0.2,5.5-2.9,10.5-4.8,15.5c3.9-5.9,8.3-11.8,14.3-15.8c3.4-2.3,7.7-3.8,11.9-2.8
				c2.2,0.5,4.1,2.4,4.2,4.7c0.1,3.5-1.3,6.8-2.6,10c-4.4,9.7-9.9,19.1-12.3,29.5c-0.9,3.3-0.5,6.7,0.2,10c-3.2-0.3-6.3-1.8-8.2-4.4
				c-2.5-3.6-2.3-8.3-1.2-12.4c2.4-8.6,7-16.3,10.6-24.5c0.9-1.9,1.3-3.9,1.5-5.9c-1.8,0-3.7,0.4-5,1.7
				c-11.7,10.5-18.1,25.2-24.7,39.1c-3.5,0-7,0-10.4,0c5-12.1,10-24.2,14.5-36.5c0.6-1.8,1.4-3.9,0.3-5.6c-3,0-6,0.8-8.9,1.3
				c-1.4,11.5-6.4,22.6-14,31.3c-4.9,5.5-11.4,10.5-19.1,10.3c-3.7,0.1-7.8-1.7-9.2-5.4c-1.8-4.8-0.8-10.1,0.6-14.9
				c3-9.5,8.8-18.5,17.4-23.7c-5.5,0.6-11,0.5-16.5,0.5c-4.9,12.8-9.3,25.8-14,38.7c-2.1,5.3-4.2,10.9-8.3,15
				c-3.5,3.7-8.9,5.3-13.9,4.3c2.3-2.6,4.6-5.2,6-8.4c2.9-6.4,5.3-13,7.8-19.6c-6.1,6.2-13.5,11.8-22.3,13.1
				c-4.4,0.6-9.7,0.5-12.9-3.1c-3.3-3.8-2.9-9.3-2.1-14c1.8-8.7,6.4-16.6,12.5-23c5.1-5,11.6-9.1,18.8-9.6c2.9-0.2,6.8,0.4,7.7,3.7
				c1,3.8-1,7.6-3.2,10.7c-6,7.9-14.8,13.1-23.5,17.6c-0.5,3.1-1.4,6.4-0.4,9.6c1,2.4,3.9,2.9,6.2,2.4c6.9-1.1,12.5-5.8,17.2-10.6
				c2.6-2.9,5.6-5.6,6.9-9.4c2.1-5.8,4.3-11.6,6.5-17.4c-2.3,0.3-4.7,0.6-7,0.7c1.9-3.3,5.8-4.2,9-5.6
				C235.8,212.1,239.7,205.7,245.6,201.3 M203.8,226.2c-4.3,5.4-7,11.9-9,18.4c5-2.9,9.7-6.5,13.4-10.9c1.9-2.3,3.7-4.9,4.3-7.9
				c0.2-1.4,0.4-3.4-1.3-4C208.1,221.6,205.7,224,203.8,226.2z"/>
			<path class="st0" d="M354.8,198.9c2.4-0.6,5,1.3,5,3.8c0.6,4.6-4.7,9.6-9.1,7C346.9,206.3,350.2,199.6,354.8,198.9z"/>
			<path class="st0" d="M185,201.3c3.5-1,7.1-1.4,10.6-2.2c-6.3,15.7-14,30.7-20.2,46.5c-3.1,8.5-7.4,17.5-5.6,26.8
				c-4.7-0.3-8.7-4-9.7-8.6c-0.8-3.1-0.2-6.2,0.4-9.3c-5.2,5.4-11.6,10.1-19,11.9c-4.4,0.8-9.7,0.9-13-2.6c-3.4-3.8-3.1-9.4-2.2-14
				c1.8-9,6.6-17.4,13-23.9c5-4.8,11.5-8.7,18.6-9.1c2.8-0.2,6.5,0.7,7.4,3.8c0.9,4.3-1.4,8.4-4,11.7c-5.9,7.3-14.3,12-22.4,16.4
				c-1,2.8-1.2,6-0.8,9c0.2,2.1,2.4,3.4,4.4,3.2c5.8-0.4,10.5-4.2,14.6-8.1c3.6-3.7,7.2-7.7,9.2-12.6c5.2-12,10.5-24,16-35.8
				C182.7,203.2,183.5,201.7,185,201.3 M148.9,225.6c-4.6,5.5-7.5,12.2-9.5,19.1c6.6-4.2,13.3-9.1,16.8-16.3c0.7-2,1.9-4.8-0.1-6.4
				C153.3,221.3,150.8,223.6,148.9,225.6z"/>
			<path class="st0" d="M367,222.7c5.8-4.2,13.2-6.3,20.3-4.8c1.9,0.4,3.9,1.4,4.5,3.4c0.7,2.1-0.3,4.3-1.7,5.8
				c-2.6,2.8-5.9,4.9-9.7,5.5c1.6-2.8,4.3-5.5,3.8-9c-0.4-2-3-2.2-4.6-1.6c-3.8,1.3-6.4,4.6-8.7,7.7c-5,7.1-8.6,15.5-9.4,24.2
				c-0.3,2.4,0,5.8,2.8,6.7c3.7,0.7,7.1-1.3,10-3.4c3.6-2.9,7.3-6.1,8.9-10.5c4.6-10.7,11.9-21.2,22.9-25.9
				c7.8-3.2,17.2-4.3,25.1-0.6c-5,10.7-9.5,21.5-13,32.8c-1.7,6.4-3.2,13-2,19.6c-3.3-0.3-6.8-1.9-8.3-5c-2.2-4-1-8.7-0.1-12.9
				c-3.9,5-8.6,10.1-14.9,12c-3.4,1.1-7.7,1-10.3-1.8c-2-2-2-5-2.2-7.7c-4.4,4.5-9.9,8.4-16.2,9.7c-3.8,0.8-8.2,0.6-11.4-1.8
				c-1.9-1.4-2.7-3.7-3.6-5.7c-4.5,4-9.9,7.6-16.1,7.8c-3.2,0.2-7-1.2-8-4.6c-1-4,0.5-8,1.7-11.8c3.1-8.5,7.2-16.5,11-24.7
				c1.1-2.1,1.8-5.1,4.5-5.8c3.6-1,7.4-1.4,11.1-2.1c-4.4,9.2-8.8,18.3-12.7,27.6c-1.6,3.9-3.4,7.8-4,12c-0.5,2,1.7,3.2,3.4,2.6
				c3-0.8,5.5-3,7.7-5.1c2.3-2,1.9-5.4,2.9-8.1C353.4,237.6,359,228.7,367,222.7 M404.4,229.9c-5.8,7.2-10.2,15.6-12.1,24.6
				c-0.3,1.8-1,5.5,1.9,5.4c4-0.5,7-3.8,9.4-6.8c7.2-9.3,10.7-20.7,16-31C413.4,221.4,408,225.3,404.4,229.9z"/>
			<path class="st0" d="M60.1,303.3c48.6-1.2,97.2-1.3,145.8-1.7c64.8-0.2,129.7,0.1,194.5,0.8c18.6,0.4,37.2,0.4,55.8,1.4
				c1.3,0.1,2.6,0.3,3.9,0.5c-4.1,0.9-8.3,0.8-12.5,1c-40,1.3-80.1,1.4-120.1,1.7c-4.9,0.5-9.8,0.3-14.7,0.3
				c-44.7,0.3-89.4,0.2-134.1,0c-5.7-0.6-11.4-0.3-17.1-0.4c-35.4-0.3-70.8-0.5-106.2-1.6c-4.6-0.2-9.2,0-13.7-1.1
				C47.8,303.5,54,303.7,60.1,303.3z"/>
		</g>
	</g>
</g>
</svg>
