<?xml version="1.0" encoding="utf-8"?>
<!-- Generator: Adobe Illustrator 22.0.1, SVG Export Plug-In . SVG Version: 6.00 Build 0)  -->
<svg version="1.1" id="Layer_1" xmlns="http://www.w3.org/2000/svg" xmlns:xlink="http://www.w3.org/1999/xlink" x="0px" y="0px"
	 viewBox="0 0 500 500" style="enable-background:new 0 0 500 500;" xml:space="preserve">
<style type="text/css">
	.st0{fill-rule:evenodd;clip-rule:evenodd;fill:#606060;}
	.st1{fill-rule:evenodd;clip-rule:evenodd;fill:#D4D4D4;}
</style>
<g>
	<path class="st0" d="M184.8,223.4l-0.1-0.2v-0.3l-0.2-0.2l-0.1-0.2l-0.2-0.1l-0.2-0.2h-0.3l-0.1-0.1h-5.7l-0.1,0.1h-0.2l-0.3,0.2
		l-0.2,0.1l-0.1,0.2l-0.2,0.2v0.3l-0.1,0.2l-0.1,0.4l-0.3,1.2l-0.5,1.8l-0.7,2.4l-0.8,2.8l-0.9,3.1l-0.9,3.4l-1,3.5l-1,3.5l-1,3.4
		l-0.9,3.2l-0.8,2.9l-0.7,2.6l-0.5,2l-0.4,1.3l-0.2,0.7l-0.2-1l-0.4-1.5l-0.6-2.2l-0.7-2.6l-0.8-3l-0.9-3.2l-0.9-3.4l-1-3.4
		l-0.9-3.5l-1-3.3l-0.8-3l-0.8-2.7l-0.6-2.3l-0.5-1.8l-0.3-1.1l-0.1-0.4h-0.1l-0.1-0.2l-0.1-0.2l-0.2-0.2l-0.1-0.2l-0.2-0.1
		l-0.2-0.1h-0.2l-0.3-0.1h-5.3l-0.1,0.1H148l-0.2,0.2l-0.3,0.1l-0.2,0.4l-0.1,0.3l-0.1,0.2l0.4,1.2v0.1l0.1,0.2v0.1l0.1,0.2
		l13.2,45.5l0.1,0.3l0.1,0.2v0.1l0.2,0.2h0.4l0.3,0.1h7.6l0.3-0.1h0.2l0.2-0.1l0.2-0.2l0.1-0.2l0.1-0.3l13.6-45.6v-0.2l0.1-0.3
		 M309.7,251.6l0.1-0.9l0.2-1.6l0.2-0.7l0.1-0.4l0.1-0.3l0.2-0.4l0.1-0.4l0.2-0.3l0.2-0.3l0.2-0.3l0.2-0.3l0.2-0.3l0.3-0.3l0.2-0.2
		l0.3-0.3l0.3-0.2l0.4-0.2l0.3-0.2l0.4-0.2l0.4-0.2l0.4-0.1l0.5-0.1l0.5-0.1l0.5-0.1l0.5-0.1h2.7l0.4,0.1l0.5,0.1l0.4,0.1l0.3,0.1
		l0.4,0.1l0.3,0.1l0.3,0.2l0.3,0.2l0.3,0.2l0.3,0.2l0.2,0.2l0.2,0.2l0.2,0.3l0.2,0.3l0.1,0.3l0.2,0.3l0.1,0.3l0.1,0.3l0.1,0.4
		l0.1,0.4l0.1,0.3l0.1,0.9l0.2,0.9v2l0.1,0.2h-15.3V251.6z M302.2,254.7v2.6l0.1,0.6l0.1,0.7v0.7l0.1,0.7l0.2,0.7l0.1,0.8l0.2,0.7
		l0.2,0.7l0.3,0.8l0.3,0.7l0.3,0.8l0.4,0.7l0.5,0.7l0.4,0.7l0.6,0.7l0.6,0.6l0.7,0.6l0.7,0.5l0.8,0.6l0.8,0.4l1,0.5l1,0.3l1.1,0.3
		l1.1,0.3l1.3,0.2l1.3,0.1h3.1l1.6-0.1h0.7l0.8-0.1h0.7l0.7-0.1l1.4-0.2l0.6-0.1l0.7-0.1l0.7-0.2l0.7-0.2l0.8-0.2l0.7-0.2l0.2-0.1
		h0.2l0.1-0.2l0.1-0.1l0.1-0.2v-0.1l0.1-0.2v-4l-0.1-0.2l-0.1-0.1v-0.1l-0.1-0.1l-0.2-0.2h-0.1l-0.1-0.1h-0.2l-0.1-0.1h-0.4
		l-0.3,0.1l-1.3,0.2l-1.3,0.2l-1.2,0.2l-1.3,0.1l-1.3,0.1l-1.4,0.1h-4.2l-0.6-0.1h-0.5l-0.4-0.2l-0.5-0.1l-0.8-0.2l-0.4-0.2
		l-0.4-0.2l-0.3-0.2l-0.3-0.2l-0.3-0.3l-0.3-0.2l-0.2-0.3l-0.2-0.2l-0.3-0.3l-0.2-0.3l-0.1-0.3l-0.2-0.3l-0.1-0.3l-0.2-0.4l-0.1-0.3
		l-0.1-0.4l-0.2-0.7l-0.2-0.8l-0.1-0.7l-0.1-0.8v-0.2h21.5l0.3-0.1h0.2l0.2-0.1l0.1-0.2l0.2-0.2l0.1-0.2l0.1-0.2v-3.9l-0.1-1.6
		l-0.1-0.8v-0.8l-0.1-0.7l-0.1-0.8l-0.1-0.8l-0.2-0.8l-0.1-0.7l-0.2-0.7l-0.3-0.7l-0.2-0.7l-0.4-0.7l-0.3-0.6l-0.4-0.7l-0.4-0.6
		l-0.4-0.5l-0.6-0.5l-0.5-0.5l-0.6-0.5l-0.7-0.4l-0.7-0.4l-0.7-0.4l-0.8-0.3l-0.9-0.3l-1-0.2l-1-0.2l-1.1-0.1l-1.1-0.1h-2.6
		l-1.3,0.1L314,237l-1.1,0.3l-1.1,0.3l-1,0.3l-1,0.5l-0.8,0.4l-0.8,0.6l-0.7,0.5l-0.7,0.6l-0.6,0.6l-0.6,0.7l-0.4,0.7l-0.5,0.7
		l-0.4,0.7l-0.3,0.8l-0.3,0.7l-0.3,0.8l-0.2,0.7l-0.2,0.7l-0.1,0.8l-0.2,0.7l-0.1,0.7v0.7l-0.1,0.7l-0.1,0.6v1.7V254.7z M347,223.2
		V223l-0.1-0.2l-0.1-0.2l-0.1-0.2l-0.4-0.2h-0.2l-0.3-0.1h-4.5l-0.3,0.1h-0.2l-0.3,0.1l-0.1,0.1l-0.2,0.2l-0.2,0.4v47.9l0.1,0.2
		l0.1,0.3l0.2,0.1l0.1,0.2l0.3,0.1l0.2,0.1h5.1l0.2-0.1l0.2-0.1l0.2-0.2l0.1-0.1l0.1-0.3l0.1-0.2v-0.2V223.2z M198.5,238v-0.2
		l-0.1-0.2l-0.1-0.2l-0.2-0.2l-0.2-0.2l-0.2-0.1h-0.2l-0.3-0.1h-4.7l-0.3,0.1h-0.2l-0.3,0.1l-0.1,0.2l-0.2,0.2l-0.1,0.2l-0.1,0.2
		v33.1l0.1,0.2l0.1,0.3l0.2,0.1l0.1,0.2l0.3,0.1l0.2,0.1h5.4l0.4-0.2l0.2-0.2l0.2-0.1l0.1-0.3l0.1-0.2v-0.2V238z M190.5,226v0.4
		l0.1,0.4l0.1,0.3l0.1,0.4l0.2,0.3l0.2,0.4l0.8,0.8l0.4,0.2l0.3,0.2l0.4,0.1l0.4,0.2l0.4,0.1h1.7l0.4-0.1l0.4-0.2l0.4-0.1l0.3-0.2
		l0.3-0.2l0.3-0.3l0.3-0.2l0.2-0.3l0.3-0.4l0.1-0.3l0.2-0.4l0.1-0.3v-1.6l-0.1-0.4l-0.2-0.4l-0.1-0.3l-0.3-0.3l-0.2-0.3l-0.3-0.3
		l-0.3-0.3l-0.3-0.2l-0.3-0.2l-0.4-0.2l-0.4-0.1l-0.4-0.1h-1.7l-0.4,0.1l-0.4,0.1l-0.4,0.2l-0.3,0.2l-0.4,0.2l-0.3,0.3l-0.2,0.3
		l-0.3,0.3l-0.2,0.3l-0.2,0.3l-0.1,0.4l-0.1,0.4l-0.1,0.4V226z M465.8,236.1h-0.6l-0.6,0.1H464l-0.6,0.1l-0.6,0.1l-0.6,0.1l-0.6,0.2
		l-0.6,0.1l-0.6,0.2l-0.6,0.2l-0.6,0.2l-0.6,0.2l-0.6,0.3l-1.8,0.9l-1.3,0.9l-0.4-0.4l-0.4-0.4l-0.5-0.4l-0.5-0.3l-0.6-0.4l-0.6-0.3
		l-0.6-0.2l-0.6-0.3l-0.7-0.2l-0.7-0.1l-0.7-0.2l-0.8-0.1l-0.8-0.1l-0.8-0.1l-0.9-0.1h-1.5l-0.6,0.1h-0.6l-0.6,0.1l-0.6,0.1
		l-0.6,0.1l-0.6,0.2l-0.6,0.1l-0.6,0.2l-0.5,0.2l-0.6,0.2l-0.6,0.2l-0.6,0.3l-1.8,0.9l-0.2,0.2l-0.6-1.5l-0.1-0.1l-0.1-0.2l-0.2-0.1
		l-0.1-0.1l-0.2-0.1l-0.2-0.1h-3.3l-0.3,0.1L429,237l-0.2,0.1l-0.2,0.2l-0.1,0.2l-0.1,0.2v33.2l0.1,0.2l0.1,0.3l0.2,0.1l0.2,0.2
		l0.2,0.1l0.3,0.1h5.4l0.3-0.1l0.2-0.1l0.2-0.2l0.1-0.1l0.2-0.3v-26.9l1-0.5l0.8-0.3l0.4-0.1l0.4-0.1l0.4-0.2l0.5-0.1l0.5-0.1h0.5
		l0.5-0.1l0.6-0.1h0.6l0.6-0.1h2.3l0.7,0.1l0.7,0.1l0.6,0.1l0.3,0.1l0.2,0.1l0.3,0.1l0.2,0.1l0.6,0.3l0.1,0.2l0.2,0.1l0.1,0.2
		l0.1,0.1l0.1,0.2l0.2,0.4l0.2,0.3l0.1,0.4v0.5l0.1,0.4v24.5l0.1,0.2l0.1,0.3l0.2,0.1l0.2,0.2l0.4,0.2h5.6l0.3-0.1l0.2-0.1l0.2-0.2
		l0.1-0.1l0.1-0.3l0.1-0.2v-26.6l0.2-0.1l0.7-0.4l0.8-0.3l0.4-0.1l0.5-0.1l0.4-0.2l0.5-0.1l0.4-0.1h0.6l0.5-0.1l0.6-0.1h0.6l0.6-0.1
		h2.2l0.8,0.1l0.7,0.1l0.6,0.1l0.2,0.1l0.3,0.1l0.2,0.1l0.3,0.1l0.4,0.2l0.4,0.4l0.2,0.2l0.1,0.1l0.1,0.2l0.2,0.4l0.1,0.3l0.1,0.4
		l0.1,0.5v24.7l0.1,0.2l0.1,0.2l0.1,0.3l0.1,0.1l0.2,0.2l0.2,0.1l0.3,0.1h5.4l0.2-0.1l0.2-0.1l0.2-0.2l0.2-0.1l0.1-0.3v-0.2l0.1-0.2
		v-24.2l-0.1-0.6v-0.6l-0.1-0.7l-0.2-0.5l-0.1-0.6l-0.2-0.5l-0.2-0.6l-0.2-0.5l-0.2-0.4l-0.3-0.5l-0.3-0.4l-0.3-0.4l-0.8-0.8
		l-0.4-0.4l-0.4-0.3l-0.4-0.3l-0.5-0.3l-0.5-0.3l-0.6-0.2l-0.5-0.3L472,237l-0.6-0.2l-0.6-0.1l-0.6-0.2l-0.7-0.1l-0.7-0.1l-0.7-0.1
		h-0.8l-0.7-0.1H465.8z M245,236.1h-0.6l-0.6,0.1h-0.6l-0.5,0.1l-0.7,0.1l-0.6,0.1l-0.6,0.2l-0.6,0.1l-0.6,0.2l-1.2,0.4l-0.6,0.2
		l-1.2,0.6l-0.6,0.3l-0.6,0.3l-1.3,0.9l-0.4-0.4l-0.4-0.4l-0.5-0.4l-0.5-0.3l-0.6-0.4l-0.6-0.3l-0.6-0.2l-0.6-0.3l-0.7-0.2l-0.7-0.1
		l-0.7-0.2l-0.8-0.1l-0.8-0.1l-0.8-0.1l-0.9-0.1h-1.5l-0.6,0.1h-0.6l-0.6,0.1l-0.6,0.1l-0.6,0.1l-0.6,0.2l-0.5,0.1l-0.6,0.2
		l-1.2,0.4l-0.6,0.2l-1.2,0.6l-0.6,0.3l-0.6,0.3l-0.3,0.2l-0.5-1.5l-0.1-0.1l-0.1-0.2l-0.1-0.1l-0.2-0.1l-0.2-0.1l-0.1-0.1h-3.4
		l-0.3,0.1l-0.2,0.1l-0.2,0.1l-0.2,0.4l-0.1,0.2v33.2l0.1,0.2l0.1,0.3l0.3,0.3l0.2,0.1l0.3,0.1h5.5l0.2-0.1l0.2-0.1l0.2-0.2l0.2-0.1
		l0.1-0.3l0.1-0.2v-26.6l0.2-0.1l0.7-0.4l0.8-0.3l0.8-0.2l0.5-0.2l0.4-0.1l0.5-0.1h0.5l0.5-0.1l0.6-0.1h0.6l0.6-0.1h2.3l0.7,0.1
		l0.7,0.1l0.6,0.1l0.3,0.1l0.3,0.1l0.2,0.1l0.2,0.1l0.4,0.2l0.2,0.1l0.6,0.6l0.1,0.2l0.2,0.4l0.1,0.3l0.1,0.4l0.1,0.5v24.7l0.1,0.2
		v0.2l0.2,0.3l0.3,0.3l0.2,0.1l0.3,0.1h5.4l0.3-0.1l0.2-0.1l0.2-0.2l0.1-0.1l0.2-0.3v-0.2l0.1-0.2v-26.4l0.1-0.1l0.8-0.4l0.7-0.3
		l0.4-0.1l0.5-0.1l0.4-0.2l0.5-0.1l0.5-0.1h0.5l0.5-0.1l0.6-0.1h0.6l0.6-0.1h2.3l0.8,0.1l0.6,0.1l0.6,0.1l0.3,0.1l0.2,0.1l0.3,0.1
		l0.2,0.1l0.2,0.1l0.2,0.1l0.2,0.1l0.1,0.2l0.2,0.1l0.1,0.2l0.2,0.1l0.1,0.2l0.1,0.4l0.2,0.3l0.1,0.4l0.1,0.5v24.9l0.1,0.2l0.1,0.3
		l0.2,0.1l0.2,0.2l0.2,0.1l0.2,0.1h5.5l0.2-0.1l0.3-0.1l0.1-0.2l0.2-0.1l0.1-0.3l0.1-0.2v-25l-0.1-0.6l-0.1-0.7l-0.1-0.5l-0.1-0.6
		l-0.2-0.5l-0.2-0.6l-0.2-0.5l-0.3-0.4l-0.3-0.5l-0.3-0.4l-0.3-0.4l-0.3-0.4l-0.8-0.8l-0.4-0.3l-0.5-0.3l-0.5-0.3l-0.5-0.3l-0.5-0.2
		l-0.6-0.3l-0.5-0.2l-0.6-0.2l-0.6-0.1l-0.7-0.2l-0.6-0.1l-0.8-0.1l-0.7-0.1h-0.7l-0.8-0.1H245z M281.6,242.4h-2.1l-1.1,0.2l-1,0.1
		l-1,0.2l-0.4,0.2l-0.5,0.1l-0.4,0.2l-0.5,0.1l-0.4,0.2l-0.4,0.2v20.9l1.1,0.4l1,0.4l0.9,0.2l0.9,0.3l0.8,0.1l0.7,0.1l0.8,0.1h1.8
		l0.5-0.1h0.4l0.5-0.1l0.8-0.2l0.4-0.2l0.4-0.1l0.3-0.2l0.4-0.2l0.3-0.3l0.3-0.2l0.3-0.3l0.3-0.3l0.2-0.4l0.3-0.3l0.4-0.8l0.2-0.5
		l0.2-0.4l0.2-0.5l0.1-0.6l0.1-0.6l0.2-0.6v-0.6l0.1-0.7l0.1-0.6v-0.8l0.1-0.8v-3.8l-0.1-0.7v-0.6l-0.4-2.4l-0.2-0.5l-0.1-0.5
		l-0.2-0.5l-0.2-0.4l-0.2-0.4l-0.2-0.4l-0.2-0.4l-0.2-0.4l-0.3-0.3l-0.2-0.3l-0.3-0.3l-0.3-0.2l-0.3-0.3l-0.3-0.2l-0.4-0.2l-0.3-0.1
		l-0.4-0.2l-0.4-0.1l-0.4-0.1l-0.4-0.1H282H281.6z M282.3,272.2h-1.1l-0.5-0.1H280l-1.1-0.2l-1.1-0.2l-1.1-0.2l-1-0.3l-1-0.3l-1-0.3
		v14.8l-0.1,0.1v0.2l-0.2,0.1l-0.1,0.1h-0.2l-0.3,0.1h-5.7l-0.3,0.1l-0.2-0.1h-0.1l-0.2-0.2v-0.1l-0.1-0.2v-45.4l0.1-1.2v-1.5
		l0.1-0.2l0.1-0.1l0.2-0.1l0.1-0.1l0.1-0.1h3.6l0.2,0.1h0.1l0.1,0.1l0.2,0.2l0.1,0.2l0.4,0.7l0.4,0.9l0.7-0.3l0.7-0.3l0.7-0.3
		l1.4-0.4l0.7-0.2l0.7-0.1l0.6-0.1l1.4-0.2l0.6-0.1l0.7-0.1h1.3l1.3-0.1l0.7,0.1h0.8l0.7,0.1l0.6,0.1l0.7,0.2l0.6,0.2l0.7,0.2
		l0.6,0.2l0.6,0.3l0.5,0.3l0.5,0.4l0.6,0.4l0.5,0.4l0.9,0.9l0.4,0.5l0.4,0.6l0.4,0.6l0.3,0.6l0.4,0.6l0.3,0.7l0.3,0.7l0.2,0.8
		l0.3,0.8l0.2,0.8l0.1,0.8l0.2,0.9l0.1,0.9l0.1,0.9l0.1,1v4.2l-0.1,1l-0.1,1l-0.1,1l-0.2,0.9l-0.2,0.9l-0.2,0.9l-0.2,0.8l-0.3,0.8
		l-0.3,0.7l-0.4,0.7l-0.3,0.7l-0.4,0.7l-0.4,0.6l-0.4,0.6l-0.5,0.6l-0.4,0.5l-0.5,0.5l-0.5,0.4l-1.2,0.8l-0.5,0.3l-0.7,0.3l-0.6,0.3
		l-0.6,0.2l-0.7,0.3l-1.4,0.2l-0.8,0.1l-0.7,0.1H282.3z M406.8,242.6h-1l-0.5,0.1l-0.4,0.1l-0.5,0.1L404,243l-0.5,0.2l-0.4,0.1
		l-0.4,0.2l-0.4,0.2l-0.4,0.3l-0.4,0.3l-0.3,0.2l-0.3,0.4l-0.4,0.3l-0.3,0.4l-0.3,0.3l-0.3,0.5l-0.2,0.4l-0.3,0.5l-0.2,0.4l-0.2,0.5
		l-0.2,0.6l-0.2,0.5l-0.2,1.2l-0.2,0.7l-0.1,0.6v0.7l-0.1,0.7v3.8l0.1,0.7l0.1,0.7l0.1,0.6l0.2,0.6l0.1,0.7l0.2,0.5l0.2,0.6l0.2,0.5
		l0.2,0.5l0.3,0.4l0.2,0.5l0.3,0.4l0.3,0.4l0.3,0.4l0.3,0.3l0.4,0.3l0.3,0.3l0.4,0.3l0.4,0.2l0.3,0.2l0.5,0.2l0.4,0.2l0.4,0.1
		l0.5,0.2l0.4,0.1h0.5l0.5,0.1h2l0.4-0.1h0.5l0.4-0.1l0.5-0.2l0.4-0.1l1.6-0.8l0.4-0.3l0.3-0.3l0.3-0.3l0.3-0.3l0.3-0.4l0.3-0.4
		l0.3-0.4l0.2-0.5l0.3-0.4l0.4-1l0.1-0.6l0.2-0.5l0.2-0.7l0.2-1.2l0.1-0.7l0.1-0.7v-4.5l-0.1-0.7l-0.3-1.8l-0.2-0.6l-0.2-0.6
		l-0.2-0.5l-0.4-1l-0.2-0.5l-0.3-0.4l-0.2-0.4l-0.3-0.4l-0.3-0.4l-0.3-0.3l-0.3-0.3l-0.4-0.3l-0.3-0.3l-0.4-0.2l-0.4-0.3l-0.4-0.1
		l-0.8-0.4l-0.5-0.1l-0.4-0.1l-0.5-0.1l-0.4-0.1h-0.5H406.8z M406.5,273h-1l-0.9-0.1l-1-0.1l-0.8-0.1l-0.9-0.2l-0.8-0.2l-0.8-0.3
		l-0.8-0.2l-0.7-0.3l-0.7-0.4l-0.7-0.4l-0.7-0.4l-0.6-0.4l-0.5-0.5l-0.6-0.6l-0.5-0.5l-0.5-0.6l-0.5-0.6l-0.8-1.4l-0.3-0.7l-0.4-0.7
		l-0.2-0.8l-0.3-0.8l-0.3-0.9l-0.2-0.8l-0.1-0.9l-0.2-1l-0.1-0.9l-0.1-1v-4.1l0.1-1l0.1-1l0.2-0.9l0.1-0.9l0.2-0.9l0.3-0.8l0.3-0.8
		l0.3-0.8l0.3-0.8l0.3-0.7l0.4-0.7l0.5-0.6l0.5-0.7l0.4-0.6l0.6-0.5l0.5-0.6l0.6-0.5l0.6-0.4l0.7-0.4l0.7-0.4l0.7-0.4l0.8-0.3
		l0.8-0.3l0.8-0.3l0.8-0.2l0.9-0.1l1-0.2l0.9-0.1h1l1-0.1l1,0.1h1l0.9,0.1l0.9,0.2l0.9,0.1l0.8,0.2l0.8,0.3l0.8,0.3l0.7,0.3l0.7,0.3
		l0.7,0.4l0.6,0.4l0.6,0.5l0.6,0.5l0.6,0.5l0.5,0.6l0.5,0.5l0.4,0.7l0.4,0.6l0.8,1.4l0.3,0.8l0.3,0.7l0.3,0.9l0.2,0.8l0.2,0.9
		l0.2,0.9l0.1,0.9l0.1,1l0.1,0.9l0.1,1.1v2l-0.1,1l-0.1,1l-0.1,0.9l-0.1,1l-0.2,0.9l-0.2,0.8l-0.3,0.9l-0.2,0.8l-0.3,0.8l-0.4,0.7
		l-0.4,0.8l-0.4,0.6l-0.4,0.7l-0.5,0.6l-0.5,0.6l-0.5,0.6l-0.6,0.5l-0.6,0.6l-0.6,0.4l-0.6,0.4l-0.7,0.4l-0.8,0.4l-0.7,0.3L413,272
		l-0.8,0.3l-0.9,0.2l-0.8,0.2l-0.9,0.1l-1,0.1l-1,0.1H406.5z M387.8,268.9l-0.8,0.6l-0.9,0.5l-0.8,0.4l-0.8,0.5l-0.8,0.3l-0.8,0.3
		l-0.7,0.3l-0.8,0.3l-0.8,0.2l-0.8,0.2l-0.7,0.1l-0.8,0.1l-0.8,0.1l-0.8,0.1h-2.9l-1.2-0.1l-1.1-0.1l-1.1-0.2l-1.1-0.2l-1-0.3
		l-1-0.4l-1-0.4l-0.9-0.4l-0.9-0.5l-0.8-0.5l-0.9-0.7l-0.7-0.6l-0.7-0.7l-0.7-0.7l-0.7-0.8l-0.6-0.9l-0.6-0.9l-0.5-0.9l-1-2
		l-0.4-1.1l-0.4-1.2l-0.3-1.1l-0.6-2.6l-0.2-1.3l-0.2-1.4l-0.1-1.4l-0.2-3v-2.5l0.1-1.1v-1.1l0.1-1l0.1-1.1l0.2-1.1l0.1-1l0.2-1.1
		l0.3-1l0.3-1.1l0.3-1l0.3-1l0.4-1l0.4-1l0.5-0.9l0.6-1l0.5-0.9l0.6-0.8l0.7-0.8l0.7-0.8l1.6-1.4l0.9-0.7l0.9-0.5l1-0.6l1.1-0.4
		l1.1-0.4l1.2-0.4l1.2-0.2l1.4-0.2l1.3-0.2h2.4l0.8,0.1l1.8,0.2l0.8,0.2l0.9,0.1l0.9,0.3l0.8,0.2l0.8,0.3l0.9,0.3l0.8,0.4l0.8,0.4
		l0.7,0.4l0.8,0.4l0.7,0.5l0.7,0.5l0.3,0.2l0.2,0.2l0.1,0.2l0.1,0.1v0.2l0.1,0.1v0.2l-0.1,0.1v0.1l-0.1,0.3l-0.2,0.3l-2.7,3.6
		l-0.1,0.1l-0.1,0.1l-0.1,0.1h-0.8L384,232l-0.3-0.1l-0.2-0.1l-0.9-0.6l-1-0.6l-0.5-0.3l-0.6-0.3l-0.5-0.3l-0.5-0.2l-0.5-0.2
		l-0.6-0.2l-0.5-0.2l-0.6-0.1l-1.2-0.2l-0.6-0.1h-1.3l-0.7,0.1l-1.2,0.2l-0.6,0.2l-0.6,0.2l-0.6,0.2l-0.6,0.2l-0.5,0.3l-0.5,0.4
		l-0.6,0.3l-0.4,0.4l-0.5,0.5l-0.5,0.5l-0.4,0.5l-0.4,0.5l-0.5,0.6l-0.3,0.6l-0.4,0.6l-0.4,0.7l-0.3,0.7l-0.2,0.8l-0.3,0.7l-0.3,0.9
		l-0.2,0.8l-0.2,0.9l-0.1,0.9l-0.1,1l-0.2,1v1l-0.1,1.1v2.3l0.1,1.3v1.1l0.2,1.1l0.1,1.1l0.2,1.1l0.2,1l0.2,0.9l0.3,0.9l0.3,0.9
		l0.6,1.6l0.4,0.7l0.4,0.7l0.4,0.7l0.4,0.6l0.5,0.6l0.5,0.5l0.5,0.5l0.5,0.4l0.5,0.5l0.6,0.4l1.2,0.6l0.6,0.3l1.2,0.4l0.7,0.1
		l0.7,0.2l0.6,0.1h2.9l1-0.2l0.5-0.1l0.5-0.1l0.5-0.2l0.4-0.2l0.5-0.1l0.5-0.3l0.5-0.2l0.5-0.3l0.6-0.3l0.5-0.3l0.5-0.4l0.2-0.1
		l0.3-0.2l0.3-0.1l0.2-0.1h0.4l0.1,0.1h0.2l0.2,0.2l0.1,0.2l2.5,3.3l0.2,0.3l0.1,0.3l0.1,0.1v0.5l-0.1,0.1v0.1l-0.1,0.2l-0.2,0.1
		l-0.1,0.1l-0.2,0.1L387.8,268.9z"/>
	<g>
		<path class="st0" d="M128.4,249.8c0,27.7-24.2,50.1-54.1,50.1c-29.9,0-54.1-22.4-54.1-50.1c0-27.7,24.2-50.1,54.1-50.1
			C104.2,199.7,128.4,222.1,128.4,249.8"/>
		<path class="st1" d="M21.9,237.4h104.9c-2.4-8.8-7.4-16.7-14.1-23H36C29.3,220.6,24.3,228.5,21.9,237.4"/>
		<path class="st1" d="M21.8,261.9c2.2,8.2,6.6,15.7,12.6,21.7h79.8c6-6.1,10.4-13.5,12.6-21.7H21.8z"/>
	</g>
</g>
</svg>
