<svg width="64" height="65" viewBox="0 0 64 65" fill="none" xmlns="http://www.w3.org/2000/svg">
<path d="M48.3 62L0 0" transform="translate(9.5 1.29999)" stroke="#AECAD6" stroke-miterlimit="10"/>
<path d="M18.1 36.2C28.0964 36.2 36.2 28.0964 36.2 18.1C36.2 8.10365 28.0964 0 18.1 0C8.10364 0 0 8.10365 0 18.1C0 28.0964 8.10364 36.2 18.1 36.2Z" transform="translate(15.2 14)" fill="white"/>
<path d="M0.200001 14.5C0.800001 12.3 1.1 10 1.1 7.6C1.1 5 0.7 2.4 0 0" transform="translate(58.7 24.9)" stroke="#AECAD6" stroke-miterlimit="10"/>
<path d="M0 1.7C3.9 4.1 8.6 5.5 13.5 5.5C19.5 5.5 25.1 3.4 29.5 0" transform="translate(20.3 53.1)" stroke="#AECAD6" stroke-miterlimit="10"/>
<path d="M33.6 6.8C29 2.6 22.8 0 16 0C10 0 4.4 2.1 0 5.5" transform="translate(17.7 6.59998)" stroke="#AECAD6" stroke-miterlimit="10"/>
<path d="M8.6 0C4.5 3.8 1.5 8.7 0 14.2" transform="translate(3.5 9.79999)" stroke="#AECAD6" stroke-miterlimit="10"/>
<path d="M10.1 0C6.4 1.1 3 3 0 5.3" transform="translate(14.4 2.5)" stroke="#AECAD6" stroke-miterlimit="10"/>
<path d="M0 3.7C1.2 3.8 2.5 3.9 3.8 3.9C9.3 3.9 14.4 2.5 18.9 0" transform="translate(30 60.1)" stroke="#AECAD6" stroke-miterlimit="10"/>
<path d="M6 0H0V6H6V0Z" transform="translate(46.7 49.7)" fill="#F27179"/>
<path d="M0 0V26H16V28H13V30H27V28H24V26H40V0H0Z" transform="translate(13.3 20.4)" fill="#5C8495"/>
<path d="M18 23.3C17.4 23.3 17 22.9 17 22.3C17 21.7 17.4 21.3 18 21.3C18.6 21.3 19 21.7 19 22.3C19 22.9 18.5 23.3 18 23.3ZM36 19H0V0H36V19Z" transform="translate(15.3 22.4)" fill="white"/>
<path d="M0 0V21H14V0H0Z" transform="translate(9.29999 29.4)" fill="#446676"/>
<path d="M10 14H0V0H10V14ZM2 16H0V17H2V16ZM6 16H4V17H6V16ZM10 16H8V17H10V16Z" transform="translate(11.3 31.4)" fill="white"/>
<path d="M0 4.1L4 8L12 0" transform="translate(29.4 27.3)" stroke="#466776" stroke-width="2" stroke-miterlimit="10"/>
</svg>
