<svg width="64" height="64" viewBox="0 0 64 64" fill="none" xmlns="http://www.w3.org/2000/svg">
<path d="M53.9 57.9L0 0" transform="translate(2.40002 1.29999)" stroke="#AECAD6" stroke-miterlimit="10"/>
<path d="M24.5 49C38.031 49 49 38.031 49 24.5C49 10.969 38.031 0 24.5 0C10.969 0 0 10.969 0 24.5C0 38.031 10.969 49 24.5 49Z" transform="translate(6 7.59998)" fill="white"/>
<path d="M1 37.9C4.9 32.8 7.3 26.5 7.3 19.6C7.3 12.1 4.5 5.3 0 0" transform="translate(53.2 12.6)" stroke="#AECAD6" stroke-miterlimit="10"/>
<path d="M0 0C3.2 1.2 6.7 1.8 10.4 1.8C13.9 1.8 17.2 1.2 20.3 0.100002" transform="translate(20.1 60.3)" stroke="#AECAD6" stroke-miterlimit="10"/>
<path d="M28.8 0C12.8 0.6 0 13.8 0 29.9C0 37.3 2.7 44.1 7.1 49.3" transform="translate(0.5 2.19998)" stroke="#AECAD6" stroke-miterlimit="10"/>
<path d="M6 0H0V6H6V0Z" transform="translate(7.20001 7.5)" fill="#F27179"/>
<path d="M6.5 11C5 6.9 2.8 3.2 0 0" transform="translate(56.9 9.09998)" stroke="#AECAD6" stroke-miterlimit="10"/>
<path d="M23.4 11.6V8.9C23.4 4 19.3 0 14.3 0C9.3 0 5.2 4 5.2 8.9V11.6H0V32H28.7V11.6H23.4ZM19.5 11.6H9.1V8.9C9.1 6.2 11.4 3.9 14.3 3.9C17.2 3.9 19.5 6.1 19.5 8.9V11.6Z" transform="translate(16.2 14.6)" fill="#446676"/>
<path d="M28.7 0H0V20.4H28.7V0Z" transform="translate(16.1 26.2)" fill="#5C8495"/>
<path d="M0 0.141423L1.7 2.54142L3.4 0.241422C2.8 0.141422 2.2 0.0414209 1.6 0.0414209C1.1 -0.0585791 0.5 0.0414232 0 0.141423Z" transform="translate(28.8 40.2586)" fill="white"/>
<path d="M4.7 0C3 0 1.5 0.299999 0 0.799999L1.6 3C2.6 2.7 3.6 2.5 4.7 2.5C5.8 2.5 6.9 2.7 7.9 3L9.5 0.799999C7.9 0.299999 6.3 0 4.7 0Z" transform="translate(25.8 35.5)" fill="white"/>
<path d="M7.4 0C4.8 0 2.3 0.6 0 1.6L1.5 3.7C3.3 3 5.3 2.6 7.4 2.6C9.5 2.6 11.5 3 13.3 3.8L14.8 1.7C12.6 0.600001 10 0 7.4 0Z" transform="translate(23.1 31)" fill="white"/>
</svg>
