<svg width="64" height="64" viewBox="0 0 64 64" fill="none" xmlns="http://www.w3.org/2000/svg">
<path d="M53.5 0L0 53.6" transform="translate(5.40002 5.7)" stroke="#AECAD6" stroke-miterlimit="10"/>
<path d="M0 0C2.4 13.1 12.9 23.5 26.1 25.5" transform="translate(1.5 37.6)" stroke="#AECAD6" stroke-miterlimit="10"/>
<path d="M17.4 1C14.9 0.4 12.4 0 9.7 0C6.3 0 3.1 0.5 0 1.5" transform="translate(22.8 0.5)" stroke="#AECAD6" stroke-miterlimit="10"/>
<path d="M2.6 6.9C2 4.5 1.1 2.2 0 0" transform="translate(60.5 17.6)" stroke="#AECAD6" stroke-miterlimit="10"/>
<path d="M0 4.2L4.3 0L8.6 4.2" transform="translate(2.70001 25.3)" stroke="#5C8495" stroke-miterlimit="10"/>
<path d="M0.809612 0C-1.39039 8.5 0.909612 17.9 7.50961 24.5C14.1096 31.1 23.5096 33.4 32.0096 31.2" transform="translate(6.39038 26.1)" stroke="#5C8495" stroke-miterlimit="10" stroke-linecap="square"/>
<path d="M8.6 0L4.3 4.2L0 0" transform="translate(52.7 35.5)" stroke="#5C8495" stroke-miterlimit="10"/>
<path d="M31.2 32.0234C33.4 23.5234 31.1 14.2234 24.5 7.52344C17.9 0.823444 8.5 -1.37656 0 0.823444" transform="translate(25.6 6.87656)" stroke="#5C8495" stroke-miterlimit="10" stroke-linecap="square"/>
<path d="M6 0H0V6H6V0Z" transform="translate(53.0874 11.4099) rotate(90)" fill="#F27179"/>
<path d="M20 40C31.0457 40 40 31.0457 40 20C40 8.9543 31.0457 0 20 0C8.9543 0 0 8.9543 0 20C0 31.0457 8.9543 40 20 40Z" transform="translate(12 12.5)" fill="white"/>
<path d="M20 1C30.5 1 39 9.5 39 20C39 30.5 30.5 39 20 39C9.5 39 1 30.5 1 20C1 9.5 9.5 1 20 1ZM20 0C9 0 0 9 0 20C0 31 9 40 20 40C31 40 40 31 40 20C40 9 31 0 20 0Z" transform="translate(12 12.5)" fill="#AECAD6"/>
<path d="M14 1.1C16.2 2.1 27 7.9 27 20C27 32.1 16.2 37.9 14 38.9C11.8 37.9 1 32.2 1 20C1 7.9 11.8 2.1 14 1.1ZM14 0C14 0 0 5.7 0 20C0 34.3 14 40 14 40C14 40 28 34.3 28 20C28 5.7 14 0 14 0Z" transform="translate(18 12.5)" fill="#AECAD6"/>
<path d="M6 2C7.6 4.9 11 11.9 11 20C11 28.1 7.6 35.2 6 38C4.4 35.1 1 28.1 1 20C1 11.9 4.4 4.8 6 2ZM6 0C6 0 0 9 0 20C0 31 6 40 6 40C6 40 12 31 12 20C12 9 6 0 6 0Z" transform="translate(26 12.5)" fill="#AECAD6"/>
<path d="M0 0C3.3 2.4 7.3 3.8 11.6 3.8C15.9 3.8 19.9 2.4 23.1 0" transform="translate(20.4 16.2)" stroke="#AECAD6" stroke-miterlimit="10"/>
<path d="M0 0C5 2.4 10.9 3.7 17.2 3.7C23.5 3.7 29.4 2.3 34.4 0" transform="translate(14.8 22.3)" stroke="#AECAD6" stroke-miterlimit="10"/>
<path d="M34.4 3.7C29.4 1.4 23.5 0 17.2 0C10.9 0 5 1.4 0 3.7" transform="translate(14.8 39)" stroke="#AECAD6" stroke-miterlimit="10"/>
<path d="M23 3.8C19.8 1.4 15.8 0 11.5 0C7.2 0 3.2 1.4 0 3.8" transform="translate(20.5 45)" stroke="#AECAD6" stroke-miterlimit="10"/>
<path d="M40 0H0" transform="translate(12 32.5)" stroke="#AECAD6" stroke-miterlimit="10"/>
<path d="M8 22C5.4 20.6 0 17 0 14V4.2L8 0L16 4.2V14C16 17 10.5 20.6 8 22Z" transform="translate(24 21.8)" fill="white"/>
<path d="M9 2.2L16 5.9V15.1C16 17.1 12.1 20.2 9 22C4.2 19.3 2 16.4 2 15.1V5.9L9 2.2ZM9 0L0 4.8V15.2C0 19.7 9 24.3 9 24.3C9 24.3 18 19.7 18 15.2V4.7L9 0Z" transform="translate(23 20.6)" fill="#5C8495"/>
<path d="M0 2.5L2.5 4.9L7.4 0" transform="translate(29 30)" stroke="#5C8495" stroke-width="2" stroke-miterlimit="10"/>
</svg>
