<svg id="Layer_1" data-name="Layer 1" xmlns="http://www.w3.org/2000/svg" viewBox="0 0 98.69 111.35"><title>icon-family</title><path d="M60.49,75.09a8,8,0,1,0,8,8,8,8,0,0,0-8-8m10,48.58h-20v-30h20v30Zm-12,20h-8v-20h8v20ZM44.94,120.22l-6.28-3.09,11.5-23.35,6.28,3.09Zm38.52-19.55h-20v-7h20v7Zm-13,43h-8v-20h8v20ZM107.52,32.33A11.5,11.5,0,1,0,119,43.82a11.5,11.5,0,0,0-11.5-11.5m13.94,77.35h-30v-50h30v50Zm-18,34h-12v-34h12v34Zm-19.94-43.1L75.25,97,91.08,60.34l8.26,3.57Zm45.57,0L113.25,63.91l8.26-3.57L137.34,97Zm-7.62,43.1h-12v-34h12v34Z" transform="translate(-38.66 -32.33)"/></svg>