<?xml version="1.0" encoding="utf-8"?>
<!-- Generator: Adobe Illustrator 21.1.0, SVG Export Plug-In . SVG Version: 6.00 Build 0)  -->
<svg version="1.2" baseProfile="tiny" id="core_x5F_protection"
	 xmlns="http://www.w3.org/2000/svg" xmlns:xlink="http://www.w3.org/1999/xlink" x="0px" y="0px" viewBox="0 0 180 150"
	 xml:space="preserve">
<path d="M66.9,91.1c1.3,2.3,5.8,7.9,16.3,15.7c3.8,2.8,7.6,5.3,11.1,7.5c3.5-2.2,7.4-4.7,11.1-7.5c10.5-7.7,15-13.4,16.3-15.7V47.4
	L94.3,34.7L66.9,47.4V91.1z"/>
<path d="M94.3,13.8l46.3,21.5v57.5c0,7.2-9,18.1-24,29.2c-8.5,6.2-17.1,11.3-22.3,14.2c-5.3-2.9-13.9-7.9-22.3-14.2
	c-15-11.1-24-22-24-29.2V35.3L94.3,13.8 M94.3,1L36.4,27.9v64.8c0,27.9,57.9,56.5,57.9,56.5s57.9-28.6,57.9-56.5V27.9L94.3,1z"/>
</svg>
