<svg width="64" height="64" viewBox="0 0 64 64" fill="none" xmlns="http://www.w3.org/2000/svg">
<path d="M26 52C40.3594 52 52 40.3594 52 26C52 11.6406 40.3594 0 26 0C11.6406 0 0 11.6406 0 26C0 40.3594 11.6406 52 26 52Z" transform="translate(8.5 5.20001)" stroke="#AECAD6" stroke-miterlimit="10"/>
<path d="M36 36L0 0" transform="translate(8.79999 4.89999)" stroke="#AECAD6" stroke-miterlimit="10"/>
<path d="M0 53.3L53.4 0" transform="translate(7.90002 4.60001)" stroke="#AECAD6" stroke-miterlimit="10"/>
<path d="M6 0H0V6H6V0Z" transform="translate(50.1 9.60001)" fill="#F27179"/>
<path d="M14.1 14.1L0 0" transform="translate(39.3 34.8)" stroke="#5C8495" stroke-width="2" stroke-miterlimit="10"/>
<path d="M0 0L7.4 7.3" transform="translate(53.1 48.6)" stroke="#5C8495" stroke-width="6" stroke-miterlimit="10" stroke-linecap="round"/>
<path d="M19 38C8.5 38 0 29.5 0 19C0 8.5 8.5 0 19 0C29.5 0 38 8.5 38 19C38 29.5 29.5 38 19 38Z" transform="translate(15.5 12.2)" fill="white"/>
<path d="M20 2C29.9 2 38 10.1 38 20C38 29.9 29.9 38 20 38C10.1 38 2 29.9 2 20C2 10.1 10.1 2 20 2ZM20 0C9 0 0 9 0 20C0 31 9 40 20 40C31 40 40 31 40 20C40 9 31 0 20 0Z" transform="translate(14.5 11.2)" fill="#5C8495"/>
<path d="M15.1 0C9.3 1.3 4.1 4.2 0 8.2" transform="translate(12.5 0.5)" stroke="#AECAD6" stroke-miterlimit="10"/>
<path d="M0 4.3C0.2 4.3 0.3 4.3 0.5 4.3C6.3 4.3 11.7 2.7 16.4 0" transform="translate(34 58.4)" stroke="#AECAD6" stroke-miterlimit="10"/>
<path d="M5.2 0C2.6 3.7 0.8 7.9 0 12.5" transform="translate(3.5 13.2)" stroke="#AECAD6" stroke-miterlimit="10"/>
<path d="M21.9 15.4L25.1 14.3V10.6L21.8 9.5C21.6 9 21.4 8.4 21.1 7.9L22.6 4.8L20 2.2L17 3.8C16.5 3.5 16 3.3 15.4 3.2L14.3 0H10.6L9.5 3.3C9 3.5 8.4 3.7 7.9 4L4.8 2.3L2.2 5L3.8 8.1C3.5 8.6 3.3 9.1 3.2 9.7L0 10.8V14.5L3.3 15.6C3.5 16.1 3.7 16.7 4 17.2L2.5 20.3L5.2 22.9L8 21.3C8.5 21.6 9 21.8 9.6 21.9L10.7 25.1H14.4L15.5 21.8C16 21.6 16.6 21.4 17.1 21.1L20.2 22.6L22.8 19.9L21.2 16.8C21.5 16.5 21.7 16 21.9 15.4ZM12.5 18.6C9.1 18.6 6.4 15.9 6.4 12.6C6.4 9.2 9.1 6.5 12.4 6.5C15.8 6.5 18.5 9.2 18.5 12.5C18.6 15.9 15.9 18.6 12.5 18.6Z" transform="translate(22 18.7)" fill="#5C8495"/>
<path d="M3.5 7C5.433 7 7 5.433 7 3.5C7 1.567 5.433 0 3.5 0C1.567 0 0 1.567 0 3.5C0 5.433 1.567 7 3.5 7Z" transform="translate(30.9771 27.7241) rotate(-0.383157)" fill="#F27179"/>
</svg>
