<svg width="64" height="64" viewBox="0 0 64 64" fill="none" xmlns="http://www.w3.org/2000/svg">
<path d="M57 57L0 0" transform="translate(5.70001 3.2)" stroke="#AECAD6" stroke-miterlimit="10"/>
<path d="M19 38C29.4934 38 38 29.4934 38 19C38 8.50659 29.4934 0 19 0C8.50659 0 0 8.50659 0 19C0 29.4934 8.50659 38 19 38Z" transform="translate(16 12.8)" fill="white"/>
<path d="M4.6 9.2L0 4.6L4.6 0" transform="translate(27.2 54.1)" stroke="#5C8495" stroke-miterlimit="10"/>
<path d="M0 33.5C9.1 35.8 19.2 33.4 26.3 26.3C33.4 19.2 35.8 9.1 33.4 0" transform="translate(28.2 25)" stroke="#5C8495" stroke-miterlimit="10" stroke-linecap="square"/>
<path d="M0 0L4.6 4.5L0 9.1" transform="translate(38.2 0.400002)" stroke="#5C8495" stroke-miterlimit="10"/>
<path d="M34.3016 0.844149C25.2016 -1.45585 15.1016 0.944149 8.00157 8.04415C0.901569 15.1441 -1.49843 25.2442 0.901569 34.3442" transform="translate(7.49841 4.35585)" stroke="#5C8495" stroke-miterlimit="10" stroke-linecap="square"/>
<path d="M6 0H0V6H6V0Z" transform="translate(51 48.8)" fill="#F27179"/>
<path d="M0 28.1C0.1 23.5 1.1 18.9 3.2 14.5C6.3 8 11.3 3.1 17.2 0" transform="translate(1.5 3.2)" stroke="#AECAD6" stroke-miterlimit="10"/>
<path d="M1.4 21.9C0.6 21.9 0 21.3 0 20.5V1.4C0 0.6 0.6 0 1.4 0H34.5C35.3 0 35.9 0.6 35.9 1.4V20.5C35.9 21.3 35.3 21.9 34.5 21.9H1.4Z" transform="translate(17 20.9)" fill="white"/>
<path d="M35.5 2C35.7 2 35.9 2.2 35.9 2.4V21.5C35.9 21.7 35.7 21.9 35.5 21.9H2.4C2.2 21.9 2 21.7 2 21.5V2.5C2 2.3 2.2 2.1 2.4 2.1H35.5V2ZM35.5 0H2.4C1 0 0 1.1 0 2.4V21.5C0 22.9 1.1 23.9 2.4 23.9H35.5C36.9 23.9 37.9 22.8 37.9 21.5V2.5C38 1.1 36.9 0 35.5 0Z" transform="translate(16 19.8)" fill="#5C8495"/>
<path d="M36.4 0H0V7H36.4V0Z" transform="translate(16.8 24.8)" fill="#5C8495"/>
<path d="M6 0H0V2H6V0Z" transform="translate(20 34.8)" fill="#5C8495"/>
<path d="M6 0H0V2H6V0Z" transform="translate(28 34.8)" fill="#5C8495"/>
<path d="M6 0H0V2H6V0Z" transform="translate(36 34.8)" fill="#5C8495"/>
<path d="M6 0H0V2H6V0Z" transform="translate(44 34.8)" fill="#5C8495"/>
</svg>
