<svg width="64" height="65" viewBox="0 0 64 65" fill="none" xmlns="http://www.w3.org/2000/svg">
<path d="M0 53.5L53.5 0" transform="translate(4.59998 5.60001)" stroke="#AECAD6" stroke-miterlimit="10"/>
<path d="M13.2 0C5.3 4.5 0 12.9 0 22.6C0 37 11.6 48.6 26 48.6C40.4 48.6 52 37 52 22.6C52 15.4 49.1 8.9 44.4 4.2" transform="translate(5.29999 9.89999)" stroke="#AECAD6" stroke-miterlimit="10"/>
<path d="M0 9.2C0.1 9.2 0.1 9.2 0 9.2C8.8 9.2 16.7 5.7 22.3 0" transform="translate(31.2 54.8)" stroke="#AECAD6" stroke-miterlimit="10"/>
<path d="M0 0L0.200001 0.200001H0.400002L0 0Z" transform="translate(31.3 32.5)" fill="#AECAD6"/>
<path d="M0 10.2C1.6 7.1 2.8 3.7 3.3 0" transform="translate(59.2 37)" stroke="#AECAD6" stroke-miterlimit="10"/>
<path d="M8.6 16.1C7.4 9.9 4.3 4.3 0 0" transform="translate(53.6 10.2)" stroke="#AECAD6" stroke-miterlimit="10"/>
<path d="M14.1 0C6.9 4.5 1.7 11.9 0 20.4" transform="translate(0.5 5.89999)" stroke="#AECAD6" stroke-miterlimit="10"/>
<path d="M0.5 0L0 0.1L0.5 0.200001V0Z" transform="translate(30.3 32.4)" fill="#AECAD6"/>
<path d="M6 0H0V6H6V0Z" transform="translate(10.3 47.5)" fill="#F27179"/>
<path d="M20 40C31.0457 40 40 31.0457 40 20C40 8.9543 31.0457 0 20 0C8.9543 0 0 8.9543 0 20C0 31.0457 8.9543 40 20 40Z" transform="translate(11.3 12.5)" fill="white"/>
<path d="M10.8 6C13 6 15.1 6.3 17.1 6.8L14.7 9.4C13.5 9.1 12.2 9 10.8 9C9.5 9 8.2 9.1 6.9 9.3L4.5 6.7C6.6 6.3 8.7 6 10.8 6ZM0 1.9L2.2 4.3C5 3.5 7.9 3 10.8 3C13.7 3 16.7 3.5 19.4 4.3L21.6 1.9C18.3 0.7 14.6 0 10.8 0C7 0 3.4 0.7 0 1.9Z" transform="translate(20.5 1)" fill="#5C8495"/>
<path d="M19.8 5.2V19H0V5.2L9.9 0L19.8 5.2Z" transform="translate(21.4 22.2)" fill="white" stroke="#5C8495" stroke-width="2" stroke-miterlimit="10"/>
<path d="M26 6.8L13 0L0 6.8" transform="translate(18.3 22.2)" stroke="#5C8495" stroke-width="2" stroke-miterlimit="10"/>
<path d="M5.1 0H0V11H5.1V0Z" transform="translate(28.8 30.2)" fill="#5C8495"/>
</svg>
