<svg width="64" height="64" viewBox="0 0 64 64" fill="none" xmlns="http://www.w3.org/2000/svg">
<path d="M0 30.5L30.5 0" transform="translate(5.40002 27.6)" stroke="#AECAD6" stroke-miterlimit="10"/>
<path d="M54 54L0 0" transform="translate(5.40002 4.10001)" stroke="#AECAD6" stroke-miterlimit="10"/>
<path d="M22 44C34.1503 44 44 34.1503 44 22C44 9.84974 34.1503 0 22 0C9.84974 0 0 9.84974 0 22C0 34.1503 9.84974 44 22 44Z" transform="translate(10.4 9.10001)" fill="white"/>
<path d="M0 0C0.9 9.2 6.6 16.9 14.6 20.8" transform="translate(6.5 33.7)" stroke="#AECAD6" stroke-miterlimit="10"/>
<path d="M0 20.9C8.1 17.1 13.9 9.3 14.8 0" transform="translate(43.4 33.7)" stroke="#AECAD6" stroke-miterlimit="10"/>
<path d="M32.3 1.6C29.5 0.6 26.5 0 23.3 0C13.1 0.1 4.2 6 0 14.6" transform="translate(9 5)" stroke="#AECAD6" stroke-miterlimit="10"/>
<path d="M0.9 0C0.4 1.6 0.1 3.3 0 5.1" transform="translate(6.40002 23.9)" stroke="#AECAD6" stroke-miterlimit="10"/>
<path d="M0.899998 5.1C0.799998 3.3 0.4 1.6 0 0" transform="translate(57.4 23.9)" stroke="#AECAD6" stroke-miterlimit="10"/>
<path d="M16 47.2C12.6 42.4 0 23.8 0 16C0 7.2 7.2 0 16 0C24.8 0 32 7.2 32 16C32 23.9 19.3 42.4 16 47.2Z" transform="translate(16.4 15)" fill="white"/>
<path d="M17 2C25.3 2 32 8.7 32 17C32 23.4 22.3 38.7 17 46.4C11.7 38.7 2 23.4 2 17C2 8.7 8.7 2 17 2ZM17 0C7.6 0 0 7.6 0 17C0 26.4 17 49.9 17 49.9C17 49.9 34 26.4 34 17C34 7.6 26.3 0 17 0Z" transform="translate(15.4 14.1)" fill="#5C8495"/>
<path d="M11 1C16.5 1 21 5.5 21 11C21 16.5 16.5 21 11 21C5.5 21 1 16.5 1 11C1 5.5 5.4 1 11 1ZM11 0C4.9 0 0 4.9 0 11C0 17.1 4.9 22 11 22C17.1 22 22 17.1 22 11C22 4.9 17 0 11 0Z" transform="translate(21.4 20)" fill="#AECAD6"/>
<path d="M6 0H0V6H6V0Z" transform="translate(11.4 46.1)" fill="#F27179"/>
<path d="M22.6 0C13.8 0 5.8 3.6 0 9.4" transform="translate(11.2 0.5)" stroke="#AECAD6" stroke-miterlimit="10"/>
<path d="M0 6.6C3.6 5 6.9 2.7 9.7 0" transform="translate(45.3 53.7)" stroke="#AECAD6" stroke-miterlimit="10"/>
<path d="M1.5 3C2.32843 3 3 2.32843 3 1.5C3 0.671573 2.32843 0 1.5 0C0.671573 0 0 0.671573 0 1.5C0 2.32843 0.671573 3 1.5 3Z" transform="translate(26.5 27.8)" fill="#5C8495"/>
<path d="M1.5 3C2.32843 3 3 2.32843 3 1.5C3 0.671573 2.32843 0 1.5 0C0.671573 0 0 0.671573 0 1.5C0 2.32843 0.671573 3 1.5 3Z" transform="translate(35.2 27.8)" fill="#5C8495"/>
<path d="M2.9054 2.9C4.5054 2.9 5.8054 1.6 5.8054 0H0.00540359C-0.0945964 1.6 1.2054 2.9 2.9054 2.9Z" transform="translate(29.4946 34.8)" fill="#5C8495"/>
</svg>
