<svg width="64" height="64" viewBox="0 0 64 64" fill="none" xmlns="http://www.w3.org/2000/svg">
<path d="M57 57L0 0" transform="translate(3.5 5.70001)" stroke="#AECAD6" stroke-miterlimit="10"/>
<path d="M21.2 42.4C32.9084 42.4 42.4 32.9084 42.4 21.2C42.4 9.49156 32.9084 0 21.2 0C9.49156 0 0 9.49156 0 21.2C0 32.9084 9.49156 42.4 21.2 42.4Z" transform="translate(10.9 13.8)" fill="white"/>
<path d="M48 0H0V18H48V0Z" transform="translate(8.09998 26)" fill="white"/>
<path d="M48 2V18H2V2H48ZM50 0H0V20H50V0Z" transform="translate(7.09998 25)" fill="#5C8495"/>
<path d="M1.2 8.7L3.6 5.8V5.7L0 4.7L0.700001 2.5L4.2 3.8L4 0H6.4L6.1 3.8L9.7 2.5L10.4 4.7L6.8 5.7V5.8L9.1 8.7L7.2 10.1L5.2 7H5.1L3.1 10L1.2 8.7Z" transform="translate(26.9 29.9)" fill="#456776"/>
<path d="M1.2 8.7L3.6 5.8V5.7L0 4.7L0.699997 2.5L4.2 3.8L4 0H6.4L6.1 3.8L9.7 2.5L10.4 4.7L6.8 5.7V5.8L9.1 8.7L7.2 10.1L5.2 7H5.1L3.1 10L1.2 8.7Z" transform="translate(40.9 29.9)" fill="#456776"/>
<path d="M1.2 8.7L3.6 5.8V5.7L0 4.7L0.700001 2.5L4.2 3.8L4 0H6.4L6.1 3.8L9.7 2.5L10.4 4.7L6.8 5.7V5.8L9.1 8.7L7.2 10.1L5.2 7H5.1L3.1 10L1.2 8.7Z" transform="translate(12.9 29.9)" fill="#456776"/>
<path d="M0 6.5V0H6.5" transform="translate(7.59998 48.5)" stroke="#5C8495" stroke-miterlimit="10"/>
<path d="M0 0C4.8 8.1 13.6 13.5 23.7 13.5C33.8 13.5 42.6 8.1 47.4 0" transform="translate(8.39996 49)" stroke="#5C8495" stroke-miterlimit="10" stroke-linecap="square"/>
<path d="M6.5 0V6.5H0" transform="translate(50.1 15)" stroke="#5C8495" stroke-miterlimit="10"/>
<path d="M47.4 13.5C42.6 5.4 33.8 0 23.7 0C13.6 0 4.8 5.4 0 13.5" transform="translate(8.39996 7.5)" stroke="#5C8495" stroke-miterlimit="10" stroke-linecap="square"/>
<path d="M6 0H0V6H6V0Z" transform="translate(49.1 51)" fill="#F27179"/>
<path d="M28.1 0C23.5 0.1 18.9 1.1 14.5 3.2C8 6.3 3.1 11.3 0 17.2" transform="translate(3.5 1.5)" stroke="#AECAD6" stroke-miterlimit="10"/>
</svg>
