<svg id="Layer_1" data-name="Layer 1" xmlns="http://www.w3.org/2000/svg" viewBox="0 0 124.98 84.84"><title>icon-performance</title><path d="M88,55.58a52.41,52.41,0,0,1,52.49,52.32,50.09,50.09,0,0,1-1.55,12.52H37.06a50.09,50.09,0,0,1-1.55-12.52A52.41,52.41,0,0,1,88,55.58m0-10A62.35,62.35,0,0,0,25.51,107.9a61.28,61.28,0,0,0,4.26,22.52H146.23a61.25,61.25,0,0,0,4.27-22.52A62.35,62.35,0,0,0,88,45.58m27.46,56.84h-28v8h28v-8Zm18,3h-10v5h10v-5Zm-82,0h-10v5h10v-5ZM64,80.7L57,73.63l-3.53,3.54,7.07,7.07Zm58-3.54-3.54-3.54-7.07,7.07,3.54,3.53ZM89.46,62.42h-5v10h5v-10ZM97,106.51a9,9,0,1,0-9,9,9,9,0,0,0,9-9" transform="translate(-25.51 -45.58)"/></svg>