<svg id="Layer_1" data-name="Layer 1" xmlns="http://www.w3.org/2000/svg" viewBox="0 0 71.17 52.67"><title>icon-scan3</title><path d="M24.74,44.36L13.93,55.17l5.3,5.3L30,49.66A13.09,13.09,0,0,1,24.74,44.36Z" transform="translate(-13.93 -23.21)"/><path d="M33.45,48.85a11,11,0,1,1,9.19-19.53A24,24,0,0,1,46.16,27,15,15,0,1,0,33.92,53,24.08,24.08,0,0,1,33.45,48.85Z" transform="translate(-13.93 -23.21)"/><polygon points="53.5 18.75 50.27 16.3 41.88 27.4 36.56 21.26 33.5 23.91 42.09 33.83 53.5 18.75"/><path d="M72.52,58a18.12,18.12,0,0,1-5.3,5.3L79.8,75.88l5.3-5.3Z" transform="translate(-13.93 -23.21)"/><path d="M57.43,33.21a15,15,0,1,1-15,15,15,15,0,0,1,15-15m0-5a20,20,0,1,0,20,20,20,20,0,0,0-20-20h0Z" transform="translate(-13.93 -23.21)"/></svg>