<?xml version="1.0" encoding="utf-8"?>
<!-- Generator: Adobe Illustrator 21.1.0, SVG Export Plug-In . SVG Version: 6.00 Build 0)  -->
<svg version="1.2" baseProfile="tiny" id="privacy_x5F_protection"
	 xmlns="http://www.w3.org/2000/svg" xmlns:xlink="http://www.w3.org/1999/xlink" x="0px" y="0px" viewBox="0 0 180 150"
	 xml:space="preserve">
<g>
	<path d="M78.5,52.6c0,8.3,6.7,15,15,15s15-6.7,15-15c0-8.3-6.7-15-15-15S78.5,44.4,78.5,52.6z"/>
	<path d="M66.3,80.1v21h52.4v-21C118.7,65,66.3,65,66.3,80.1z"/>
	<path d="M93.5,0.1L35.2,27.1v65.2c0,28.1,58.3,56.9,58.3,56.9s58.3-28.7,58.3-56.9V27.1L93.5,0.1z M140.1,92.4
		c0,7.3-9,18.3-24.1,29.4c-8.5,6.3-17.2,11.4-22.5,14.3c-5.3-2.9-14-8-22.5-14.3c-15.1-11.1-24.1-22.1-24.1-29.4V34.6l46.6-21.6
		l46.6,21.6V92.4z"/>
</g>
</svg>
