<svg id="Layer_1" data-name="Layer 1" xmlns="http://www.w3.org/2000/svg" viewBox="0 0 77.58 89.58"><defs><style>.cls-1{fill:#231f20;}</style></defs><title>icon-system-encryption</title><rect class="cls-1" x="0.97" y="58.53" width="22.84" height="3" transform="translate(-28.36 14.24) rotate(-30)"/><rect class="cls-1" x="63.69" y="48.61" width="3" height="22.84" transform="matrix(0.5, -0.87, 0.87, 0.5, -19.4, 86.47)"/><path class="cls-1" d="M38.79,89.58L0,67.19V22.4L38.79,0,77.58,22.4V67.19ZM5,64.3L38.79,83.81,72.58,64.3v-39L38.79,5.77,5,25.28v39Z"/><rect class="cls-1" x="10.89" y="18.13" width="3" height="22.84" transform="translate(-19.4 25.51) rotate(-60)"/><rect class="cls-1" x="53.77" y="28.05" width="22.84" height="3" transform="translate(-6.04 36.56) rotate(-30)"/><rect class="cls-1" x="37.29" y="3.41" width="3" height="22.32"/><rect class="cls-1" x="37.29" y="63.85" width="3" height="22.84"/><path class="cls-1" d="M38.79,66.74l-19-11V33.82l19-11,19,11V55.77Zm-14-13.86,14,8.09,14-8.09V36.7l-14-8.09-14,8.09V52.88Z"/><path class="cls-1" d="M57.9,55.82H19.69L38.79,22.73Zm-33-3H52.7L38.79,28.73Z"/></svg>