<svg width="64" height="64" viewBox="0 0 64 64" fill="none" xmlns="http://www.w3.org/2000/svg">
<path d="M20 40C31.0457 40 40 31.0457 40 20C40 8.9543 31.0457 0 20 0C8.9543 0 0 8.9543 0 20C0 31.0457 8.9543 40 20 40Z" transform="translate(11.5 12.8)" fill="white"/>
<path d="M0 0L51.6 43.2" transform="translate(5.90002 11.2)" stroke="#AECAD6" stroke-miterlimit="10"/>
<path d="M0 0V63.7" transform="translate(31.7)" stroke="#AECAD6" stroke-miterlimit="10"/>
<path d="M0 5.6C3.8 7.9 8.3 9.2 13.2 9.2C21.1 9.2 28.2 5.6 32.9 0" transform="translate(18.3 49.2)" stroke="#AECAD6" stroke-miterlimit="10"/>
<path d="M38 7.9C33.3 3 26.8 0 19.5 0C11.7 0 4.7 3.5 0 9" transform="translate(12 7.2)" stroke="#AECAD6" stroke-miterlimit="10"/>
<path d="M0.300003 16.1C1.1 13.7 1.5 11.1 1.5 8.5C1.5 5.5 1 2.7 0 0" transform="translate(55.6 24.4)" stroke="#5C8495" stroke-miterlimit="10"/>
<path d="M1.3 0C0.5 2.5 0 5.2 0 8C0 10.5 0.4 12.9 1 15.2" transform="translate(5.90002 24.8)" stroke="#5C8495" stroke-miterlimit="10"/>
<path d="M0.200001 10.6C0.600001 9 0.799999 7.4 0.799999 5.7C0.799999 3.7 0.5 1.8 0 0" transform="translate(50.7 27.1)" stroke="#5C8495" stroke-miterlimit="10"/>
<path d="M0.7 0C0.2 1.7 0 3.5 0 5.3C0 6.8 0.2 8.3 0.5 9.7" transform="translate(11.5 27.5)" stroke="#5C8495" stroke-miterlimit="10"/>
<path d="M6 0H0V6H6V0Z" transform="translate(34.5862 3.875) rotate(90)" fill="#F27179"/>
<path d="M11.1 30.4C7.7 28.5 0 23.5 0 19.3V5.9L11.1 0L22.2 5.9V19.3C22.2 23.5 14.5 28.5 11.1 30.4Z" transform="translate(20.4 17.9)" fill="white"/>
<path d="M12 2.1L22.2 7.5V20.3C22.2 23.6 16.3 28 12.1 30.4C11 29.8 9.1 28.7 7.2 27.2C3.8 24.6 1.9 22.2 1.9 20.3V7.5L12 2.1ZM12 0L0 6.4V20.3C0 26.3 12 32.5 12 32.5C12 32.5 24 26.3 24 20.3V6.4L12 0Z" transform="translate(19.5 16.8)" fill="#5C8495"/>
<path d="M0 3.3L3.3 6.5L9.9 0" transform="translate(27.5 29.4)" stroke="#5C8495" stroke-width="1.8462" stroke-miterlimit="10"/>
<path d="M0 22.4C1.3 18.9 2 15.2 2 11.2C2 7.2 1.3 3.5 0 0" transform="translate(61.5 21.1)" stroke="#5C8495" stroke-miterlimit="10"/>
<path d="M1.7 0C0.6 3.2 0 6.7 0 10.2C0 13.7 0.6 17.2 1.7 20.4" transform="translate(0.5 22.1)" stroke="#5C8495" stroke-miterlimit="10"/>
</svg>
