<svg width="64" height="65" viewBox="0 0 64 65" fill="none" xmlns="http://www.w3.org/2000/svg">
<path d="M48.3 62L0 0" transform="translate(9.5 1.29999)" stroke="#AECAD6" stroke-miterlimit="10"/>
<path d="M21 42C32.598 42 42 32.598 42 21C42 9.40202 32.598 0 21 0C9.40202 0 0 9.40202 0 21C0 32.598 9.40202 42 21 42Z" transform="translate(12.3 11.1)" fill="white"/>
<path d="M0.299999 14.7C0.899999 12.5 1.2 10.1 1.2 7.7C1.2 5 0.8 2.4 0 0" transform="translate(59 24.9)" stroke="#AECAD6" stroke-miterlimit="10"/>
<path d="M44.4 7C39.7 2.7 33.4 0 26.5 0C11.9 0.1 0 11.9 0 26.6C0 41.3 11.9 53.1 26.5 53.1C32.7 53.1 38.3 51 42.8 47.5" transform="translate(7.29999 6)" stroke="#AECAD6" stroke-miterlimit="10"/>
<path d="M10.1 0C6.4 1.1 3 3 0 5.3" transform="translate(14.4 2.5)" stroke="#AECAD6" stroke-miterlimit="10"/>
<path d="M8.6 0C4.5 3.8 1.5 8.7 0 14.2" transform="translate(3.5 9.79999)" stroke="#AECAD6" stroke-miterlimit="10"/>
<path d="M0 3.7C1.2 3.8 2.5 3.9 3.8 3.9C9.3 3.9 14.4 2.5 18.9 0" transform="translate(30 60.1)" stroke="#AECAD6" stroke-miterlimit="10"/>
<path d="M6 0H0V6H6V0Z" transform="translate(47 50.1)" fill="#F27179"/>
<path d="M22 5.025C22 -1.675 0 -1.675 0 5.025V8.225C2.8 10.725 6.4 12.325 10.5 12.325C15.1 12.325 19.2 10.325 22.1 7.125V5.025H22Z" transform="translate(22.9 35.275)" fill="#5C8495"/>
<path d="M6.1 12.2C9.46894 12.2 12.2 9.46894 12.2 6.1C12.2 2.73106 9.46894 0 6.1 0C2.73106 0 0 2.73106 0 6.1C0 9.46894 2.73106 12.2 6.1 12.2Z" transform="translate(27.5 20.5)" fill="#5C8495"/>
</svg>
