<svg id="Layer_1" data-name="Layer 1" xmlns="http://www.w3.org/2000/svg" viewBox="0 0 99.65 71.22"><defs><style>.cls-1{fill:#231f20;}</style></defs><title>icon-system-management</title><path class="cls-1" d="M40.45,71.22H31.12L27,61.69l-3.5-1.42-9.61,4.1-6.63-6.5,4-9.6L9.76,44.87,0,41.08V31.9l9.73-4,1.43-3.41L7,15,13.6,8.55l9.82,3.87L26.92,11l3.86-9.55H40.1L44.24,11l3.5,1.41,9.62-4.1L64,14.76l-4,9.62,1.44,3.42,9.77,3.77v9.18l-9.74,4-1.43,3.41,4.18,9.43-6.62,6.47-9.79-3.87-3.52,1.42Zm-6.05-5h2.68l3.35-8.38,7.43-3,1.54,0.64,7.05,2.79,1.82-1.78-3.68-8.17,3.11-7.42,1.61-.62,6.93-2.88V35l-8.53-3.24-3.12-7.42,0.71-1.6L58.09,16l-1.83-1.79-8.39,3.63-7.45-3-0.64-1.6L36.82,6.43H34.15L30.82,14.8l-7.43,3-1.55-.66-7.06-2.78L13,16.17l3.67,8.16-3.12,7.42-1.6.62L5,35.24v2.42l8.52,3.27,3.12,7.38-0.71,1.6-2.79,6.76L15,58.46l8.4-3.63,7.44,3,0.64,1.59Z"/><path class="cls-1" d="M35.62,52.29a16,16,0,1,1,16-16A16,16,0,0,1,35.62,52.29Zm0-26.93a11,11,0,1,0,11,11A11,11,0,0,0,35.62,25.36Z"/><path class="cls-1" d="M85.11,33.38H80.29l-2-4.54-1.39-.56-4.58,2-3.43-3.36,1.89-4.58L70.24,21l-4.66-1.8V14.4l4.64-1.93,0.57-1.35-2-4.5,3.41-3.34L76.9,5.12l1.39-.56L80.13,0h4.81l2,4.54L88.3,5.1l4.58-2L96.32,6.5l-1.89,4.59L95,12.44l4.66,1.8V19L95,20.91l-0.57,1.35,2,4.5L93,30.1l-4.67-1.84-1.4.56Zm-2.84-3h0.82l1.53-3.85L88.36,25l0.85,0.35,3.1,1.23,0.54-.53-1.69-3.75,1.57-3.74,0.88-.34,3-1.26V16.29l-3.92-1.49-1.58-3.74,0.39-.88,1.22-3-0.54-.53L88.37,8.37,84.61,6.85,84.26,6,83,3H82.15L80.63,6.84,76.88,8.37,76,8l-3.1-1.22-0.54.53,1.69,3.74L72.5,14.8l-0.88.34-3,1.26v0.69l3.92,1.5,1.57,3.72-0.39.88-1.22,3L73,26.69,76.87,25l3.75,1.52L81,27.42Z"/><path class="cls-1" d="M82.62,24.51a7.81,7.81,0,1,1,7.82-7.81A7.82,7.82,0,0,1,82.62,24.51Zm0-12.63a4.81,4.81,0,1,0,4.82,4.82A4.82,4.82,0,0,0,82.62,11.88Z"/><path class="cls-1" d="M30.72,36.81h-3a8.66,8.66,0,0,1,8.65-8.65v3A5.66,5.66,0,0,0,30.72,36.81Z"/></svg>