<svg width="64" height="64" viewBox="0 0 64 64" fill="none" xmlns="http://www.w3.org/2000/svg">
<path d="M53.5 0L0 53.5" transform="translate(6 5.29999)" stroke="#AECAD6" stroke-miterlimit="10"/>
<path d="M17.1 1C14.5 0.3 11.8 0 9.1 0C6 0 2.9 0.5 0 1.3" transform="translate(23.5 0.5)" stroke="#AECAD6" stroke-miterlimit="10"/>
<path d="M2.6 6.7C2 4.3 1.1 2.1 0 0" transform="translate(60.5 17.4)" stroke="#AECAD6" stroke-miterlimit="10"/>
<path d="M0 0C2.2 13.5 13 24.1 26.6 26" transform="translate(1.5 37.2)" stroke="#AECAD6" stroke-miterlimit="10"/>
<path d="M0 4.2L4.2 0L8.5 4.2" transform="translate(3.29999 24.8)" stroke="#5C8495" stroke-miterlimit="10"/>
<path d="M0.809612 0C-1.39039 8.5 0.909612 17.8 7.50961 24.5C14.1096 31.2 23.5096 33.4 32.0096 31.2" transform="translate(6.99036 25.6)" stroke="#5C8495" stroke-miterlimit="10" stroke-linecap="square"/>
<path d="M8.6 0L4.3 4.2L0 0" transform="translate(53.3 35)" stroke="#5C8495" stroke-miterlimit="10"/>
<path d="M31.2 32.0234C33.4 23.5234 31.1 14.2234 24.5 7.52344C17.9 0.823444 8.5 -1.37656 0 0.823444" transform="translate(26.2 6.37653)" stroke="#5C8495" stroke-miterlimit="10" stroke-linecap="square"/>
<path d="M6 0H0V6H6V0Z" transform="translate(53.6596 10.9378) rotate(90)" fill="#F27179"/>
<path d="M20 40C31.0457 40 40 31.0457 40 20C40 8.9543 31.0457 0 20 0C8.9543 0 0 8.9543 0 20C0 31.0457 8.9543 40 20 40Z" transform="translate(12.6 12)" fill="white"/>
<path d="M11 30.2C7.5 28.3 0 23.4 0 19.1V5.8L11 0L22 5.8V19.1C22 23.3 14.4 28.3 11 30.2Z" transform="translate(21.6 17.2)" fill="white"/>
<path d="M12 2.3L22 7.6V20.3C22 23.6 15.8 28.1 12 30.2C8.2 28.1 2 23.6 2 20.3V7.6L12 2.3ZM12 0L0 6.4V20.3C0 26.3 12 32.5 12 32.5C12 32.5 24 26.3 24 20.3V6.4L12 0Z" transform="translate(20.6 16)" fill="#5C8495"/>
<path d="M0 3.4L3.3 6.6L9.8 0" transform="translate(28.6 28.5)" stroke="#5C8495" stroke-width="2" stroke-miterlimit="10"/>
</svg>
