<svg id="Layer_1" data-name="Layer 1" xmlns="http://www.w3.org/2000/svg" viewBox="0 0 102.94 84.11"><defs><style>.cls-1{fill:#231f20;}</style></defs><title>system-collaboration</title><path class="cls-1" d="M51.47,54.17l-1.09-.53C49.32,53.12,40,48.45,38.87,42.25l0-.45V26.9l12.64-6.56L64.11,26.9l0,15.35c-1.14,6.19-10.45,10.87-11.51,11.39ZM43.83,41.53c0.6,2.36,4.49,5.3,7.64,7,3.15-1.74,7-4.68,7.64-7V29.94l-7.64-4-7.64,4v11.6Z"/><polygon class="cls-1" points="96.8 84.11 78.4 73.42 24.3 73.42 24.3 66.2 29.3 66.2 29.3 68.42 79.75 68.42 91.8 75.42 91.8 68.42 97.94 68.42 97.94 14.95 29.3 14.95 29.3 55.67 24.3 55.67 24.3 9.95 102.94 9.95 102.94 73.42 96.8 73.42 96.8 84.11"/><polygon class="cls-1" points="6.14 74.16 6.14 63.46 0 63.46 0 0 78.64 0 78.64 7.69 73.64 7.69 73.64 5 5 5 5 58.46 11.14 58.46 11.14 65.47 23.19 58.46 73.64 58.46 73.64 17.47 78.64 17.47 78.64 63.46 24.54 63.46 6.14 74.16"/></svg>