<svg id="Layer_1" data-name="Layer 1" xmlns="http://www.w3.org/2000/svg" viewBox="0 0 495.58 107.9"><defs><style>.cls-1{fill:#231f20;opacity:0.03;}</style></defs><title>kaspersky-logo-footer</title><path class="cls-1" d="M508.8,235.9H545v6.94H508.8V235.9ZM545,205.4v7h-2.51c2.26,1.25,3.31,4.15,3.31,6.86,0,7.38-5.77,11.71-12.46,11.71-7.61,0-12.39-5.5-12.39-11.71,0-3.8,1.85-5.94,3.28-6.86h-2.48v-7H545ZM533.47,224a5.8,5.8,0,0,0,5.82-5.78,5.34,5.34,0,0,0-2.6-4.86,6.34,6.34,0,0,0-3-1,6,6,0,0,0-3,.58,5.52,5.52,0,0,0-3.22,5.29,5.74,5.74,0,0,0,6,5.74h0ZM508.8,200.64v-7h14.78a9,9,0,0,1-2.65-6.76c0-4.86,3.47-11.41,12.27-11.41,8.39,0,12.58,5.81,12.58,11.73,0,3.27-1.59,5.77-3.26,6.73H545v6.67H508.8Zm24.5-18.18a5.74,5.74,0,1,0,0,11.47c3.22,0,6-2.19,6-5.65a5.8,5.8,0,0,0-6-5.82h0ZM126.54,220.34l8.89,17.8,8.9-17.8H126.54Zm160.68-20.05-17.8,8.9,17.8,8.89V200.28Zm199.33,42.55-8.9-17.78-8.9,17.78h17.8Z" transform="translate(-50.21 -155.63)"/><path class="cls-1" d="M168,242.84H155.32l-19.89-42.67-19.88,42.67H102.84l32.59-69.91Zm128.2-54.62v-12.7h-40v67.32h40v-12.7H268.92V188.21h27.32ZM62.92,175.51H50.21v67.32h12.7V175.51Zm15.37,33.67,23.58-33.67H87L63.42,209.18,87,242.84h14.87Zm331.59-33.67H397.2v67.32h12.69V175.51Zm15.38,33.67,23.56-33.67H434l-23.58,33.67L434,242.84h14.86Zm-85.84,7.57a21.79,21.79,0,0,0,10-18.46c0-8.29-3.68-15-10.4-19-4.45-2.62-9.89-3.82-17.14-3.82H306v67.32h12.71V188.21h3.2c8.8,0,14.83,2.17,14.83,10.07,0,7.38-7.28,10.62-15.69,10.88-0.26,0-1.2,0-1.83,0l23.57,33.66H357.7ZM238.84,179.33c-4.44-2.62-9.88-3.82-17.14-3.82H205.79v67.32H218.5V188.21h3.2c8.79,0,14.82,2.17,14.82,10.07,0,7.38-7.27,10.62-15.68,10.88-0.27,0-1.21,0-1.83,0l8.44,12.05a31.31,31.31,0,0,0,11-4c0.24-.16.47-0.3,0.7-0.47a21.83,21.83,0,0,0,10-18.46c0-8.29-3.7-15-10.38-19m254.42-3.82-15.59,27-15.62-27H449.35l28.31,49,28.29-49h-12.7ZM167,252.24l5.18,11.29c24.65-18.86,29.18-39.9,13.15-62.46-12.71-17.85,1.26-33.76,5.47-37.88l-9.41-7.56c-6.17,6.77-22.35,27.91-8.2,49.17,13.7,20.59,12.27,31.75-6.19,47.43m191.38,0,5.2,11.29c24.63-18.86,29.17-39.9,13.13-62.46-12.69-17.85,1.29-33.76,5.49-37.88l-9.44-7.56c-6.16,6.77-22.32,27.91-8.17,49.17,13.69,20.59,12.27,31.75-6.21,47.43" transform="translate(-50.21 -155.63)"/></svg>