<?xml version="1.0" encoding="utf-8"?>
<!-- Generator: Adobe Illustrator 21.1.0, SVG Export Plug-In . SVG Version: 6.00 Build 0)  -->
<svg version="1.2" baseProfile="tiny" id="advanced_x5F_protection"
	 xmlns="http://www.w3.org/2000/svg" xmlns:xlink="http://www.w3.org/1999/xlink" x="0px" y="0px" viewBox="0 0 180 150"
	 xml:space="preserve">
<path d="M67.5,35.2l35.9,16.7v45.6c0,9.3-19.5,24.3-35.9,33.4c-16.4-9-35.9-24.1-35.9-33.4V51.9L67.5,35.2 M67.5,22.9l-47,21.8v52.7
	c0,22.7,47,45.9,47,45.9s47-23.2,47-45.9V44.8L67.5,22.9L67.5,22.9z"/>
<path d="M113.4,0.8L101,6.5l40,18.6l5.4,2.5v5.9v52.7c0,6.3-2.4,12.4-6.2,18.1c10.6-8.3,20.3-18.7,20.3-29V22.6L113.4,0.8z"/>
<path d="M90.9,12.1l-12.4,5.8l40,18.6l5.4,2.5v5.9v52.7c0,6.3-2.4,12.4-6.2,18.1c10.6-8.3,20.3-18.7,20.3-29V33.9L90.9,12.1z"/>
</svg>
