<svg id="Layer_1" data-name="Layer 1" xmlns="http://www.w3.org/2000/svg" viewBox="0 0 115.46 92.82"><defs><style>.cls-1{fill:#231f20;}</style></defs><title>icon-system-gateways</title><path class="cls-1" d="M57.73,89.67l-1.09-.53c-1.06-.51-10.37-5.19-11.51-11.39l0-.45V62.4l12.64-6.56L70.37,62.4l0,15.35c-1.14,6.2-10.45,10.87-11.51,11.39ZM50.09,77c0.64,2.53,4.87,5.5,7.64,7,3.15-1.74,7-4.68,7.64-7V65.44l-7.64-4-7.64,4V77Z" transform="translate(0 0)"/><rect class="cls-1" x="56.23" y="37.59" width="3" height="23.32"/><rect class="cls-1" x="34.34" y="71.27" width="13.12" height="3"/><path class="cls-1" d="M36.84,92.82H0V52.73H36.84v40.1ZM5,87.82H31.84V57.73H5v30.1Z" transform="translate(0 0)"/><rect class="cls-1" x="8.93" y="63.39" width="18.98" height="3"/><rect class="cls-1" x="8.93" y="70.62" width="18.98" height="3"/><rect class="cls-1" x="14.85" y="78.42" width="7.14" height="5"/><rect class="cls-1" x="68" y="71.27" width="13.12" height="3"/><path class="cls-1" d="M115.46,92.82H78.62V52.73h36.84v40.1Zm-31.84-5h26.84V57.73H83.62v30.1Z" transform="translate(0 0)"/><rect class="cls-1" x="87.55" y="63.39" width="18.98" height="3"/><rect class="cls-1" x="87.55" y="70.62" width="18.98" height="3"/><rect class="cls-1" x="93.47" y="78.42" width="7.14" height="5"/><path class="cls-1" d="M76.15,40.09H39.31V0H76.15V40.09Zm-31.84-5H71.15V5H44.31V35.09Z" transform="translate(0 0)"/><rect class="cls-1" x="48.24" y="10.66" width="18.98" height="3"/><rect class="cls-1" x="48.24" y="17.9" width="18.98" height="3"/><rect class="cls-1" x="54.16" y="25.7" width="7.14" height="5"/></svg>