<svg width="64" height="64" viewBox="0 0 64 64" fill="none" xmlns="http://www.w3.org/2000/svg">
<path d="M0 62V0" transform="translate(32.2 1)" stroke="#AECAD6" stroke-miterlimit="10"/>
<path d="M7.3 0C2.8 4.5 0 10.8 0 17.7C0 31.5 11.2 42.7 25 42.7C38.8 42.7 50 31.5 50 17.7C50 10.8 47.2 4.5 42.7 0" transform="translate(7.20001 12.3)" stroke="#AECAD6" stroke-miterlimit="10"/>
<path d="M0 0C0.5 3.3 1.5 6.5 3 9.4" transform="translate(3.5 34.1)" stroke="#AECAD6" stroke-miterlimit="10"/>
<path d="M0 0V0.200001L0.5 0.1L0 0Z" transform="translate(32.7 29.9)" fill="#AECAD6"/>
<path d="M0 0C5.2 5.2 12.5 8.5 20.5 8.5H20.6" transform="translate(11.7 50.5)" stroke="#AECAD6" stroke-miterlimit="10"/>
<path d="M0.400002 0L0 0.200001H0.200001L0.400002 0Z" transform="translate(31.8 30)" fill="#AECAD6"/>
<path d="M7.9 0C3.9 4 1.1 9.1 0 14.8" transform="translate(3.79999 9.5)" stroke="#AECAD6" stroke-miterlimit="10"/>
<path d="M8.7 15.5C7.5 9.4 4.4 4.1 0 0" transform="translate(51.9 8.7)" stroke="#AECAD6" stroke-miterlimit="10"/>
<path d="M20 40C31.0457 40 40 31.0457 40 20C40 8.9543 31.0457 0 20 0C8.9543 0 0 8.9543 0 20C0 31.0457 8.9543 40 20 40Z" transform="translate(12.2 10)" fill="white"/>
<path d="M10.9 10.9L0 0" transform="translate(34.3 32.1)" stroke="#5C8495" stroke-width="2" stroke-miterlimit="10"/>
<path d="M0 0L6.2 6.2" transform="translate(46 43.8)" stroke="#5C8495" stroke-width="6" stroke-miterlimit="10" stroke-linecap="round"/>
<path d="M1.9 0C0.7 2 0 4.3 0 6.8C0 14 5.8 19.8 13 19.8C20.2 19.8 26 14 26 6.8C26 4.3 25.3 2 24.1 0" transform="translate(19.2 23.2)" fill="white"/>
<path d="M1.9 0C0.7 2 0 4.3 0 6.8C0 14 5.8 19.8 13 19.8C20.2 19.8 26 14 26 6.8C26 4.3 25.3 2 24.1 0" transform="translate(19.2 23.2)" stroke="#5C8495" stroke-width="2" stroke-miterlimit="10"/>
<path d="M3 6C4.65685 6 6 4.65685 6 3C6 1.34315 4.65685 0 3 0C1.34315 0 0 1.34315 0 3C0 4.65685 1.34315 6 3 6Z" transform="translate(29.2 27)" fill="#F27179"/>
<path d="M0.299999 0C0.0999992 0.6 0 1.3 0 2C0 5.9 3.1 9 7 9C10.9 9 14 5.9 14 2C14 1.3 13.9 0.6 13.7 0" transform="translate(25.2 28)" stroke="#5D8494" stroke-width="1.8645" stroke-miterlimit="10"/>
<path d="M13.6 12C15.7 12 17.6 12.8 19 14.1L17.6 15.6C16.5 14.6 15.1 14 13.5 14C11.9 14 10.5 14.6 9.4 15.6L8 14.1C9.6 12.8 11.5 12 13.6 12ZM0 5.4L1.4 6.9C4.6 3.9 8.9 2.1 13.6 2.1C18.3 2.1 22.6 3.9 25.8 6.9L27.2 5.4C23.6 2 18.9 0 13.6 0C8.3 0 3.6 2 0 5.4ZM4.1 9.8L5.5 11.3C7.6 9.3 10.5 8.1 13.7 8.1C16.9 8.1 19.7 9.3 21.9 11.3L23.3 9.8C20.8 7.5 17.5 6 13.8 6C9.9 6 6.6 7.4 4.1 9.8Z" transform="translate(18.6 10)" fill="#5C8495"/>
</svg>
