<svg width="64" height="64" viewBox="0 0 64 64" fill="none" xmlns="http://www.w3.org/2000/svg">
<path d="M26 1C39.8 1 51 12.2 51 26C51 39.8 39.8 51 26 51C12.2 51 1 39.8 1 26C1 12.2 12.3 1 26 1ZM26 0C11.6 0 0 11.6 0 26C0 40.4 11.6 52 26 52C40.4 52 52 40.4 52 26C52 11.7 40.4 0 26 0Z" transform="translate(4.10004 7.09999)" fill="#AECAD6"/>
<path d="M5.3 18.4C5.3 17.3 5.3 16.1 5.2 14.9C4.8 9.4 2.9 4.3 0 0" transform="translate(55.6 15.7)" stroke="#AECAD6" stroke-miterlimit="10"/>
<path d="M38 38L0 0" transform="translate(2.40002 4.39999)" stroke="#AECAD6" stroke-miterlimit="10"/>
<path d="M0 53.3L53.3 0" transform="translate(3.5 6.5)" stroke="#AECAD6" stroke-miterlimit="10"/>
<path d="M6 0H0V6H6V0Z" transform="translate(10 11.7)" fill="#F27179"/>
<path d="M14.1 14.2L0 0" transform="translate(34.8 36.2)" stroke="#5C8495" stroke-width="2" stroke-miterlimit="10"/>
<path d="M0 0L7.4 7.4" transform="translate(48.6 50)" stroke="#5C8495" stroke-width="6" stroke-miterlimit="10" stroke-linecap="round"/>
<path d="M19 38C8.5 38 0 29.5 0 19C0 8.5 8.5 0 19 0C29.5 0 38 8.5 38 19C38 29.5 29.5 38 19 38Z" transform="translate(11.1 14.1)" fill="white"/>
<path d="M20 2C29.9 2 38 10.1 38 20C38 29.9 29.9 38 20 38C10.1 38 2 29.9 2 20C2 10.1 10.1 2 20 2ZM20 0C9 0 0 9 0 20C0 31 9 40 20 40C31 40 40 31 40 20C40 9 31.1 0 20 0Z" transform="translate(10.1 13.1)" fill="#5C8495"/>
<path d="M20 4.575C20 -1.525 0 -1.525 0 4.575V7.475C2.5 9.775 5.8 11.175 9.5 11.175C13.7 11.175 17.4 9.375 20 6.375V4.575Z" transform="translate(20.6 35.925)" fill="#5C8495"/>
<path d="M5.6 11.2C8.69279 11.2 11.2 8.69279 11.2 5.6C11.2 2.50721 8.69279 0 5.6 0C2.50721 0 0 2.50721 0 5.6C0 8.69279 2.50721 11.2 5.6 11.2Z" transform="translate(24.8 22.4)" fill="#5C8495"/>
</svg>
