<svg id="Layer_1" data-name="Layer 1" xmlns="http://www.w3.org/2000/svg" viewBox="0 0 77.58 91.68"><defs><style>.cls-1{fill:#231f20;}</style></defs><title>icon-system-mail</title><path class="cls-1" d="M77.58,91.68H0V38.79L38.79,0,77.58,38.79V91.68ZM5,86.68H72.58V40.86L38.79,7.07,5,40.86V86.68Z"/><polygon class="cls-1" points="38.79 79.65 0.73 41.59 4.27 38.06 38.79 72.58 73.31 38.06 76.85 41.59 38.79 79.65"/><path class="cls-1" d="M38.79,57.45l-1.09-.53c-1.06-.51-10.37-5.19-11.51-11.39l0-.45V30.18l12.64-6.56,12.64,6.56,0,15.35c-1.14,6.19-10.45,10.87-11.51,11.39ZM31.15,44.81c0.6,2.36,4.49,5.3,7.64,7,3.15-1.74,7-4.68,7.64-7V33.22l-7.64-4-7.64,4v11.6Z"/><rect class="cls-1" x="2.5" y="38.33" width="20.29" height="3"/><rect class="cls-1" x="54.7" y="38.33" width="20.38" height="3"/></svg>